<?xml version="1.0" encoding="utf-8"?>
<!-- Generator: Adobe Illustrator 23.0.3, SVG Export Plug-In . SVG Version: 6.00 Build 0)  -->
<svg version="1.1" id="Layer_1" xmlns="http://www.w3.org/2000/svg" xmlns:xlink="http://www.w3.org/1999/xlink" x="0px" y="0px"
	 viewBox="0 0 100 100" style="enable-background:new 0 0 100 100;" xml:space="preserve">
<style type="text/css">
	.st0{fill:#243A76;stroke:#243A76;stroke-width:1.5;stroke-linecap:round;stroke-linejoin:round;stroke-miterlimit:10;}
</style>
<g>
	<path class="st0" d="M51.8,17.2c1.3,0.2,2.7,0.3,4,0.7C66.2,20.5,73,27,75.6,37.4c2.1,8.2,0.1,15.6-5,22.2
		c-5.4,6.9-10.9,13.8-16.3,20.8c-0.9,1.2-2.1,2-3.5,2.4c-0.5,0-1,0-1.5,0c-1.8-0.4-2.9-1.6-4-2.9c-3.4-4.5-6.9-8.9-10.4-13.3
		c-0.1-0.2-0.3-0.3-0.4-0.5c-0.3-0.5-0.1-0.9,0.2-1.2c0.4-0.3,0.8-0.3,1.2,0c0.2,0.1,0.3,0.3,0.4,0.5c3.7,4.7,7.4,9.4,11,14.1
		c1.5,2,3.7,2,5.2,0c5.5-7,11-14.1,16.5-21.1c3.8-4.9,5.6-10.4,5.2-16.7c-0.6-9.5-7.3-18.2-16.4-21.3c-13.1-4.4-27,2.6-31.2,15.8
		c-2.4,7.6-1.2,14.8,3.5,21.3c0.9,1.3,1.9,2.5,2.9,3.8c0.5,0.6,0.5,1.2,0,1.6c-0.5,0.4-1,0.2-1.5-0.4c-2-2.6-4.2-5-5.5-8.1
		c-4.3-10-3-19.2,3.7-27.7c4.1-5.1,9.6-8.1,16.2-9.2c0.7-0.1,1.5-0.2,2.2-0.3C49.4,17.2,50.6,17.2,51.8,17.2z"/>
	<path class="st0" d="M50,61.8c-9.3-0.1-16.9-6.6-18.5-15.7c-1.8-9.9,5.1-19.8,15-21.6c10.2-1.8,19.7,4.4,22,14.6
		c0.6,2.6,0.6,5.3,0,7.9c-0.2,0.8-0.6,1.1-1.2,1c-0.6-0.1-0.8-0.6-0.7-1.4c1.5-7.5-1.7-14.7-8.3-18.4C48,22.4,35,28.8,33.3,40.5
		c-1.3,9.2,4.9,17.7,14,19.1c7,1.1,13.9-2.2,17.4-8.4c0.1-0.1,0.1-0.3,0.2-0.4c0.3-0.5,0.8-0.7,1.3-0.4c0.5,0.3,0.7,0.8,0.4,1.4
		c-0.9,1.3-1.7,2.8-2.8,4C60.4,59.6,55.1,61.8,50,61.8z"/>
	<path class="st0" d="M47.4,42.7c0.8-0.8,1.5-1.6,2.2-2.4c1.6-1.7,3.2-3.5,4.8-5.2c1.1-1.2,2.5-1.6,4.1-1c1.5,0.5,2.4,1.7,2.6,3.3
		c0.1,1.1-0.2,2-0.9,2.8c-3.3,3.6-6.6,7.2-9.9,10.7c-1.5,1.6-3.8,1.6-5.4,0.1c-1.7-1.5-3.3-3.1-4.9-4.7c-1.5-1.5-1.5-3.9,0-5.4
		c1.4-1.5,3.8-1.5,5.4-0.1C46,41.4,46.7,42,47.4,42.7z M59.2,37.7c-0.1-0.7-0.4-1.2-0.9-1.6c-0.8-0.6-1.8-0.4-2.5,0.4
		c-2.5,2.7-4.9,5.3-7.4,8c-0.7,0.7-1.2,0.7-1.9,0.1c-0.8-0.8-1.6-1.6-2.4-2.4c-0.8-0.7-1.9-0.7-2.6,0c-0.7,0.7-0.7,1.9,0,2.6
		c1.6,1.6,3.2,3.1,4.8,4.6c0.8,0.8,1.9,0.7,2.7-0.1c3.2-3.5,6.4-6.9,9.6-10.4C58.8,38.6,59,38.1,59.2,37.7z"/>
</g>
</svg>
