<?xml version="1.0" encoding="utf-8"?>
<!-- Generator: Adobe Illustrator 23.0.3, SVG Export Plug-In . SVG Version: 6.00 Build 0)  -->
<svg version="1.1" id="Layer_1" xmlns="http://www.w3.org/2000/svg" xmlns:xlink="http://www.w3.org/1999/xlink" x="0px" y="0px"
	 viewBox="0 0 250 250" style="enable-background:new 0 0 250 250;" xml:space="preserve">
<style type="text/css">
	.st0{fill:#243A76;}
	.st1{fill:#FBD23C;}
</style>
<circle class="st0" cx="125" cy="125" r="122"/>
<g>
	<path class="st1" d="M125,180.2c-22.3,0-44.5,0-66.9,0c-3.6,0-6.5-1.1-8.3-4.3c-1.7-2.9-1.5-5.8,0.1-8.7
		c3.6-6.1,7.1-12.2,10.5-18.3c18.7-32.5,37.4-65.1,56.3-97.5c1-1.7,2.2-3.5,3.9-4.4c4.2-2.8,9.3-1.2,12.1,3.6
		c4.3,7.4,8.6,14.8,12.9,22.2c18,31.3,36.1,62.7,54.2,94c2.6,4.7,1.4,8.7-1,11.1c-1.9,1.9-4.3,2.5-6.9,2.5c-15,0-30,0-45.1,0
		C139.7,180.2,132.3,180.2,125,180.2z M125,175.2c22.1,0,44,0,66,0c0.6,0,1.2,0,1.8,0c3.1-0.3,4.3-2.8,2.9-5.4
		c-0.3-0.6-0.6-1.1-1-1.7c-19.3-33.4-38.6-66.9-57.8-100.3c-2.9-5-5.7-10-8.6-15c-1.8-3.1-4.9-3.1-6.7,0c-0.1,0.3-0.3,0.4-0.4,0.7
		c-17.1,29.7-34.1,59.2-51.3,88.9c-5.3,9-10.4,18-15.5,27c-1.7,2.9-0.3,5.4,3.2,5.5c0.6,0,1.1,0,1.7,0
		C81.2,175.2,103.1,175.2,125,175.2z"/>
	<path class="st1" d="M113.5,108c0-4.3,0-8.7,0-13c0.1-9.4,9.4-15,17.5-10.4c3.7,2.2,5.7,5.7,5.7,10c0.1,9,0.1,17.9,0,26.9
		c0,5-2.4,8.6-6.9,10.7c-4.3,1.9-8.6,1.2-12.2-1.9c-2.9-2.5-4-5.7-4-9.4C113.5,116.6,113.5,112.3,113.5,108z M131.7,108
		c0-4.2,0-8.3,0-12.5c0-0.8,0-1.8-0.3-2.6c-0.8-4-5.4-6.2-9.2-4.3c-2.6,1.2-3.7,3.5-3.7,6.4c0,8.6,0,17.2,0,25.8
		c0,0.6,0,1.2,0.1,1.8c0.7,3.5,3.9,5.8,7.5,5.3c3.3-0.6,5.4-3.2,5.5-6.8C131.7,116.8,131.7,112.5,131.7,108z"/>
	<path class="st1" d="M112.5,151.3c0-6.9,5.5-12.5,12.5-12.5c6.9,0,12.5,5.7,12.5,12.5s-5.5,12.3-12.3,12.5
		C118.3,163.8,112.5,158.1,112.5,151.3z M125,158.7c4,0,7.5-3.5,7.5-7.5s-3.2-7.4-7.4-7.4s-7.5,3.2-7.5,7.4
		C117.5,155.2,121,158.7,125,158.7z"/>
</g>
</svg>
