<?xml version="1.0" encoding="utf-8"?>
<!-- Generator: Adobe Illustrator 23.0.3, SVG Export Plug-In . SVG Version: 6.00 Build 0)  -->
<svg version="1.1" id="Layer_1" xmlns="http://www.w3.org/2000/svg" xmlns:xlink="http://www.w3.org/1999/xlink" x="0px" y="0px"
	 viewBox="0 0 100 100" style="enable-background:new 0 0 100 100;" xml:space="preserve">
<style type="text/css">
	.st0{fill:#243A76;stroke:#243A76;stroke-width:1.0217;stroke-miterlimit:10;}
</style>
<g>
	<path class="st0" d="M28.9,82.9c-0.6,3.4-0.6,3.4-4.2,3.4c-1.9,0-3.7,0-5.6,0c-1.1,0-1.7-0.3-1.7-1.6c0-9.6,0-19.2,0-28.8
		c0-1.1,0.5-1.6,1.6-1.6c2.7,0,5.4,0,8.2,0c1.1,0,1.6,0.5,1.5,1.6c0,1.2,0,2.3,0,3.6c1.4-0.3,2.6-0.7,3.9-0.8
		c3.7-0.4,6.8,0.9,9.5,3.4c0.6,0.6,1.6,0.9,2.4,1c3.6,0.1,7.3,0,10.9,0c4.1,0,6.1,2.3,5.6,6.4c0,0.2,0,0.5,0,1
		c1-0.6,1.7-1.1,2.5-1.7c3.3-2.5,6.7-5.1,10-7.7c2.8-2.1,5.9-1.9,7.9,0.6c2,2.4,1.5,5.6-1.1,7.9c-4.4,3.8-8.8,7.5-13.1,11.2
		c-6.5,5.7-13.8,7.1-22.1,5.2C39.7,84.9,34.3,84,28.9,82.9z M28.7,80.6c6.7,1.3,13.2,2.7,19.8,3.8c5.9,1.1,11.2-0.3,15.8-4.1
		c5-4.1,9.8-8.3,14.7-12.5c0.6-0.5,1.1-1.2,1.3-2c0.4-1.4-0.1-2.6-1.4-3.3c-1.3-0.8-2.6-0.6-3.8,0.3c-3.4,2.6-6.9,5.3-10.3,7.9
		c-1.9,1.5-4,2.5-6.4,2.6c-5.1,0-10.3,0-15.4,0c-0.3,0-0.7,0-0.9-0.1c-0.3-0.2-0.7-0.6-0.7-0.9c0-0.3,0.3-0.8,0.7-1
		c0.5-0.2,1.1-0.2,1.6-0.2c4,0,7.9,0,11.9,0c2.1,0,3.4-1.1,3.4-2.8c0-1.8-1.3-2.9-3.5-2.9c-3.7,0-7.4-0.1-11.1,0
		c-1.6,0-2.7-0.4-3.9-1.6c-2.9-3-7.3-3.8-10.5-2c-0.5,0.3-1.1,1.1-1.1,1.6C28.7,69.1,28.7,74.7,28.7,80.6z M26.4,56.8
		c-2.3,0-4.5,0-6.6,0c0,9.2,0,18.2,0,27.2c2.3,0,4.5,0,6.6,0C26.4,74.8,26.4,65.8,26.4,56.8z"/>
	<path class="st0" d="M57.6,44.1c1.7,0,3.2,0,4.8,0c2,0.1,2.7,0.8,2.8,2.8c0,0.6,0,1.2,0,1.9c-0.1,1.9-0.8,2.7-2.7,2.8
		c-1.5,0.1-3.1,0-4.8,0c0,1.6,0,3.1,0,4.5c0,2.2-0.8,3-3,3c-0.2,0-0.4,0-0.6,0c-3.4,0-3.9-0.4-3.9-3.8c0-1.2,0-2.3,0-3.8
		c-1.6,0-3,0-4.5,0c-2.4,0-3.1-0.8-3.2-3.1c0-0.4,0-0.9,0-1.3c0.1-2.3,0.8-3,3-3.1c1.4,0,2.7,0,4.1-0.1c0.1,0,0.2-0.1,0.6-0.2
		c0-1.5,0-3.1,0-4.6c0-1.8,0.9-2.7,2.7-2.7c0.7,0,1.4,0,2,0c1.8,0,2.6,1,2.7,2.7C57.6,40.7,57.6,42.3,57.6,44.1z M62.9,46.3
		c-1.7,0-3.2,0-4.7,0c-2.1-0.1-2.8-0.9-2.9-3c0-1.5,0-3,0-4.5c-1.2,0-2,0-3,0c0,1.5,0,2.8,0,4.2c0,2.6-0.8,3.3-3.3,3.4
		c-1.4,0-2.9,0-4.2,0c0,1.2,0,2,0,3c1.4,0,2.7,0,4,0c2.9,0,3.5,0.7,3.5,3.6c0,1.3,0,2.5,0,3.8c1.1,0,1.9,0,2.7,0
		c0.1-0.2,0.2-0.3,0.2-0.4c0-1.3,0-2.6,0-3.9c0-2.5,0.7-3.1,3.2-3.2c1.4,0,2.8,0,4.3,0C62.9,48.3,62.9,47.4,62.9,46.3z"/>
	<path class="st0" d="M33.9,29.4c1.8,0,3.2,0,4.6,0c2.3,0,3.1,0.9,3.1,3.2c0,0.6,0,1.2,0,1.9c-0.1,1.5-0.9,2.4-2.5,2.4
		c-1.6,0-3.2,0-5.2,0c0,1.5,0,3,0,4.4c0,2.6-0.8,3.3-3.7,3.3c-2.9,0-3.7-0.7-3.7-3.4c0-1.4,0-2.7,0-4.3c-1.6,0-3.2,0-4.7,0
		c-2.1,0-2.9-0.8-2.9-2.9c0-0.6,0-1.2,0-1.9c0.1-1.8,0.9-2.6,2.6-2.7c1.6-0.1,3.2,0,5,0c0-1.5,0-2.9,0-4.2c0-2.7,0.7-3.4,3.4-3.4
		c0.6,0,1.1,0,1.7,0c1.5,0.1,2.3,0.9,2.3,2.4C34,25.9,33.9,27.5,33.9,29.4z M21.2,34.5c0.3,0.1,0.4,0.1,0.6,0.1c1.3,0,2.6,0,3.9,0
		c2.3,0,3,0.8,3,3c0,1.5,0,3,0,4.6c1.1,0,2,0,3,0c0-1,0-1.9,0-2.8c0-4.5,0.2-4.8,4.7-4.8c1,0,1.9,0,2.9,0c0-1.1,0-1.9,0-3
		c-1.6,0-3,0-4.5,0c-2.2,0-3-0.8-3-3c0-1.5,0-3,0-4.5c-1.2,0-2,0-3,0c0,1.7,0,3.2,0,4.7c0,2-0.8,2.8-2.8,2.8c-1.5,0-3.1,0-4.7,0
		C21.2,32.7,21.2,33.6,21.2,34.5z"/>
	<path class="st0" d="M66,28.2c-1.7,0-3.2,0-4.7,0c-2.2-0.1-3-0.8-3-3c0-0.6,0-1.1,0-1.7c0.1-1.9,0.8-2.7,2.7-2.7c1.5,0,3.1,0,4.9,0
		c0-1.7,0-3.3,0-4.9c0.1-2,0.8-2.8,2.8-2.8c0.6,0,1.1,0,1.7,0c2,0.1,2.9,0.9,2.9,3c0,1.5,0,2.9,0,4.7c1.7,0,3.2,0,4.7,0
		c2.1,0,2.8,0.8,2.9,2.9c0,0.6,0,1.1,0,1.7c0,1.9-0.8,2.7-2.7,2.8c-1.5,0.1-3.1,0-4.9,0c0,1.6,0,3,0,4.5c0,2.3-0.8,3.1-3.1,3.1
		c-0.6,0-1.1,0-1.7,0c-1.8-0.1-2.6-0.8-2.6-2.6C66,31.6,66,30,66,28.2z M78.7,22.9c-1.7,0-3.3,0-4.9,0c-1.7-0.1-2.6-0.9-2.6-2.7
		c0-1.6,0-3.2,0-4.8c-1.1,0-2,0-3,0c0,0.9,0,1.7,0,2.5c0,4.8-0.1,4.9-4.8,4.9c-0.9,0-1.8,0-2.7,0c0,1.2,0,2,0,3c1.6,0,3.2,0,4.7,0
		c2,0,2.8,0.8,2.8,2.8c0,1.5,0,3.1,0,4.6c1.1,0,2,0,3,0c0-1.6,0-3.1,0-4.5c0-2.1,0.7-2.8,2.9-2.9c1.5,0,3,0,4.6,0
		C78.7,24.9,78.7,24.1,78.7,22.9z"/>
</g>
</svg>
