<?xml version="1.0" encoding="utf-8"?>
<!-- Generator: Adobe Illustrator 23.0.3, SVG Export Plug-In . SVG Version: 6.00 Build 0)  -->
<svg version="1.1" id="Layer_1" xmlns="http://www.w3.org/2000/svg" xmlns:xlink="http://www.w3.org/1999/xlink" x="0px" y="0px"
	 viewBox="0 0 100 100" style="enable-background:new 0 0 100 100;" xml:space="preserve">
<style type="text/css">
	.st0{fill:#A7ACB6;}
</style>
<g>
	<path class="st0" d="M12.1,85.1c0.9-2.8,1.8-5.6,2.7-8.4c1.6-4.9,3.1-9.8,4.7-14.6c0.7-2.1,1.8-2.9,4-2.9c2.9,0,5.8,0,8.7,0
		c0.5,0,0.7-0.2,0.9-0.7c1.7-5.5,3.5-11,5.3-16.5c0.2-0.6,0.4-1.3,0.7-1.8c0.7-1.1,1.7-1.7,3-1.7c5.9,0,11.8,0,17.7,0
		c1.7,0,2.9,1,3.5,2.8c1.9,5.7,3.7,11.4,5.6,17.1c0.2,0.6,0.4,0.8,1,0.8c2.8,0,5.6,0,8.4,0c2.1,0,3.3,0.9,4,2.9
		c2.4,7.5,4.9,15,7.3,22.5c0.1,0.2,0.2,0.4,0.3,0.6c0,0.3,0,0.6,0,0.9c-0.4,1-1.2,1.4-2.3,1.4c-24.4,0-48.8,0-73.1,0
		c-1.1,0-1.9-0.4-2.4-1.4C12.1,85.7,12.1,85.4,12.1,85.1z M32.4,71.3c-3.5,0-6.9,0-10.4,0c-1.3,0-1.9,0.5-2.3,1.7
		c-1,3.4-2,6.7-3,10.1c-0.2,0.6-0.1,0.7,0.5,0.7c5.2,0,9.9-1.3,14.2-4.2c1.5-1.1,3.1-2.1,4.8-2.9c2.8-1.3,5.1-0.8,7.1,1.5
		c0.4,0.5,0.8,1,1.2,1.5c0.8,1.1,1.4,2.4,2,3.6c0.2,0.4,1.1,0.6,1.4,0.4c0.3-0.2,0-0.5-0.1-0.8c-1-3.3-2-6.7-3.1-10
		c-0.4-1.4-0.8-1.6-2.2-1.6C39.2,71.3,35.8,71.3,32.4,71.3z M53.9,83.8c2.4,0.1,4.7-0.2,7-0.7c3.2-0.7,6-2.1,8.6-3.9
		c1.6-1.1,3.2-2.2,5.1-2.8c1.8-0.6,3.5-0.4,5,0.8c1.9,1.5,3,3.5,4,5.6c0.6,1.1,0.5,1.1,1.8,0.9c-0.1-0.2-0.1-0.4-0.2-0.7
		c-1-3.4-2.1-6.8-3.1-10.1c-0.4-1.3-0.8-1.6-2.1-1.6c-6.9,0-13.8,0-20.7,0c-1.2,0-1.9,0.5-2.2,1.7c-0.7,2.2-1.3,4.5-2,6.7
		C54.7,81.1,54.3,82.4,53.9,83.8z M51.1,50.7c-3.4,0-6.7,0-10.1,0c-1.1,0-1.8,0.4-2.1,1.4c-1.1,3.5-2.1,7-3.2,10.5
		c-0.1,0.4,0,0.6,0.4,0.6c1.9,0,3.7-0.2,5.6-0.5c3.4-0.6,6.4-2.3,9.2-4.3c1.5-1.1,3-2,4.8-2.6c1.7-0.6,3.3-0.4,4.8,0.7
		c1.1,0.8,2,1.9,2.7,3.1c0.7,1.1,1.3,2.2,1.8,3.3c0.2,0.3,1,0.6,1.4,0.4c0.4-0.2,0-0.6,0-0.8c-1-3.3-2-6.7-3.1-10
		c-0.4-1.3-0.8-1.6-2.2-1.6C57.7,50.6,54.4,50.7,51.1,50.7z M50.9,48.2c3.4,0,6.9,0,10.3,0c0.5,0,0.6,0,0.5-0.6
		c-0.6-1.7-1.2-3.3-1.7-5c-0.1-0.4-0.4-0.5-0.8-0.5c-5.5,0-10.9,0-16.4,0c-0.5,0-0.7,0.2-0.8,0.6c-0.5,1.6-1.1,3.2-1.6,4.8
		c-0.2,0.5-0.1,0.7,0.5,0.7C44.2,48.2,47.6,48.2,50.9,48.2z M43.4,68.9c-0.2-0.5-0.3-0.9-0.4-1.3c-0.1-0.6-0.4-0.8-1.1-0.8
		c-3.5,0-6.9,0-10.4,0c-0.8,0-1.7,0-2.5,0c-0.7,0-1.2-0.5-1.2-1.2c0-0.7,0.5-1.2,1.2-1.2c0.4,0,0.9,0,1.3,0c1.2,0,1.1,0,1.4-1.1
		c0.1-0.3,0-0.4-0.3-0.4c-2.6,0-5.2,0-7.8,0c-0.2,0-0.4,0-0.5,0.3c-0.6,1.9-1.3,3.8-1.9,5.8C28.6,68.9,35.9,68.9,43.4,68.9z
		 M69.7,68.9c3.5,0,7,0,10.6,0c0.3,0,0.6,0.1,0.4-0.5c-0.6-1.7-1.2-3.5-1.8-5.2c-0.1-0.3-0.3-0.4-0.6-0.4c-1.1,0-2.1,0-3.2,0
		c-1.4,0-2.8,0-4.2,0c-0.2,0-0.5-0.1-0.4,0.3c0.1,0.9,0.4,1.2,1.3,1.2c0.5,0,0.9,0,1.4,0c0.8,0.1,1.3,0.8,1.1,1.5
		c-0.2,0.7-0.8,0.9-1.5,0.9c-4,0-8,0-12.1,0c-1.5,0-1.4,0-1.9,1.4c-0.2,0.5-0.2,0.7,0.5,0.7C62.7,68.9,66.2,68.9,69.7,68.9z
		 M55.4,66.8c-2.8,0-5.5,0-8.2,0c-0.7,0-0.7,0.2-0.5,0.7c1,3.1,2,6.1,2.9,9.2c0.4,1.3,0.8,2.6,1.3,3.9c0.1,0,0.1,0,0.2,0
		C52.5,76,54,71.4,55.4,66.8z"/>
	<path class="st0" d="M39.2,12.7c0.4,0,0.3,0.3,0.3,0.5c0,1,0.1,2.1,0.3,3.1c0.7,3.4,2.7,5.2,6.2,5.6c0.8,0.1,1.6,0.1,2.4,0.2
		c0.2,0,0.5-0.1,0.5,0.3c0,0.4-0.3,0.3-0.5,0.3c-1,0-2.1,0.1-3.1,0.3c-3.2,0.7-5.1,2.8-5.6,6.1c-0.1,0.8-0.2,1.6-0.2,2.4
		c0,0.2,0.1,0.6-0.3,0.6c-0.4,0-0.3-0.3-0.3-0.5c-0.1-1-0.1-2-0.3-2.9c-0.8-3.5-3-5.4-6.6-5.8c-0.6-0.1-1.2-0.1-1.7-0.2
		c-0.3,0-0.8,0.2-0.7-0.3c0-0.5,0.5-0.3,0.7-0.3c1,0,2-0.1,3-0.3c3.2-0.7,5-2.6,5.5-5.9c0.1-0.9,0.2-1.9,0.2-2.8
		C38.9,12.9,38.9,12.7,39.2,12.7z"/>
	<path class="st0" d="M35.3,38.8c0,0.4-0.3,0.3-0.5,0.3c-1.2,0-2.3,0.1-3.4,0.5c-1.7,0.5-2.8,1.7-3.2,3.4c-0.3,1-0.3,2.1-0.4,3.2
		c0,0.2,0.1,0.6-0.3,0.6c-0.5,0-0.3-0.3-0.3-0.6c0-0.8-0.1-1.6-0.2-2.4c-0.4-2.6-2-4.1-4.7-4.4c-0.7-0.1-1.4-0.1-2.1-0.2
		c-0.2,0-0.5,0.1-0.6-0.3c0-0.4,0.3-0.3,0.5-0.3c0.8,0,1.6-0.1,2.3-0.2c3-0.6,4.3-2.1,4.6-5.3c0-0.6,0.1-1.2,0.1-1.7
		c0-0.2,0-0.4,0.3-0.4c0.3,0,0.3,0.2,0.3,0.4c0,0.8,0,1.6,0.2,2.4c0.4,2.8,2,4.3,4.8,4.6c0.7,0.1,1.5,0.1,2.2,0.2
		C35.1,38.5,35.3,38.5,35.3,38.8z"/>
	<path class="st0" d="M62,29.1c0,0.3-0.2,0.3-0.4,0.3c-0.5,0-1,0.1-1.5,0.1c-2.3,0.3-3.5,1.5-3.7,3.9c0,0.5-0.1,1-0.1,1.4
		c0,0.2,0,0.4-0.3,0.4c-0.3,0-0.4-0.1-0.4-0.4c0-0.7,0-1.4-0.2-2c-0.4-2-1.4-2.9-3.4-3.2c-0.5-0.1-1.1-0.1-1.7-0.1
		c-0.2,0-0.6,0.1-0.5-0.3c0-0.4,0.3-0.3,0.5-0.3c0.5,0,1-0.1,1.4-0.1c2.4-0.3,3.5-1.5,3.8-3.9c0-0.4,0-0.8,0.1-1.1
		c0-0.2-0.1-0.6,0.3-0.6c0.4,0,0.3,0.3,0.3,0.6c0,0.7,0.1,1.3,0.2,2c0.4,1.8,1.5,2.8,3.3,3.1c0.6,0.1,1.2,0.1,1.8,0.2
		C61.8,28.8,62,28.8,62,29.1z"/>
	<path class="st0" d="M51,46.1c-0.9,0-1.8,0-2.7,0c-0.9,0-1.4-0.5-1.5-1.2c0-0.7,0.6-1.2,1.4-1.2c1.9,0,3.8,0,5.7,0
		c0.9,0,1.4,0.5,1.4,1.2c0,0.8-0.5,1.2-1.4,1.2C52.9,46.1,52,46.1,51,46.1z"/>
</g>
</svg>
