<?xml version="1.0" encoding="utf-8"?>
<!-- Generator: Adobe Illustrator 23.0.3, SVG Export Plug-In . SVG Version: 6.00 Build 0)  -->
<svg version="1.1" id="Layer_1" xmlns="http://www.w3.org/2000/svg" xmlns:xlink="http://www.w3.org/1999/xlink" x="0px" y="0px"
	 viewBox="0 0 100 100" style="enable-background:new 0 0 100 100;" xml:space="preserve">
<style type="text/css">
	.st0{fill:#243A76;}
</style>
<g>
	<path class="st0" d="M49,88.4c-8.3,0-16.5,0-24.8,0c-2.4,0-2.6-0.3-2.7-2.6c-0.1-1.9,0.8-4.3-0.4-5.5c-1.1-1.1-3.5-0.3-5.3-0.3
		c-4.3,0-4.3,0-4.3-4.4c0-3.4,0-6.7,0-10.1c0-1.5,0.6-2.2,2.2-2.1c1.8,0.1,3.7-0.1,5.5,0.1c1.8,0.2,2.4-0.3,2.4-2.3
		c-0.1-15.6-0.1-31.2-0.1-46.9c0-2.6,0.2-2.8,2.8-2.8c15.9,0,31.9,0,47.8,0c2.6,0,2.8,0.2,2.8,2.8c0,15.2,0,30.5,0,45.7
		c0,1.3,0.3,1.8,1.6,2.1c6.7,1.8,11,8,10.1,14.6c-0.9,6.8-6.5,11.6-13.5,11.7C65.1,88.5,57.1,88.4,49,88.4z M64.4,85.2
		c-0.2-0.4-0.3-0.6-0.4-0.7c-7.4-7.6-3.8-20.3,7-22.5c1.2-0.3,0.9-1,0.9-1.6c0-14.7,0-29.3,0-44c0-1.4-0.4-1.7-1.7-1.7
		c-14.5,0-29.1,0.1-43.6,0c-1.6,0-1.8,0.6-1.8,1.9c0,15,0,30,0,45c0,1.5,0.3,1.9,1.9,1.9c7.5-0.1,15,0,22.5,0c2.2,0,2.6,0.4,2.6,2.5
		c0,3.8,0,7.6,0,11.4c0,2.3-0.3,2.6-2.7,2.6c-6.9,0-13.7,0-20.6,0c-3.7,0-3.7,0-3.7,3.7c0,1.1,0.2,1.5,1.5,1.5
		C38.9,85.2,51.5,85.2,64.4,85.2z M73.5,85.2c5.4,0,10.2-4.7,10.1-10.1c-0.1-5.6-4.5-10.1-10-10.1C68,65,63.4,69.5,63.4,75
		C63.3,80.6,67.9,85.2,73.5,85.2z M31.5,76.9c5.1,0,10.3,0,15.4,0c1.2,0,1.5-0.3,1.5-1.5c-0.1-2.5-0.1-5.1,0-7.6
		c0-0.9-0.3-1.2-1.2-1.2c-10.4,0-20.8,0-31.2,0c-0.9,0-1.2,0.3-1.2,1.2c0.1,2.5,0.1,5.1,0,7.6c0,1.2,0.4,1.5,1.5,1.5
		C21.3,76.8,26.4,76.9,31.5,76.9z"/>
	<path class="st0" d="M88.4,36.4c0,4.6,0,9.3,0,13.9c0,3.6-2.3,6.2-3.8,9.1c-0.6,1.1-1.9,0.8-2.5-0.3c-1.6-3.4-3.9-6.5-3.7-10.7
		c0.3-8.9,0.1-17.8,0.1-26.7c0-2.2,1-3.9,3-4.8c1.8-0.8,3.6-0.5,5.2,0.7c1.3,1.1,1.8,2.5,1.8,4.2C88.4,26.8,88.4,31.6,88.4,36.4z
		 M83.6,54.6c0.5-1.7,1.6-2.8,1.6-4.4c0-6.9-0.1-13.7,0-20.6c0-1.6-0.8-1.5-1.8-1.5c-1.1,0-1.7,0.1-1.6,1.5c0.1,6.5,0.1,13,0,19.4
		C81.8,51.1,82.3,52.7,83.6,54.6z M85.2,22.9c0-0.4,0-0.8,0-1.1c-0.1-1.2-0.7-2-1.9-1.9c-1.1,0.1-1.6,0.8-1.6,2c0,0.8,0,1.5,0,2.3
		c0,0.4,0,0.7,0.5,0.9C84.1,25.6,85.2,24.8,85.2,22.9z"/>
	<path class="st0" d="M11.6,35.7c0-2.3,1.8-4.1,4.1-4.1c2.3,0,4.2,1.8,4.1,4.2c0,2.4-1.9,4.2-4.2,4.1C13.3,39.8,11.5,38,11.6,35.7z
		 M15.7,34.9c-0.5,0-0.8,0.3-0.9,0.8c-0.1,0.5,0.3,0.8,0.8,0.9c0.6,0.1,1-0.3,1-0.8C16.5,35.3,16.2,35,15.7,34.9z"/>
	<path class="st0" d="M14.8,26.6c-0.9-0.2-1.6-0.7-1.5-1.8c0.1-1.1,0.7-1.6,1.7-1.5c0.9,0.1,1.5,0.7,1.5,1.6
		C16.4,25.9,15.8,26.4,14.8,26.6z"/>
	<path class="st0" d="M86.9,65.1c-1-0.1-1.6-0.6-1.6-1.7c0-1.1,0.7-1.6,1.7-1.6c0.9,0,1.5,0.5,1.5,1.5
		C88.5,64.4,87.9,64.9,86.9,65.1z"/>
	<path class="st0" d="M80.3,11.6c0.9,0,1.5,0.6,1.5,1.6c0,1-0.7,1.6-1.7,1.6c-1,0-1.5-0.6-1.6-1.5C78.5,12.2,79,11.6,80.3,11.6z"/>
	<path class="st0" d="M19.7,52.8c0.1,1.6-0.6,2.2-1.6,2.2c-0.9,0-1.6-0.5-1.6-1.5c0-1.1,0.6-1.7,1.6-1.7
		C19.1,51.7,19.7,52.3,19.7,52.8z"/>
	<path class="st0" d="M48.3,43.3c5.3,0,10.7,0,16,0c1.2,0,2.4,0.1,2.4,1.7c0,1.5-1.2,1.6-2.3,1.6c-10.7,0-21.3,0-32,0
		c-1.2,0-2.4-0.1-2.4-1.7c0-1.6,1.3-1.6,2.5-1.6C37.7,43.3,43,43.3,48.3,43.3z"/>
	<path class="st0" d="M48.1,51.7c-5.1,0-10.3,0-15.4,0c-1.2,0-2.6,0.1-2.7-1.6c-0.1-1.7,1.3-1.7,2.6-1.7c10.5,0,21.1,0,31.6,0
		c1.2,0,2.4,0,2.5,1.6c0,1.8-1.3,1.7-2.5,1.7C58.8,51.7,53.4,51.7,48.1,51.7z"/>
	<path class="st0" d="M48.3,36.5c-5.3,0-10.7,0-16,0c-1.2,0-2.3-0.1-2.3-1.6c0-1.5,1.1-1.6,2.3-1.6c10.7,0,21.5,0,32.2,0
		c1.2,0,2.2,0.2,2.2,1.7c-0.1,1.4-1.1,1.5-2.2,1.5C59.1,36.5,53.7,36.5,48.3,36.5z"/>
	<path class="st0" d="M48.3,38.3c5.3,0,10.7,0,16,0c1.1,0,2.3,0,2.4,1.5c0.1,1.7-1.2,1.7-2.4,1.7c-10.7,0-21.3,0-32,0
		c-1.2,0-2.3-0.1-2.3-1.6c0-1.5,1.1-1.6,2.3-1.6c0.3,0,0.6,0,1,0C38.2,38.3,43.3,38.3,48.3,38.3z"/>
	<path class="st0" d="M44,31.5c-3.9,0-7.9,0-11.8,0c-1.2,0-2.2-0.3-2.2-1.7c0-1.4,1.1-1.5,2.2-1.5c8,0,16,0,24,0
		c1.1,0,2.1,0.2,2.1,1.6c0,1.3-0.9,1.6-2.1,1.6C52.1,31.5,48,31.5,44,31.5z"/>
	<path class="st0" d="M71.9,72.5c0-1.3,0-2.7,0-4c0-1.1,0.5-1.7,1.6-1.7c1.1,0,1.6,0.6,1.6,1.7c0,2.7,0,5.4,0,8.1
		c0,1.1-0.5,1.7-1.6,1.7c-1,0-1.6-0.6-1.6-1.7C71.9,75.3,71.9,73.9,71.9,72.5z"/>
	<path class="st0" d="M73.5,83.4c-1,0-1.6-0.6-1.6-1.6c0-1,0.6-1.5,1.5-1.5c1.1,0,1.6,0.6,1.6,1.6C75,82.8,74.5,83.4,73.5,83.4z"/>
	<path class="st0" d="M42.5,71.9c0.6-1.1,1.1-2,1.5-2.9c0.3-0.8,0.9-0.5,1.4-0.5c0.9,0,0.6,0.7,0.6,1.1c0,1.5,0,2.9,0,4.4
		c0,0.5,0.3,1.2-0.7,1.2c-1.1,0-0.8-0.7-0.8-1.3c0-0.7,0-1.4,0-2.2c-1.1,0.5-0.8,2.2-1.9,2.2c-1.2,0-0.9-1.6-1.9-2.3
		c0,0.9,0,1.6,0,2.3c0,0.5,0.2,1.2-0.7,1.2c-0.9,0-0.8-0.5-0.8-1.1c0-1.5,0-2.9,0-4.4c0-0.4-0.3-1.1,0.5-1.2c0.6,0,1.1-0.1,1.4,0.6
		C41.4,69.9,41.9,70.7,42.5,71.9z"/>
	<path class="st0" d="M29.2,75c0.7-1.9,1.3-3.7,2-5.4c0.2-0.5,0.2-1.1,1-1.1c0.8,0,1,0.5,1.2,1C34,71,34.5,72.5,35,74
		c0.1,0.3,0.5,0.8,0,1c-0.4,0.2-0.9,0.3-1.3-0.3c-1-1.7-2-1.6-3,0C30.4,75.4,29.8,75.1,29.2,75z M32.6,70.5c-0.8,0.5-0.9,1.3-0.9,2
		c0,0,0.8,0.3,1,0.1C33.5,71.9,32.5,71.3,32.6,70.5z"/>
	<path class="st0" d="M18.8,71.7c0,1.7,1.3,2.6,2.8,1.8c0.6-0.3,1.1-0.5,1.4,0c0.5,0.7-0.3,1-0.7,1.2c-1.5,0.8-2.9,0.7-4.1-0.7
		c-1.1-1.2-1.2-3.2-0.2-4.4c0.9-1.2,2.8-1.6,4.1-1c0.5,0.2,1.2,0.5,1,1.2c-0.3,0.7-0.8,0.6-1.5,0.2C20.1,69.3,18.8,70.1,18.8,71.7z"
		/>
	<path class="st0" d="M24.2,71.8c0-0.8,0-1.6,0-2.5c0-0.5,0-0.9,0.7-0.9c0.7,0,0.9,0.3,0.8,0.9c0,0.9,0.1,1.8,0,2.7
		c-0.2,1.5,0.4,2,1.9,1.8c0.5-0.1,1.4-0.5,1.4,0.7c-0.1,0.9-0.8,0.6-1.3,0.6C24.2,75.2,24.2,75.2,24.2,71.8z"/>
	<path class="st0" d="M36.1,71.7c0-0.8,0-1.6,0-2.5c0-0.5,0.1-0.8,0.7-0.8c0.5,0,0.8,0.1,0.8,0.7c0,1.8,0,3.5,0,5.3
		c0,0.5-0.2,0.7-0.7,0.7c-0.5,0-0.9-0.1-0.8-0.7C36.2,73.5,36.1,72.6,36.1,71.7z"/>
</g>
</svg>
