<?xml version="1.0" encoding="utf-8"?>
<!-- Generator: Adobe Illustrator 23.0.3, SVG Export Plug-In . SVG Version: 6.00 Build 0)  -->
<svg version="1.1" id="Layer_1" xmlns="http://www.w3.org/2000/svg" xmlns:xlink="http://www.w3.org/1999/xlink" x="0px" y="0px"
	 viewBox="0 0 100 100" style="enable-background:new 0 0 100 100;" xml:space="preserve">
<style type="text/css">
	.st0{fill:#243A76;stroke:#243A76;stroke-width:0.75;stroke-miterlimit:10;}
</style>
<g>
	<path class="st0" d="M65.8,37.6c-1.6,0-3.1,0-4.7,0c0-0.8,0-1.4,0-2.1c1-0.1,1.9-0.2,3-0.3c-1-2.5-1.9-5-2.7-7.4
		c-0.2-0.6-0.2-1.5,0.1-1.9c0.3-0.3,1.4-0.3,1.9,0c3.4,2,6.7,2,10.1,0c0.5-0.3,1.5-0.2,1.8,0.1c0.3,0.3,0.3,1.3,0.1,1.9
		c-0.8,2.4-1.7,4.8-2.7,7.3c1.1,0.1,2,0.2,2.9,0.3c0,0.7,0,1.3,0,2.1c-1.5,0-2.9,0-4.4,0c0,0.1,0,0.2-0.1,0.3c0.5,0.1,1,0.3,1.5,0.4
		c7.3,1.8,12.7,8.5,12.8,16.1c0.1,3.9,0,7.8,0.1,11.7c0,0.6,0.3,1.3,0.8,1.7c1.4,1.3,2,2.7,1.5,4.3c-0.5,1.5-1.9,2.4-3.8,2.5
		c-3,0-6,0-9.1,0c-7.3,0-14.6,0-22,0c-3.1,0-5-2.7-3.8-5.2c0.2-0.3,0.3-0.7,0.6-0.8c1.7-0.8,1.4-2.3,1.5-3.7
		c0.1-4.2-0.2-8.4,0.3-12.5c0.8-6.9,6-12.3,12.8-14c0.5-0.1,1-0.3,1.5-0.4C65.8,37.8,65.8,37.7,65.8,37.6z M56,69.6
		c-1.3,0-2.5-0.1-3.6,0.1c-0.4,0.1-1.1,0.7-1.1,1c0.1,0.5,0.6,1,1,1.3c0.3,0.2,0.9,0.1,1.4,0.1c7.1,0,14.3,0,21.4,0
		c2.9,0,5.8,0.1,8.7-0.1c0.6,0,1.1-0.8,1.7-1.3c-0.5-0.4-1.1-1-1.7-1.1c-1-0.2-2-0.1-3-0.1c0-1,0-1.6,0-2.3c0.8-0.1,1.5-0.1,2.2-0.2
		c0-0.4,0.1-0.8,0.1-1.1c-0.1-4.2,0.1-8.5-0.2-12.7c-0.6-7.3-6.6-12.8-14.1-13.2c-6.9-0.4-13.7,4.8-14.7,11.7
		c-0.7,4.4-0.3,8.9-0.4,13.4c0,0.6,0,1.2,0,1.9c0.9,0.1,1.7,0.2,2.4,0.2C56,68.1,56,68.7,56,69.6z M64.3,28.6c0.9,2.4,1.5,4.2,2.3,6
		c0.2,0.4,1.1,0.7,1.7,0.7c0.7,0,1.7-0.2,1.9-0.6c0.8-1.7,1.4-3.6,2.1-5.4C69.6,30.6,67.1,30.5,64.3,28.6z"/>
	<path class="st0" d="M12.2,57.5c0.7,0,1.4,0,2.1,0c0.1,0.8,0.2,1.5,0.3,2.4c3.8,0,7.6,0,11.4,0c2.5,0,5.3-0.6,7.4,0.3
		c2.1,0.9,3.7,3.3,5.4,5c2.7,2.7,5.4,5.4,8.1,8.1c2.2,2.2,2.2,2.2,0.1,4.9c0.8,0,1.4,0,2,0c4.9,0,9.9,0,14.8,0c1.5,0,2.1,0.4,2.1,2
		c-0.1,2-0.1,4,0,5.9c0,1.2-0.4,1.8-1.7,1.8c-8.2,0-16.5,0-24.7-0.1c-0.8,0-1.6-0.5-2.3-1c-3.7-3-7.4-6-11.1-9
		c-0.6-0.5-1.5-0.8-2.3-0.8c-3.1-0.1-6.1,0-9.3,0c-0.1,0.9-0.1,1.6-0.2,2.3c-0.7,0-1.3,0-2.1,0C12.2,72.1,12.2,64.9,12.2,57.5z
		 M45.7,75.6c-4.3-4.3-8.6-8.7-13-12.9c-0.4-0.4-1.3-0.5-1.9-0.5c-4.5,0-8.9,0-13.4,0c-1,0-1.9,0-3,0c0,4.2,0,8.2,0,12.4
		c3.4,0,6.7-0.1,10,0c0.9,0,1.9,0.4,2.6,0.9c3.8,3,7.4,6.1,11.2,9.1c0.7,0.6,1.7,0.9,2.6,0.9c6.9,0.1,13.8,0,20.7,0
		c0.6,0,1.1,0,1.7,0c0-1.8,0-3.3,0-5c-0.4,0-0.8-0.1-1.1-0.1c-5.6,0-11.1,0-16.7,0c-0.7,0-1.3,0.6-2,0.8c-0.6,0.1-1.5,0.3-1.8,0
		c-2.5-2.3-4.9-4.8-7.3-7.3c0.6-0.6,1.1-1.1,1.8-1.8c2.1,2.3,4.1,4.5,6.3,6.8C43.7,77.8,44.6,76.8,45.7,75.6z"/>
	<path class="st0" d="M12.1,31.6c0-10,7.8-18.7,17.3-19.4c11-0.8,19.9,6.1,21.5,16.6c0.7,4.4-0.1,8.4-2.2,12.2
		c-0.5,0.9-0.6,1.6-0.1,2.6c0.8,1.8,1.6,3.6,2.3,5.5c0.2,0.5,0.2,1.4-0.1,1.7c-0.3,0.3-1.1,0.2-1.7,0.2c-0.3,0-0.7-0.2-1-0.4
		c-3.3-1.7-6.7-3.1-10.2-0.4C25.1,54.4,12,45,12.1,31.6z M47.7,47.7c-0.7-1.6-1.1-2.8-1.6-3.9c-0.6-1.2-0.5-2.2,0.2-3.4
		c2.4-3.9,3-8.2,2-12.7c-2-9-11.4-14.9-20.3-12.9C18.7,16.9,12.7,26,14.8,35.1c2.6,11.7,15.5,17.3,25.8,11.1c1.1-0.7,2-0.7,3.1-0.2
		C44.8,46.6,46,47,47.7,47.7z"/>
	<path class="st0" d="M67.3,45.3c0.8,0,1.4,0,2.3,0c-0.5,1.9,0.6,2.6,1.9,3.6c0.9,0.7,1.3,2,2.1,3.2c-1.6,0.5-2.5,0.6-3.3-0.8
		c-0.4-0.7-1.8-1.2-2.6-1C67,50.4,66,51.6,66,52.3c0,0.8,0.9,1.7,1.6,2.4c0.3,0.3,1,0.2,1.5,0.3c2,0.3,3.4,1.5,3.9,3.5
		c0.5,1.9,0.2,3.9-1.5,5c-1.4,0.9-2.3,1.8-1.9,3.6c-0.9,0-1.5,0-2.4,0c0.4-1.8-0.4-2.7-1.8-3.6c-1-0.6-1.4-2.1-2.3-3.3
		c1.7-0.5,2.7-0.5,3.4,1c0.3,0.6,1.8,1.1,2.5,0.9c0.8-0.3,1.7-1.4,1.7-2.2c0-0.8-0.9-1.6-1.5-2.4c-0.2-0.2-0.8-0.2-1.2-0.3
		c-2.5-0.4-4-1.7-4.4-4c-0.4-2.2,0.6-4,2.8-5.2c0.3-0.1,0.5-0.3,0.8-0.4C67.2,46.8,67.2,46.1,67.3,45.3z"/>
	<path class="st0" d="M22.5,42c-0.5-0.4-1-0.9-1.4-1.3c6.6-6.6,13-13,19.7-19.7c0.4,0.4,0.9,1,1.3,1.4C35.5,29.1,29.1,35.5,22.5,42z
		"/>
	<path class="st0" d="M30.3,25.5c0,2.7-2.2,4.8-4.9,4.8c-2.7,0-4.9-2.2-4.9-4.9c0-2.6,2.3-4.9,4.9-4.9
		C28.2,20.6,30.3,22.8,30.3,25.5z M25.4,23c-1.3,0-2.4,1.2-2.4,2.5c0,1.4,1.2,2.5,2.6,2.5c1.3-0.1,2.4-1.2,2.3-2.5
		C27.9,24.1,26.7,23,25.4,23z"/>
	<path class="st0" d="M37.7,42.6c-2.7,0-4.8-2.2-4.8-4.9c0-2.7,2.2-4.8,4.9-4.8c2.7,0,4.8,2.2,4.8,4.9
		C42.5,40.6,40.5,42.6,37.7,42.6z M37.7,35.2c-1.2,0-2.5,1.2-2.5,2.4c-0.1,1.3,1.2,2.6,2.5,2.6c1.3,0,2.4-1.2,2.4-2.5
		C40.2,36.5,39,35.2,37.7,35.2z"/>
</g>
</svg>
