<?xml version="1.0" encoding="utf-8"?>
<!-- Generator: Adobe Illustrator 23.0.3, SVG Export Plug-In . SVG Version: 6.00 Build 0)  -->
<svg version="1.1" id="Layer_1" xmlns="http://www.w3.org/2000/svg" xmlns:xlink="http://www.w3.org/1999/xlink" x="0px" y="0px"
	 viewBox="0 0 100 100" style="enable-background:new 0 0 100 100;" xml:space="preserve">
<style type="text/css">
	.st0{fill:#243A76;}
</style>
<g>
	<path class="st0" d="M28.9,39c1.8,0.8,3.6,1.6,5.5,2.5c-2.3,8.1-1.6,15.8,3.1,22.9c3.5,5.4,8.4,9,14.6,10.7
		c12.6,3.5,25.7-2.7,30.9-14.8c5.2-12,0.6-26.1-10.6-32.9c-10.6-6.5-27-4.9-36,9.5c-1.8-0.8-3.6-1.6-5.3-2.4
		c5.4-11.9,22.3-21.5,39.6-14.9c16.7,6.4,25.1,25.8,18.3,42.5c-6.9,17-26.1,25-42.8,17.6C28.8,72.1,23.4,52.7,28.9,39z"/>
	<path class="st0" d="M47.9,42.2c-1.8-0.8-3.6-1.6-5.3-2.4c3.3-7.8,14.8-11.7,23.7-8.2c9.9,4,14.8,15.2,11.1,25.3
		c-3.7,9.9-14.6,15.1-24.6,11.7c-9.9-3.3-15.5-14.3-12.3-24.4c1.9,0.8,3.7,1.7,5.5,2.5c-1.4,7.1,2.2,14.3,10,16.3
		c6,1.6,12.6-1.7,15.2-7.4c2.7-5.9,0.8-12.9-4.4-16.7C60.7,34.8,54.6,35.8,47.9,42.2z"/>
	<path class="st0" d="M13.3,27.7c0.8,0.3,1.4,0.5,1.9,0.8c14.3,6.5,28.5,12.9,42.8,19.4c0.4,0.2,0.9,0.2,1.1,0.5
		c0.4,0.6,0.6,1.4,0.9,2.1c-0.7,0.3-1.5,0.8-2.2,0.7C57,51,56.1,50.4,55.2,50c-13.8-6.3-27.6-12.5-41.4-18.8
		c-0.5-0.2-1.1-0.5-1.4-0.9c-0.3-0.5-0.4-1.2-0.3-1.7C12.3,28.2,12.9,28,13.3,27.7z"/>
	<path class="st0" d="M52.1,49.6c1.8,0.8,3.4,1.5,5,2.2c1.5,0.7,3,0.8,3.8-1c0.8-1.7-0.1-2.8-1.7-3.5c-1.6-0.7-3.2-1.5-4.8-2.2
		c1.8-2.3,5.1-2.9,7.8-1.4c3,1.6,4.5,5.2,3.4,8.5c-1.1,3.2-4.2,5.1-7.7,4.6C54.6,56.5,52.3,53.7,52.1,49.6z"/>
	<path class="st0" d="M27,32.8c-4.1-1.9-7.9-3.5-11.7-5.3c-0.5-0.2-0.9-1-0.9-1.5c0-1.4,0.2-2.8,0.4-4.5C19,23.4,23,25.1,26.9,27
		c0.3,0.2,0.7,0.7,0.6,1.1C27.5,29.6,27.2,31,27,32.8z"/>
	<path class="st0" d="M8.7,35.6C8.9,35.3,9,35.1,9.1,35c2.9-3.6,2.9-3.6,7.1-1.6c2.8,1.3,5.5,2.5,8.3,3.8c0.1,0.1,0.2,0.2,0.3,0.3
		c-0.1,0.1-0.1,0.3-0.2,0.4c-2.9,3.8-2.9,3.8-7.2,1.8c-2.8-1.3-5.5-2.5-8.3-3.8C9,35.8,8.9,35.8,8.7,35.6z"/>
</g>
</svg>
