<?xml version="1.0" encoding="utf-8"?>
<!-- Generator: Adobe Illustrator 23.0.3, SVG Export Plug-In . SVG Version: 6.00 Build 0)  -->
<svg version="1.1" id="Layer_1" xmlns="http://www.w3.org/2000/svg" xmlns:xlink="http://www.w3.org/1999/xlink" x="0px" y="0px"
	 viewBox="0 0 100 100" style="enable-background:new 0 0 100 100;" xml:space="preserve">
<style type="text/css">
	.st0{fill:#243A76;stroke:#243A76;stroke-width:2;stroke-miterlimit:10;}
</style>
<g>
	<path class="st0" d="M85.2,88.9c-23.5,0-47,0-70.5,0c-1.7-0.6-2.9-1.7-3.5-3.5c0-21.3,0-42.6,0-63.9c0.8-1.3,1.5-2.6,3.1-3
		c0.1,0.1,0.2,0.1,0.3-0.1c0.2,0,0.5,0,0.7,0c0.1,0.3,0.2,0.2,0.4,0c2-0.2,3.9-0.2,5.9,0c0.1,0.3,0.2,0.2,0.3,0
		c0.4-0.6,0.3-1.4,0.2-2C22,13.7,23,12,25.5,11.1c0.6,0,1.2,0,1.7,0c2.5,0.8,3.4,2.7,3.3,5.2c0,0.7,0.1,1.4,0.1,2
		c0.1,0.2,0.2,0.3,0.3,0c5.2-0.2,10.4-0.2,15.5,0c0.1,0.3,0.2,0.3,0.4,0c6.6-0.2,13.1-0.2,19.7,0c0.2,0.4,0.5,0.4,0.7,0
		c1.8,0.2,2.4-0.6,2.2-2.4c-0.3-2.4,1-4,3.3-4.8c0.6,0,1.2,0,1.7,0c2.6,1,3.6,2.8,3.3,5.5c-0.1,0.6-0.1,1.2,0.2,1.7
		c0.1,0.2,0.2,0.3,0.3,0c2.1-0.2,4.1-0.2,6.2,0c0.3,0.5,0.8,0.3,1.3,0.3c1.7,0.4,2.1,1.9,2.9,3.1c0,21.2,0,42.4,0,63.6
		C88.1,87.1,87.1,88.4,85.2,88.9z M71.8,23.9c1.4,2,2.3,2,3.7,0c0.6-0.3,0.4-0.9,0.4-1.4c0-2.1,0-4.1,0-6.2c0-0.5,0.2-1.1-0.4-1.4
		c-1.4-1.9-2.3-1.9-3.7,0c-0.2,0.1-0.3,0.2,0,0.3c0,2.8,0,5.5,0,8.3C71.5,23.7,71.6,23.8,71.8,23.9z M24.5,23.9c1.4,2,2.3,2,3.7,0
		c0.6-0.6,0.5-1.1,0-1.7c0-0.5,0-0.9,0-1.4c0.5-1,0.5-2.1,0-3.1c0-0.8,0-1.6,0-2.4c0.3-0.1,0.2-0.2,0-0.3c-1.4-1.9-2.3-1.9-3.7,0
		c-0.9,2.5-0.2,5.1-0.4,7.6C24.1,23,23.9,23.6,24.5,23.9z M14.1,34c-0.5,0.4-0.3,1-0.3,1.4c0,16.2,0,32.4,0,48.5
		c0,1.9,0.5,2.5,2.4,2.5c4.7,0,9.3,0,14,0c17.8,0,35.6,0,53.4,0c2,0,2.7-0.5,2.7-2.2c0-8.8,0-17.6,0-26.4c0-0.3,0-0.7,0-1
		c0-7.3,0-14.6,0-21.9c0-0.3,0-0.7-0.3-0.9c-0.5-0.6-1.2-0.4-1.8-0.4c-22.8,0-45.6,0-68.4,0C15.2,33.6,14.5,33.3,14.1,34z
		 M49.9,31.6c11.6,0,23.3,0,34.9,0c1.2,0,1.6-0.3,1.5-1.5c-0.1-1.4,0-2.8,0-4.1c0.1-5.4,0.3-5.5-5.3-5.4c-3,0-3,0-3.2,3
		c-0.2,3.3-3.4,5.1-6.1,3.5c-1.7-0.9-2.1-2.4-2.2-4.2c0-2.3,0-2.3-2.4-2.3c-11.2,0-22.5,0-33.7,0c-2.7,0-2.7,0-2.9,2.7
		c0,0.5-0.1,0.9-0.2,1.4c-0.5,1.9-2.3,3.1-4.3,3c-2-0.2-3.5-1.7-3.7-3.7c-0.1-0.8-0.1-1.6,0-2.4c0-0.8-0.3-1-1-1c-1.8,0-3.6,0-5.4,0
		c-1.5,0.1-2.1,0.9-2.1,2.4c0,2.4,0.1,4.7,0,7.1c-0.1,1.3,0.4,1.6,1.6,1.6C26.8,31.6,38.4,31.6,49.9,31.6z"/>
	<path class="st0" d="M85.9,34c-0.4,0-0.8,0.1-1.2,0.1c-23.2,0-46.3,0-69.5,0c-0.4,0-0.8,0-1.2-0.1c0.5-0.6,1.2-0.4,1.8-0.4
		c22.8,0,45.6,0,68.4,0C84.8,33.6,85.5,33.3,85.9,34z"/>
	<path class="st0" d="M24.5,14.9c0,3,0,6,0,9c-0.6-0.3-0.4-0.9-0.4-1.4C24.3,20,23.6,17.4,24.5,14.9z"/>
	<path class="st0" d="M75.5,23.9c0-3,0-6,0-9c0.6,0.3,0.4,0.9,0.4,1.4c0,2.1,0,4.1,0,6.2C75.9,23,76.1,23.6,75.5,23.9z"/>
	<path class="st0" d="M28.2,20.8c0-1,0-2.1,0-3.1C28.8,18.7,28.8,19.8,28.2,20.8z"/>
	<path class="st0" d="M28.2,23.9c0-0.6,0-1.1,0-1.7C28.7,22.8,28.8,23.3,28.2,23.9z"/>
	<path class="st0" d="M84.6,18.4c0.5,0,0.9-0.1,1.3,0.3C85.4,18.7,84.9,18.9,84.6,18.4z"/>
	<path class="st0" d="M66.6,18.4c0.2,0,0.5,0,0.7,0C67,18.7,66.8,18.7,66.6,18.4z"/>
	<path class="st0" d="M28.2,15.3c0-0.1,0-0.2,0-0.3C28.4,15,28.5,15.1,28.2,15.3z"/>
	<path class="st0" d="M71.8,14.9c0,0.1,0,0.2,0,0.3C71.5,15.1,71.6,15,71.8,14.9z"/>
	<path class="st0" d="M14.4,18.5c0.1-0.1,0.2-0.1,0.3-0.1C14.7,18.6,14.6,18.6,14.4,18.5z"/>
	<path class="st0" d="M15.4,18.4c0.1,0,0.2,0,0.4,0C15.7,18.6,15.6,18.7,15.4,18.4z"/>
	<path class="st0" d="M71.8,23.6c0,0.1,0,0.2,0,0.3C71.6,23.8,71.5,23.7,71.8,23.6z"/>
	<path class="st0" d="M78,18.3c0.1,0,0.2,0,0.3,0C78.2,18.6,78.1,18.5,78,18.3z"/>
	<path class="st0" d="M46.5,18.4c0.1,0,0.2,0,0.4,0C46.8,18.6,46.7,18.6,46.5,18.4z"/>
	<path class="st0" d="M30.7,18.3c0.1,0,0.2,0,0.3,0C30.9,18.6,30.8,18.5,30.7,18.3z"/>
	<path class="st0" d="M21.7,18.4c0.1,0,0.2,0,0.3,0C21.9,18.5,21.8,18.6,21.7,18.4z"/>
	<path class="st0" d="M31.9,60.3c0-10.7,8.1-17.4,15.2-17.9c12.4-0.7,20.9,6.8,20.9,17.7c0,10-7.8,18.3-18.1,18.3
		C39.8,78.4,31.8,70.1,31.9,60.3z M48.3,76.1c0.2,0.4,0.5,0.4,0.7,0c0.7,0,1.4,0,2.1,0c0.3,0.4,0.5,0.3,0.7,0
		c0.8-0.3,1.7-0.3,2.6-0.6c6.1-2,10-6.1,11.1-12.4c1.1-6.3-1-11.6-6.1-15.4c-6.8-5.2-18.1-4.5-23.6,6c-2,3.9-2.3,8.4-0.3,12.7
		c1.3,2.8,3,5.4,5.7,7.1C43.2,74.7,45.7,75.6,48.3,76.1z"/>
	<path class="st0" d="M48.3,76.1c0.2,0,0.5,0,0.7,0C48.7,76.5,48.5,76.4,48.3,76.1z"/>
	<path class="st0" d="M51,76.1c0.2,0,0.5,0,0.7,0C51.5,76.4,51.3,76.5,51,76.1z"/>
	<path class="st0" d="M55.3,55.8c0,0.8-0.2,1.5-1,1.7c-1.1,0.2-1.2-0.6-1.4-1.5c-0.3-1.7-1.3-2.7-2.8-2.6c-1.6,0.1-2.5,1-2.9,2.5
		c-0.2,1.1-0.1,1.9,1.2,2.4c2,0.7,3.7,1.8,5.3,3.2c2.3,2,1.4,6.3-1.1,7.3c-1,0.4-1.7,0.7-1.6,2c0,0.5-0.2,1.2-1.1,1.2
		c-0.9,0-1.2-0.6-1.2-1.3c0.1-0.8-0.3-1.1-1-1.3c-2.1-0.7-3-2.3-3.2-4.4c-0.1-0.9,0-1.7,1.1-1.8c0.9-0.1,1.2,0.6,1.3,1.5
		c0.3,2.4,1.9,3.3,4,2.3c2-0.8,2.3-2.6,0.8-4.1c-0.8-0.8-1.8-1.2-2.8-1.6c-2.1-0.8-4.1-1.8-4.3-4.4c-0.2-2.7,1-4.6,3.7-5.5
		c0.6-0.2,0.4-0.6,0.4-0.9c0-0.9,0.2-1.7,1.2-1.8c0.8,0,1.2,0.7,1.2,1.6c0,0.9,0.3,1.1,1.2,1.3C53.5,51.7,55.4,53.9,55.3,55.8z"/>
</g>
</svg>
