<?xml version="1.0" encoding="utf-8"?>
<!-- Generator: Adobe Illustrator 23.0.3, SVG Export Plug-In . SVG Version: 6.00 Build 0)  -->
<svg version="1.1" id="Layer_1" xmlns="http://www.w3.org/2000/svg" xmlns:xlink="http://www.w3.org/1999/xlink" x="0px" y="0px"
	 viewBox="0 0 100 100" style="enable-background:new 0 0 100 100;" xml:space="preserve">
<style type="text/css">
	.st0{fill:#A7ACB6;}
</style>
<g>
	<path class="st0" d="M58.51,28.45c-0.39,0-0.69,0-0.99,0c-12.16,0-24.32,0-36.48,0c-1.98,0-3.27-1.32-3.07-3.13
		c0.13-1.17,1.03-2.14,2.19-2.36c0.31-0.06,0.64-0.07,0.96-0.07c13.24,0,26.48,0,39.73,0c2.14,0,3.21,1.09,3.21,3.24
		c0,0.52,0,1.05,0,1.65c0.32,0,0.57,0,0.81,0c2.97,0,5.93,0.02,8.9-0.01c1.4-0.01,2.34,0.57,2.96,1.82
		c2.16,4.34,4.33,8.67,6.54,12.99c0.45,0.87,1,1.7,1.59,2.48c1.09,1.48,2.24,2.92,3.38,4.36c0.48,0.6,0.72,1.26,0.71,2.03
		c-0.01,5.17,0,10.35-0.01,15.52c0,1.8-1.13,2.91-2.94,2.92c-2.02,0.01-4.05,0.01-6.07-0.01c-0.41,0-0.59,0.13-0.73,0.52
		c-1.52,4.11-5.24,6.73-9.5,6.72c-4.26,0-7.96-2.62-9.49-6.74c-0.15-0.4-0.34-0.51-0.74-0.51c-4.28,0.01-8.55,0.01-12.83,0
		c-0.38,0-0.55,0.1-0.69,0.48c-1.55,4.15-5.2,6.74-9.47,6.76c-4.27,0.02-7.91-2.55-9.54-6.76c-0.14-0.36-0.31-0.48-0.69-0.48
		c-1.79,0.02-3.59,0.01-5.38,0.01c-1.7-0.01-2.91-1.14-2.93-2.73c-0.02-1.61,1.21-2.8,2.93-2.81c1.77-0.01,3.54-0.01,5.31,0
		c0.36,0,0.56-0.05,0.71-0.45c1.59-4.34,5.26-6.98,9.61-6.94c4.72,0.04,8.39,3.16,9.58,7.09c0.03,0.09,0.07,0.17,0.13,0.3
		c0.19,0,0.4,0,0.6,0c4.18,0,8.37-0.01,12.55,0.01c0.46,0,0.68-0.12,0.83-0.57c1.42-4.12,5.18-6.81,9.48-6.82
		c4.34-0.01,8.12,2.68,9.57,6.81c0.06,0.17,0.13,0.34,0.2,0.54c1.28,0,2.56,0,3.93,0c0.01-0.23,0.03-0.45,0.03-0.66
		c0-3.61,0.01-7.22-0.01-10.83c0-0.34-0.13-0.72-0.33-0.99c-0.86-1.17-1.78-2.29-2.64-3.45c-0.26-0.35-0.54-0.48-0.97-0.48
		c-5.91,0.02-11.82,0.01-17.72,0.01c-2.15,0-3.2-1.05-3.2-3.22c0-5.1,0-10.21,0-15.31C58.51,29.11,58.51,28.83,58.51,28.45z
		 M64.09,42.32c4.28,0,8.5,0,12.78,0c-0.06-0.16-0.09-0.27-0.14-0.36c-1.38-2.75-2.75-5.51-4.17-8.24c-0.11-0.21-0.49-0.39-0.74-0.4
		c-1.88-0.03-3.77-0.02-5.65-0.02c-0.68,0-1.36,0-2.08,0C64.09,36.34,64.09,39.3,64.09,42.32z M36.46,62.52
		c-2.49,0-4.52,2.01-4.53,4.49c-0.01,2.49,2,4.53,4.48,4.54c2.53,0.01,4.58-2.03,4.57-4.53C40.97,64.54,38.95,62.53,36.46,62.52z
		 M69.72,71.55c2.48,0.01,4.53-2.02,4.53-4.5c0.01-2.48-2.02-4.52-4.49-4.53c-2.53-0.01-4.57,2.02-4.57,4.53
		C65.2,69.53,67.22,71.55,69.72,71.55z"/>
	<path class="st0" d="M28.14,32.88c3.4,0,6.8,0,10.2,0c1.79,0,3.01,1.14,3,2.79c-0.01,1.61-1.23,2.75-2.97,2.75
		c-6.84,0-13.69,0.01-20.53-0.01c-1.48,0-2.59-1.01-2.78-2.45c-0.18-1.33,0.68-2.63,2.01-2.98c0.33-0.09,0.68-0.1,1.02-0.1
		C21.43,32.88,24.78,32.88,28.14,32.88z"/>
	<path class="st0" d="M24.22,47.98c-3.45,0-6.9,0.01-10.35,0c-1.27-0.01-2.26-0.71-2.66-1.82c-0.38-1.06-0.12-2.34,0.8-2.99
		c0.53-0.38,1.25-0.69,1.88-0.7c6.87-0.05,13.75-0.04,20.62-0.03c1.63,0,2.83,1.19,2.84,2.75c0.01,1.6-1.18,2.78-2.86,2.79
		C31.07,47.99,27.64,47.98,24.22,47.98z"/>
	<path class="st0" d="M23.43,52.02c1.77,0,3.54,0,5.31,0c1.79,0.01,3.04,1.15,3.04,2.76c0,1.62-1.26,2.78-3.03,2.78
		c-3.63,0-7.26,0.01-10.89,0c-1.43,0-2.53-0.93-2.78-2.29c-0.24-1.3,0.46-2.59,1.7-3.05c0.4-0.15,0.85-0.19,1.28-0.2
		C19.84,52.01,21.63,52.02,23.43,52.02z"/>
</g>
</svg>
