<?xml version="1.0" encoding="utf-8"?>
<!-- Generator: Adobe Illustrator 23.0.3, SVG Export Plug-In . SVG Version: 6.00 Build 0)  -->
<svg version="1.1" id="Layer_1" xmlns="http://www.w3.org/2000/svg" xmlns:xlink="http://www.w3.org/1999/xlink" x="0px" y="0px"
	 viewBox="0 0 100 100" style="enable-background:new 0 0 100 100;" xml:space="preserve">
<style type="text/css">
	.st0{fill:#A7ACB6;stroke:#A7ACB6;stroke-width:1.5;stroke-linecap:round;stroke-linejoin:round;stroke-miterlimit:10;}
</style>
<g>
	<path class="st0" d="M70.9,14.1c1.9,0.8,2.9,2.1,2.6,4.5c1.7,0,3.2,0,4.8,0c3.6,0,5.4,1.8,5.4,5.3c0,15.2,0,30.3,0,45.5
		c0,3.5-1.7,5.3-5.3,5.3c-2.9,0-5.7,0-8.6,0c-0.8,0-1.7,0-1.7-1.1c0-1.1,0.9-1.1,1.7-1.1c3,0,6,0,8.9,0c1.8,0,2.7-0.8,2.7-2.6
		c0-12.4,0-24.9,0-37.3c0-0.1,0-0.2-0.1-0.4c-20.8,0-41.7,0-62.7,0c0,0.5-0.1,1-0.1,1.5c0,11.9,0,23.7,0,35.6c0,2.6,0.7,3.3,3.3,3.3
		c2.1,0,4.2-0.1,6.2,0.1c0.6,0,1.1,0.7,1.6,1c-0.5,0.4-1.1,1-1.6,1.1c-2.4,0.1-4.8,0.1-7.2,0c-2.7-0.1-4.6-1.9-4.6-4.7
		c0-15.6,0-31.2,0-46.8c0-2.7,1.9-4.6,4.6-4.7c1.8-0.1,3.5,0,5.3-0.1c0,0,0.1-0.1,0.3-0.2c-0.2-2,0.6-3.5,2.6-4.2c0.5,0,1.1,0,1.6,0
		c1.8,0.9,2.7,2.3,2.5,4.4c11.3,0,22.4,0,33.7,0c-0.2-2.1,0.6-3.5,2.5-4.4C69.8,14.1,70.4,14.1,70.9,14.1z M81.4,29.8
		c0-2.4,0.1-4.7-0.1-7c-0.1-0.7-1.1-1.8-1.8-1.9c-2-0.3-4-0.1-6-0.1c-0.4,4.3-1.1,5.5-3.3,5.5c-2.3,0.1-3-1.1-3.6-5.5
		c-11.1,0-22.3,0-33.4,0c-0.6,4.3-1.2,5.5-3.3,5.5c-3.7,0-3.5-2.9-3.5-5.5c-2,0-3.9-0.2-5.7,0.1c-0.8,0.1-1.9,1-2,1.6
		c-0.2,2.4-0.1,4.8-0.1,7.3C39.6,29.8,60.4,29.8,81.4,29.8z M31,20.2C31,20.2,31,20.2,31,20.2c0-0.9,0.1-1.8-0.1-2.7
		c-0.1-0.5-0.8-0.8-1.2-1.2c-0.4,0.4-1,0.8-1,1.2c-0.1,1.8-0.1,3.6,0,5.4c0,0.5,0.7,0.9,1.1,1.3c0.4-0.4,1-0.8,1.1-1.3
		C31.1,22.1,31,21.1,31,20.2z M71.3,20.3C71.3,20.3,71.3,20.3,71.3,20.3c0-0.9,0.1-1.8,0-2.7c-0.1-0.5-0.7-0.8-1.1-1.2
		c-0.4,0.4-1,0.7-1.1,1.1c-0.1,1.8-0.1,3.7,0,5.5c0,0.4,0.7,0.8,1.1,1.2c0.4-0.4,1-0.8,1.1-1.3C71.5,22.1,71.3,21.2,71.3,20.3z"/>
	<path class="st0" d="M36.1,85.9c-0.2-0.7-0.5-1.3-0.5-2c0.1-1.1,0.4-2.3,0.6-3.6c-0.6,0-1-0.1-1.5-0.1c-2.2-0.1-3.8-1.7-3.8-3.9
		c0-2.2,1.6-3.8,3.8-3.8c4,0,8.1,0,12.1,0c0.6,0,1.1,0,1.8,0c0.8-4.3,1.5-8.5,2.3-12.8c-2.1-0.4-4.2-0.8-6.3-1.2
		c-2.5-0.4-5-0.9-7.5-1.3c-1.4-0.2-1.7-0.9-1.4-2.1c1.4-5.2,4.8-8.5,9.8-10c2.5-0.8,5.2-0.9,7.8-1.3c0.5-0.4,1.1-1,1.8-1.5
		c0.4,0.7,0.7,1.4,1.2,2.2c2,1.1,4.5,2.1,6.6,3.7c4.1,3.1,6.3,7.3,6,12.5c-0.1,1.8-0.5,2.1-2.3,1.8c-4.4-0.8-8.9-1.5-13.5-2.3
		c-0.7,4.1-1.4,8.2-2.2,12.3c2.2,0.2,4.2,0.5,5.8-1.5c1.7-2.1,3.8-4,5.8-5.9c1.7-1.7,3.7-1.9,5.2-0.5c1.5,1.4,1.6,3.5-0.1,5.4
		c-2.6,3-5.2,5.9-7.9,8.8c-0.6,0.7-1,1.3-0.7,2.2c0.3,1.1,0.6,2.2,0.6,3.3c0,0.6-0.3,1.2-0.5,1.8c-0.3,0-0.6,0-1,0
		c-0.4-1.5-1-3-1.3-4.5c-0.2-0.9-0.6-1.2-1.5-1.2c-1.5,0.1-3,0.1-4.4,0c-1.2-0.1-1.7,0.3-1.9,1.6c-0.2,1.4-0.8,2.8-1.2,4.1
		c-0.3,0-0.6,0-1,0c0-1.8,0-3.7,0-5.7c-2.7,0-5.4,0-8,0c-0.3,0-0.8,0.6-0.9,1c-0.5,1.5-0.9,3.1-1.3,4.7
		C36.8,85.9,36.4,85.9,36.1,85.9z M45.9,78.1c3.4,0,6.8,0,10.2,0c0.7,0,1.6-0.4,2-0.9c2.7-2.9,5.3-5.8,7.9-8.7
		c0.6-0.7,1.2-1.5,0.3-2.4c-0.9-0.9-1.6-0.1-2.3,0.5c-2.4,2.4-4.7,4.8-7.1,7.1c-0.6,0.5-1.5,1-2.3,1c-5.1,0.1-10.2,0-15.3,0
		c-1.5,0-3-0.1-4.4,0.1c-0.6,0.1-1.5,0.9-1.7,1.5c-0.3,1,0.5,1.6,1.5,1.8c0.4,0.1,0.8,0,1.3,0C39.4,78.1,42.7,78.1,45.9,78.1z
		 M47,56.7c3.8,0.7,7.4,1.3,11.1,1.9c0.2-3.5,0.4-6.6-1-9.6c-1.4-2.9-3.5-3.2-5.8-1C48.9,50.4,47.8,53.3,47,56.7z M59.7,48.5
		c0.3,3.5,0.6,7,1,10.6c1.9,0.3,3.9,0.7,6,1C67.4,55.8,64.3,50.8,59.7,48.5z M48.9,46.6c-5.4,0.8-10.3,4.8-10.4,8.6
		c2.1,0.4,4.1,0.7,5.9,1C45.9,52.8,47.4,49.7,48.9,46.6z"/>
</g>
</svg>
