<?xml version="1.0" encoding="utf-8"?>
<!-- Generator: Adobe Illustrator 23.0.3, SVG Export Plug-In . SVG Version: 6.00 Build 0)  -->
<svg version="1.1" id="Layer_1" xmlns="http://www.w3.org/2000/svg" xmlns:xlink="http://www.w3.org/1999/xlink" x="0px" y="0px"
	 viewBox="0 0 100 100" style="enable-background:new 0 0 100 100;" xml:space="preserve">
<style type="text/css">
	.st0{fill:#A7ACB6;stroke:#000000;stroke-miterlimit:10;}
</style>
<g>
	<path class="st0" d="M9.7,39.1c1.9-4.6,3.7-5.7,8.7-5.7c4.8,0,9.7,0,14.5,0c1.2,0,2.3,0.1,2.3,1.6s-1.2,1.5-2.3,1.5
		c-5,0-10,0-15.1,0c-0.7,0-1.5,0.1-2.6,0.2c0.5,0.6,0.8,1,1.2,1.4c8.7,8.7,17.3,17.3,26,26c2.2,2.2,3.4,2.2,5.6,0
		c5.9-5.9,11.8-11.8,17.9-17.8c-3-2.4-5-5.3-6-8.9c-0.1-0.4-1-0.7-1.5-0.7c-3-0.1-6.1,0-9.1,0c-0.4,0-0.9,0.1-1.2,0
		c-0.6-0.4-1.1-1-1.6-1.6c0.6-0.5,1.1-1.4,1.7-1.4c3.1-0.1,6.2-0.1,9.3-0.1c0.6,0,1.3,0,1.5-0.3c1.1-2.7,1.8-5.6,3.3-8
		c3.4-5.4,9.6-7.7,15.9-6.5c6,1.2,10.7,6,11.9,12.2c0.1,0.3,0.2,0.5,0.3,0.8c0,1.3,0,2.6,0,3.9c-0.1,0.3-0.2,0.5-0.3,0.8
		c-0.9,4.8-3.5,8.4-7.8,10.8c-1.1,0.6-1.5,1.3-1.5,2.5c0.1,8.2,0,16.4,0,24.5c0,4.9-2.8,7.7-7.7,7.7c-18.3,0-36.5,0-54.8,0
		c-5.1,0-6.8-1.1-8.7-5.8C9.7,63.7,9.7,51.4,9.7,39.1z M56.3,60c-2,2-4.1,4.2-6.3,6.4c-3.1,3.1-6.5,3.1-9.5,0
		c-2.2-2.2-4.3-4.4-6.2-6.3C28,66.4,21.9,72.4,15.7,78.5c19.7,0,39.4,0,59.2,0C68.7,72.4,62.6,66.3,56.3,60z M74.8,45.9
		c6.8,0,12.3-5.4,12.3-12.2s-5.5-12.3-12.2-12.4s-12.3,5.5-12.3,12.3C62.6,40.4,68,45.9,74.8,45.9z M13,39.4c0,12.2,0,24.3,0,36.3
		c6.1-6.1,12.2-12.2,18.1-18.1C25.2,51.7,19.2,45.6,13,39.4z M77.6,76c0-9.2,0-18.2,0-26.7c-2.8-0.5-5.6-1-8.3-1.4
		c-0.4-0.1-0.9,0.1-1.2,0.3c-3.1,3-6.2,6.1-9.1,9.1C65.2,63.6,71.3,69.7,77.6,76z"/>
	<path class="st0" d="M40.8,37.1c-0.7-1-1.5-1.7-1.4-2.1c0.1-0.6,0.9-1.1,1.4-1.6c0.5,0.5,1.4,1,1.4,1.5
		C42.3,35.4,41.5,36,40.8,37.1z"/>
	<path class="st0" d="M74.2,29.5c-0.6-0.1-1.2,0-1.5-0.2c-0.5-0.4-1.2-1.1-1.1-1.6c0-0.5,0.7-1.3,1.3-1.4c1-0.2,2.1-0.2,3,0
		c0.6,0.2,1.3,1,1.3,1.6c0.1,4.1,0.1,8.2,0,12.3c0,0.6-0.9,1.1-1.4,1.7c-0.5-0.6-1.4-1.2-1.4-1.8C74.1,36.6,74.2,33.1,74.2,29.5z"/>
</g>
</svg>
