<?xml version="1.0" encoding="utf-8"?>
<!-- Generator: Adobe Illustrator 23.0.3, SVG Export Plug-In . SVG Version: 6.00 Build 0)  -->
<svg version="1.1" id="Layer_1" xmlns="http://www.w3.org/2000/svg" xmlns:xlink="http://www.w3.org/1999/xlink" x="0px" y="0px"
	 viewBox="0 0 100 100" style="enable-background:new 0 0 100 100;" xml:space="preserve">
<style type="text/css">
	.st0{fill:#243A76;stroke:#243A76;stroke-linecap:round;stroke-linejoin:round;stroke-miterlimit:10;}
</style>
<g>
	<path class="st0" d="M36.9,28c0-1.8,0-3.6,0-5.3c0-3.5,2.4-5.9,5.9-5.9c4.3,0,8.7,0,13,0c3.4,0,5.8,2.4,5.8,5.9c0,1.6,0,3.2,0,4.7
		c0,0.2,0,0.4,0,0.7c0.3,0,0.5,0,0.7,0c4.5,0,9,0,13.6,0c3.6,0,6,2.4,6,6c0,8.1,0,16.3,0,24.4c0,0.4,0.1,0.7,0.3,1.1
		c5.4,10.1-0.7,22.6-12,24.6c-5.9,1-10.9-0.7-15.1-4.9c-0.3-0.3-0.6-0.4-1-0.4c-10.6,0-21.1,0-31.7,0c-3,0-5.3-1.9-5.8-4.8
		c-0.1-0.3-0.1-0.7-0.1-1.1c0-13,0-25.9,0-38.9c0-3.5,2.4-5.9,5.9-5.9c4.5,0,9.1,0,13.6,0C36.4,28,36.6,28,36.9,28z M56,51.7
		c1.6,0,3.1,0,4.6,0c0.4,0,0.8-0.1,1.2-0.2c3.1-1,6.3-1.2,9.5-0.4c0.7,0.2,1.4,0.5,2.1,0.6c3.4,0.3,6.2-2.3,6.2-5.7
		c0-4,0-8.1,0-12.1c0-2.1-1.4-3.5-3.5-3.5c-17.9,0-35.8,0-53.7,0c-2.1,0-3.5,1.4-3.5,3.5c0,4,0,8,0,12c0,3.3,2.5,5.8,5.8,5.8
		c5.7,0,11.4,0,17.2,0c0.2,0,0.4,0,0.7,0c0-1.1,0-2.1,0-3.1s0.4-1.4,1.4-1.4c3.6,0,7.2,0,10.8,0c1,0,1.4,0.4,1.4,1.4
		C56,49.6,56,50.6,56,51.7z M52.9,76.5c-4.4-8.6-3-16,4.1-22.5c-8.2,0-16.3,0-24.5,0c0,0.2,0,0.4,0,0.6c0,1.2,0,2.4,0,3.7
		c0,0.9-0.4,1.4-1.3,1.4c-1.7,0-3.5,0-5.2,0c-0.9,0-1.3-0.4-1.3-1.4c0-1.2,0-2.4,0-3.7c0-0.2,0-0.4,0-0.6c-2.2-0.1-4-0.8-5.6-2.3
		c0,0.3,0,0.5,0,0.7c0,6.9,0,13.7,0,20.6c0,2.2,1.4,3.6,3.6,3.6c9.9,0,19.9,0,29.8,0C52.5,76.5,52.7,76.5,52.9,76.5z M68.4,82
		c3.8-0.3,6.9-1.8,9.5-4.5c2.3-2.5,3.7-5.4,4-8.9c-0.8,0-1.5,0-2.1,0c0-0.8,0-1.5,0-2.3c0.7,0,1.4,0,2.1,0
		C81.5,59.2,75,53.1,68.4,53c0,0.7,0,1.4,0,2.1c-0.8,0-1.5,0-2.3,0c0-0.7,0-1.4,0-2.1c-3.8,0.3-6.9,1.9-9.5,4.6
		c-2.3,2.5-3.6,5.4-3.9,8.9c0.8,0,1.5,0,2.1,0c0,0.8,0,1.5,0,2.3c-0.7,0-1.4,0-2.1,0C53,75.6,59.1,82,66.1,82.1c0-0.7,0-1.4,0-2.1
		c0.8,0,1.5,0,2.3,0C68.4,80.6,68.4,81.3,68.4,82z M59.4,28c0-0.2,0-0.4,0-0.6c0-1.6,0-3.2,0-4.8c0-2.1-1.4-3.5-3.5-3.5
		c-4.4,0-8.8,0-13.2,0c-2.1,0-3.5,1.4-3.5,3.5c0,1.6,0,3.3,0,4.9c0,0.2,0,0.4,0,0.5c0.8,0,1.5,0,2.2,0c0-1.8,0-3.6,0-5.4
		c0-0.9,0.4-1.3,1.3-1.3c4.4,0,8.8,0,13.2,0c0.9,0,1.3,0.4,1.3,1.3c0,1.6,0,3.2,0,4.8c0,0.2,0,0.4,0,0.6C57.9,28,58.6,28,59.4,28z
		 M43.7,28c3.8,0,7.5,0,11.2,0c0-1.5,0-3,0-4.4c-3.7,0-7.4,0-11.2,0C43.7,25.1,43.7,26.5,43.7,28z M53.7,49.5c-3,0-6,0-8.9,0
		c0,0.7,0,1.5,0,2.2c3,0,5.9,0,8.9,0C53.7,50.9,53.7,50.2,53.7,49.5z M26.8,57.3c1.1,0,2.2,0,3.3,0c0-1.1,0-2.2,0-3.3
		c-1.1,0-2.2,0-3.3,0C26.8,55.1,26.8,56.2,26.8,57.3z M79.6,55.8c0-1.4,0-2.7,0-4c-0.9,0.6-1.8,1.1-2.7,1.7
		C77.8,54.3,78.7,55,79.6,55.8z"/>
	<path class="st0" d="M72.9,46.1c0,0.7,0,1.4,0,2.2c-0.7,0-1.5,0-2.2,0c0-0.7,0-1.4,0-2.2C71.4,46.1,72.1,46.1,72.9,46.1z"/>
	<path class="st0" d="M66.2,46.1c0.7,0,1.4,0,2.2,0c0,0.7,0,1.4,0,2.2c-0.7,0-1.4,0-2.2,0C66.2,47.6,66.2,46.9,66.2,46.1z"/>
	<path class="st0" d="M61.7,46.1c0.7,0,1.4,0,2.2,0c0,0.7,0,1.5,0,2.2c-0.7,0-1.4,0-2.2,0C61.7,47.6,61.7,46.9,61.7,46.1z"/>
	<path class="st0" d="M66.1,57.3c0.8,0,1.5,0,2.3,0c0,0.2,0,0.4,0,0.7c0,2.8,0,5.6,0,8.4c0,0.4,0.1,0.7,0.4,1
		c1.9,1.8,3.7,3.7,5.6,5.6c0.3,0.3,0.4,0.6,0,0.9s-0.8,1-1.2,1c-0.4,0-0.8-0.6-1.1-1c-1.8-1.8-3.6-3.6-5.4-5.4
		c-0.4-0.4-0.6-0.8-0.6-1.3C66.1,63.9,66.1,60.7,66.1,57.3z"/>
</g>
</svg>
