<?xml version="1.0" encoding="utf-8"?>
<!-- Generator: Adobe Illustrator 23.0.3, SVG Export Plug-In . SVG Version: 6.00 Build 0)  -->
<svg version="1.1" id="Layer_1" xmlns="http://www.w3.org/2000/svg" xmlns:xlink="http://www.w3.org/1999/xlink" x="0px" y="0px"
	 viewBox="0 0 100 100" style="enable-background:new 0 0 100 100;" xml:space="preserve">
<style type="text/css">
	.st0{fill:#A7ACB6;}
</style>
<g>
	<path class="st0" d="M38.2,16.7c-1-0.7-1.6-1.1-2.7-0.4c-2.3,1.3-4.9,0.2-5.8-2.1c-0.9-2.3,0.3-4.7,2.8-5.4
		c2.3-0.7,4.5,0.7,5.2,3.2c0.1,0.5-0.1,1.2,0.6,1.6c1.1,0.6,2,1.4,3-0.4c2.3-3.8,6.2-4.9,10.4-4.5c3.9,0.4,6.9,2.5,8.4,6.2
		c0.5,1.1,1,1.6,2.1,2c3,1,5.4,2.9,7.5,5.2c0.5,0.5,1,1,0,1.5c-0.6,0.3-1,1.6-2,0.4c-3.7-4.4-8.6-5.9-14.2-5.7
		c-3.9,0.1-7.8-0.4-11.6,0.4c-7.5,1.6-11.4,6.8-13,14.1C27.5,38.4,28,44,30,49.5c1.3,3.6,4.6,5.9,8.6,6.1c1.4,0.1,1.5-0.5,1.1-1.6
		c-1.8-4.6-2.1-9.4-1.9-14.2c0.1-2.5,1.1-3.6,3.6-3.6c5.9,0,11.8,0,17.7,0c2.5,0,3.4,1.1,3.5,3.6c0.2,4.8-0.1,9.5-1.9,14.1
		c-0.5,1.3-0.3,1.9,1.3,1.6c3.6-0.6,6.1-2.5,7.5-5.9c2.9-7.1,3.4-14.3,0.6-21.6c-0.6-1.5,0.7-1.4,1.3-1.8c1-0.7,1.1,0.2,1.3,0.8
		c3.2,8.8,2.6,17.3-1.6,25.6c-0.8,1.5-2,2.7-3.5,3.6c-0.7,0.4-0.9,0.8-0.6,1.6c2.2,6.2,1.8,12.4,0.1,18.7c-1,3.6-1.6,7.3-2.4,10.9
		c-0.6,2.6-2.3,4-5,4.1c-4.1,0-8.1,0-12.2,0c-1.2,0-1.4-0.4-1.4-1.4c0-1.2,0.4-1.4,1.5-1.4c3.8,0.1,7.6-0.1,11.4,0.1
		c2.1,0.1,3.1-0.8,3.3-2.7c0-0.2,0.1-0.4,0.1-0.6c0.3-1.5,1.3-3.1,0.9-4.3c-0.5-1.6-2.7-0.1-3.9-0.8c-3.7-2.2-7.8-1.1-11.7-1.3
		c-1.9-0.1-3.9-0.3-5.6,1c-1,0.7-2.4,0.4-3.7,0.4c-0.9,0-1.5,0-1.1,1.3c0.5,1.4,0.7,2.9,1,4.4c0.3,2,1.3,2.9,3.3,2.7
		c1-0.1,1.8-0.2,1.8,1.4c0,1.7-0.9,1.4-1.9,1.4c-3.5,0-5.1-1.2-5.9-4.7c-1.2-5.3-2.3-10.6-3.4-15.9c-0.8-4.2-0.2-8.3,0.9-12.4
		c0.2-0.6,0.6-1.1-0.3-1.6c-4.4-2.3-5.8-6.5-6.8-10.9c-1.5-6.5-0.9-12.9,1.6-19C29.7,22.1,33.3,18.8,38.2,16.7z M50.2,38.9
		c-2.7,0-5.5,0-8.2,0c-0.5,0-1.3-0.2-1.3,0.4c-0.1,2.3,0,4.7,0,7c0,0.1,0.2,0.3,0.4,0.4c3.1,1.5,6.1,3.3,9.7,3.1
		c3.3-0.2,6.4-1.5,8.7-3.5c1.2-1,0.2-3.8,0.3-5.9c0-0.1,0-0.1,0-0.2c0.2-1.1-0.3-1.5-1.4-1.4C55.7,38.9,52.9,38.9,50.2,38.9z
		 M42.7,73.1c0.2-1.7,0.4-3,0.6-4.3c0.2-1.4,0.4-2.8,0.5-4.3c0.2-2-1.1-3.1-2.9-2.4c-1.9,0.7-3.7,1.6-5.5,2.4
		c-0.3,0.2-0.7,0.3-0.7,0.8c0.1,1.6,0.1,3.3,0.2,4.9c0,0.8,0.5,0.9,1.2,0.7C38.5,70.3,40.6,71.2,42.7,73.1z M57.6,72.9
		c3.3-2.1,4-2.4,6.4-1.9c1.2,0.2,1.4-0.2,1.6-1.2c0.6-4.3,0.4-4.8-3.6-6.6c-0.7-0.3-1.4-0.6-2.1-0.9c-2.3-0.9-3.6,0-3.3,2.5
		C56.9,67.4,57.3,70.1,57.6,72.9z M59,50.3c-0.2-0.1-0.4-0.3-0.5-0.4c-4.2,3.2-5.9,8.6-9.8,12.6c1.9,0,3.2,0,4.5,0
		c0.7,0,1-0.4,1.3-0.9c1.5-2.3,3.7-2.9,6.3-1.9c1.4,0.6,2.7,1.2,4.1,1.8c-0.2-3.3-0.3-3.4-3.3-3.3c-1,0-2,0.1-2.9,0
		c-1.2-0.1-1.8-0.7-1.4-2C57.9,54.3,58.4,52.2,59,50.3z M50.2,76.3c1.4,0,2.7,0,4.1,0c0.4,0,1,0.1,0.9-0.4c-0.1-1.6-0.1-3.3-0.7-4.8
		c-0.3-0.9-1.8-0.3-2.7-0.4c-1.6-0.1-3.3,0-4.9,0c-0.4,0-1.1,0.1-1.1,0.2c-0.3,1.7-0.8,3.4-0.6,5c0.1,0.9,1.7,0.3,2.6,0.4
		C48.6,76.4,49.4,76.3,50.2,76.3z M35.5,61.5c1.5-0.6,2.9-1.2,4.3-1.9c1.5-0.7,3.3-0.8,4.4,0.3c1.8,1.9,2.5,0.8,3.6-0.7
		c0.5-0.8,0.6-1.3,0.1-2c-1.1-1.5-2.2-3.1-3.1-4.7c-0.8-1.3-1.8-2.1-3.4-2.5c0.3,1.2,0.6,2.3,0.9,3.4c1.8,5.5,1,4.7-3.7,4.7
		C35.7,58.2,35.6,58.3,35.5,61.5z M57.4,15.5c-1.9-3.6-4.8-4.5-8.3-4.2c-2.8,0.2-5.1,1.8-5.9,4.2C47.8,15.5,52.5,15.5,57.4,15.5z
		 M50.1,68c1,0,2.1,0,3.1,0c0.4,0,1.1,0.2,0.9-0.6c-0.2-1.1,0-2.6-2-2.2c-1.3,0.2-2.8,0.2-4.1,0c-1.9-0.3-1.8,1.1-1.9,2.1
		c0,1.4,1.1,0.6,1.8,0.7C48.7,68.1,49.4,68,50.1,68z M38.6,77.8c0.8-0.1,1.6,0,2.3-0.2c0.4-0.1,1-0.3,0.8-1.1
		c-0.5-1.8-3.2-3.5-5-2.9c-0.5,0.1-1,0.2-1,0.9C35.6,76.6,36.5,77.7,38.6,77.8z M61.4,77.7c0.3,0,0.5,0,0.7,0c0.7-0.2,1.8,0.6,2-0.8
		c0.2-1,1-2.1,0.3-2.9c-0.8-0.8-2-0.7-3.1-0.2c-0.3,0.1-0.6,0.3-0.8,0.5c-0.8,0.8-2,1.6-1.7,2.6C59,78.1,60.5,77.6,61.4,77.7z
		 M48,52.6c0.8,1.1,1.4,2.1,2.2,3.2c0.5-1.2,2-2,1.5-3c-0.4-0.7-2-0.3-3.1-0.2C48.5,52.6,48.4,52.6,48,52.6z M33.5,11.3
		c-0.8,0.1-1.3,0.6-1.3,1.4c0,0.8,0.5,1.3,1.4,1.3c0.9,0,1.5-0.6,1.4-1.5C34.9,11.8,34.4,11.3,33.5,11.3z"/>
	<path class="st0" d="M56.7,21.1c4.3,0.2,9.4,3.9,10.8,8c0.2,0.6,0.4,1.2-0.4,1.4c-0.7,0.1-1.5,1.2-2.1-0.2c-1.6-3.8-4.5-6-8.6-6.4
		c-1.5-0.2-0.8-1.2-0.9-1.9C55.3,20.8,56.2,21.1,56.7,21.1z"/>
	<path class="st0" d="M44.1,82.4c0.3,0,2.8,2.3,2.7,2.5c-0.3,0.8-1.4,1.8-1.6,1.7c-1-0.6-2.1-1.5-2.6-2.5
		C42.3,83.7,43.5,82.9,44.1,82.4z"/>
	<path class="st0" d="M58.1,84.2c-1,0.9-1.9,1.9-2.9,2.4c-0.2,0.1-1.3-0.9-1.6-1.7c-0.1-0.2,2.4-2.6,2.6-2.5
		C56.8,83,57.4,83.5,58.1,84.2z"/>
	<path class="st0" d="M68.9,34.9c0.3,1.6-0.8,1-1.5,1.2c-1.4,0.3-1.2-0.8-1.3-1.6C66,33,67.4,33.4,68,33.4
		C69.4,33.2,68.6,34.5,68.9,34.9z"/>
	<path class="st0" d="M49.9,45.1c1.4,0.2,2.4,1.1,2.3,1.8c0,0.8-1,1.7-2,1.8c-1,0-2-1-2-1.8C48.1,46.1,49.1,45.3,49.9,45.1z"/>
	<path class="st0" d="M46,41.9c0.4,1.4-0.6,1.2-1.4,1.3c-1.3,0.1-1.2-0.6-1.3-1.5c-0.1-1.3,0.6-1.2,1.5-1.3
		C46.1,40.2,46.2,40.9,46,41.9z"/>
	<path class="st0" d="M55.8,43c-1.3,0.4-1.5-0.2-1.5-1.3c0-1.1,0.3-1.4,1.4-1.4c1.1,0,1.5,0.3,1.4,1.4C57,42.7,57,43.5,55.8,43z"/>
</g>
</svg>
