<?xml version="1.0" encoding="utf-8"?>
<!-- Generator: Adobe Illustrator 23.0.3, SVG Export Plug-In . SVG Version: 6.00 Build 0)  -->
<svg version="1.1" id="Layer_1" xmlns="http://www.w3.org/2000/svg" xmlns:xlink="http://www.w3.org/1999/xlink" x="0px" y="0px"
	 viewBox="0 0 100 100" style="enable-background:new 0 0 100 100;" xml:space="preserve">
<style type="text/css">
	.st0{fill:#243A76;stroke:#243A76;stroke-width:1.0401;stroke-linecap:round;stroke-linejoin:round;stroke-miterlimit:10;}
	.st1{fill:#243A76;stroke:#243A76;stroke-linecap:round;stroke-linejoin:round;stroke-miterlimit:10;}
	.st2{fill:#243A76;stroke:#243A76;stroke-width:0.25;stroke-linecap:round;stroke-linejoin:round;stroke-miterlimit:10;}
</style>
<g>
	<path class="st0" d="M53,89.7c-2,0-4,0-6,0c-0.4-0.1-0.8-0.2-1.2-0.3c-16.5-2.3-27.7-11.2-33.4-26.9c-1.1-3-1.4-6.4-2.1-9.6
		c0-2,0-4,0-6c0.1-0.5,0.2-0.9,0.3-1.4c2.4-16.5,11.4-27.7,27-33.3c3-1.1,6.2-1.4,9.4-2.1c2,0,4,0,6,0c0.3,0.1,0.7,0.2,1,0.3
		c16.2,1.8,29.4,12.6,34,28.2c0.8,2.7,1.1,5.5,1.7,8.2c0,2,0,4,0,6c-0.1,0.4-0.2,0.8-0.3,1.2C87.4,69.9,79,80.9,64.4,86.9
		C60.8,88.4,56.8,88.8,53,89.7z M50.1,12.8c-20.2-0.3-37,16.4-37.3,36.9c-0.3,20.3,16.4,37.1,37,37.4c20.2,0.3,37-16.4,37.3-36.9
		C87.5,30,70.7,13.1,50.1,12.8z"/>
	<path class="st1" d="M50,83.1c-18.3,0-33.1-14.9-33.1-33.2c0-18.2,14.9-33,33.1-33c18.3,0,33.1,14.9,33.1,33.2
		C83.1,68.2,68.2,83.1,50,83.1z M19.4,51.2c0.8,10.9,5.5,19.4,14.8,24.8c11,6.5,22.2,6.2,32.9-0.9c8.4-5.6,12.7-13.7,13.4-24
		c-3.8,0-7.4,0-10.9,0c-2.8,0-3.9-1-4.5-3.8c-0.4-1.8-1.1-3.5-1.8-5.6c-0.7,1.1-1.1,1.7-1.5,2.3c-2.2,3.3-4.4,6.6-6.8,9.7
		c-2.5,3.2-6.9,3.3-9.5,0.5c-2.6-2.7-2.4-6.9,0.7-9.4c1.6-1.3,3.3-2.5,5-3.7c2.1-1.5,4.3-2.8,6.6-4.3c-0.6-0.3-0.9-0.6-1.3-0.7
		c-8.9-4.4-19.6,1.1-21.6,11c-0.6,3.2-1.6,4-4.9,4C26.6,51.2,23.1,51.2,19.4,51.2z M29.6,27.3c3,3.1,6,6.1,9,9.1
		c2.9-2.5,6.4-3.7,10.1-4.2c0-4.3,0-8.4,0-12.7C41.2,19.8,34.9,22.6,29.6,27.3z M19.5,48.8c4,0,7.7,0,11.4-0.1
		c0.5,0,1.3-0.7,1.4-1.2c0.6-3.5,2-6.5,4-9c-3.1-3.1-6-6-9-9.1C22.6,34.9,19.8,41.2,19.5,48.8z M51.3,19.5c0,4.4,0,8.5,0,12.1
		c3,1.2,5.7,2.4,8.5,3.6c0.2,0.1,0.6,0.2,0.8,0.1c1.6-0.8,3.4-1.4,4.7-2.5c1.9-1.5,3.5-3.4,5.4-5.2C65.1,22.6,58.8,19.8,51.3,19.5z
		 M80.5,48.8c-0.4-7.6-3.1-13.9-8.1-19.6c-1.3,1.3-2.2,2.6-3.5,3.6c-2.1,1.7-2.6,4.4-4.1,6.5c-0.2,0.2,0.1,0.8,0.2,1.2
		c0.8,2.3,1.6,4.5,2.6,6.7c0.3,0.6,1.1,1.5,1.6,1.5C72.9,48.8,76.6,48.8,80.5,48.8z M63.3,37.3c-0.2-0.1-0.3-0.3-0.5-0.4
		c-0.8,0.5-1.5,0.9-2.3,1.4c-4.2,2.8-8.4,5.5-12.5,8.4c-1.4,1-2.3,2.4-1.8,4.2c0.4,1.6,1.4,2.6,3,2.9c1.7,0.4,3.1-0.3,4-1.6
		C56.6,47.2,60,42.2,63.3,37.3z"/>
	<path class="st2" d="M39.8,70.1c0,0.3,0,0.5,0,0.8c0,1,0,2-1.3,1.9c-1.2-0.1-1.2-1.1-1.2-2.1c0-2.2,0-4.4,0-6.6
		c0-0.7-0.2-1.5,0-2.2c0.2-0.6,0.7-1.5,1.2-1.6c1-0.2,1.2,0.7,1.2,1.5c0,0.4,0,0.8,0.1,1.6c1-1,1.7-1.9,2.6-2.5
		c0.5-0.4,1.4-0.3,2.1-0.4c-0.1,0.7,0.1,1.6-0.3,2C43,64,41.6,65.1,40,66.5c1.5,1.4,2.8,2.6,4.1,3.8c0.7,0.6,1.2,1.5,0.3,2.1
		c-0.4,0.3-1.5,0-2-0.4c-0.8-0.7-1.4-1.6-2-2.4C40.2,69.8,40,69.9,39.8,70.1z"/>
	<path class="st2" d="M49.9,67.9c0,1.2,0.1,2.4-0.1,3.6c-0.1,0.5-0.7,0.9-1.1,1.4c-0.4-0.4-1.2-0.9-1.2-1.3c-0.1-3.3-0.1-6.7,0-10
		c0-0.3,0.3-1,0.5-1c1.7,0,3.4-0.2,5,0.1c1.3,0.3,2,1.6,2.1,3c0.1,2.2-1.2,3.8-3.4,4.1C51.1,67.9,50.6,67.9,49.9,67.9z M50,65.6
		c1-0.4,1.7-0.7,2.4-1.1c0.2-0.1,0.2-1.1-0.1-1.2c-0.6-0.4-1.4-0.6-2.3-0.9C50,63.6,50,64.3,50,65.6z"/>
	<path class="st2" d="M60.1,66.6c0,1.6,0.1,3.2-0.1,4.7c-0.1,0.5-0.8,1-1.2,1.5c-0.4-0.5-1.2-1-1.2-1.5c-0.1-3.2-0.1-6.4,0-9.6
		c0-0.5,0.8-1,1.2-1.5c0.4,0.5,1.1,1,1.2,1.5C60.2,63.4,60.1,65,60.1,66.6z"/>
</g>
</svg>
