<?xml version="1.0" encoding="utf-8"?>
<!-- Generator: Adobe Illustrator 23.0.3, SVG Export Plug-In . SVG Version: 6.00 Build 0)  -->
<svg version="1.1" id="Layer_1" xmlns="http://www.w3.org/2000/svg" xmlns:xlink="http://www.w3.org/1999/xlink" x="0px" y="0px"
	 viewBox="0 0 100 100" style="enable-background:new 0 0 100 100;" xml:space="preserve">
<style type="text/css">
	.st0{fill:#243A76;}
</style>
<g>
	<path class="st0" d="M14.1,73.1c0-14.9,0-29.8,0-44.7c0.1-0.1,0.2-0.1,0.2-0.2c1.5-5.1,4.2-7.2,9.7-7.2c1.7,0,3.4,0,5.1,0
		c0-1.1,0-1.9,0-2.8c0-2.1,1.1-3.2,2.9-3.2c1.9,0,2.9,1,2.9,3.2c0,0.9,0,1.8,0,2.7c6.1,0,12.1,0,18.1,0c0-1.1,0-2.1,0-3.1
		c0.1-1.7,1.2-2.7,2.9-2.7c1.7,0,2.8,1,2.9,2.7c0.1,1,0,2.1,0,3.3c2,0,3.7,0.1,5.5,0c5.3-0.4,9.7,3.7,9.5,9.5
		c-0.2,6.1,0,12.1,0,18.2c0,0.6-0.1,1.1-0.1,1.6c-2,0-3.8,0-5.7,0c0-1.7,0-3.5,0-5.4c-4.1,0-8.1,0-12.1,0c0,3.6,0,7,0,10.5
		c0,0.6-0.2,1.3-0.5,1.7c-4.9,6-5.7,12.6-3,19.7c0.5,1.3,1.2,2.5,1.8,3.9c-10.6,0-21.1,0.1-31.6,0c-4.2,0-7.3-2.8-8.3-6.9
		C14.3,73.6,14.2,73.3,14.1,73.1z M20.1,38.8c16,0,31.9,0,47.9,0c0-3.1,0-6.1,0-9c0-1.5-0.8-2.7-2.3-2.8c-2.2-0.2-4.4,0-6.8,0
		c0,1.1,0,2.1,0,3.1c-0.1,1.8-1.1,2.8-2.8,2.8c-1.7,0-2.9-1.1-3-2.9c0-1,0-2,0-3.1c-6.1,0-12,0-18.1,0c0,1.1,0.1,2.1,0,3.2
		c-0.1,1.8-1.2,2.8-2.9,2.8c-1.7,0-2.9-1.1-2.9-2.9c0-1,0-2,0-3.1c-2.3,0-4.4-0.1-6.5,0c-1.3,0.1-2.4,0.9-2.4,2.3
		C20.1,32.4,20.1,35.6,20.1,38.8z M50,62.6c-4.1,0-8,0-11.9,0c0,4.1,0,8.1,0,12.1c4,0,7.9,0,11.9,0C50,70.6,50,66.7,50,62.6z
		 M50,56.5c0-4,0-7.7,0-11.6c-4,0-7.9,0-11.9,0c0,3.9,0,7.7,0,11.6C42.1,56.5,46,56.5,50,56.5z M32,74.8c0-4.2,0-8.2,0-12.2
		c-4,0-7.9,0-11.9,0c0,3.2-0.1,6.4,0,9.5c0,1.6,1.1,2.6,2.8,2.7C25.9,74.9,28.8,74.8,32,74.8z M32,44.9c-4,0-7.9,0-11.9,0
		c0,3.9,0,7.7,0,11.6c4,0,7.9,0,11.9,0C32,52.6,32,48.8,32,44.9z"/>
	<path class="st0" d="M85.9,71.2c-0.3,1-0.5,2-0.8,3c-2.3,7.1-9.6,11.7-16.8,10.6c-7.9-1.2-13.4-7.4-13.4-15.2
		c-0.1-8.3,6-15,13.9-15.7c8.4-0.7,15.4,4.7,16.8,13c0,0.2,0.2,0.5,0.3,0.7C85.9,68.8,85.9,70,85.9,71.2z M70.3,81.1
		c6.3,0,11.4-5.1,11.4-11.4c0-6.3-5.1-11.4-11.5-11.4c-6.2,0-11.4,5.1-11.4,11.3C58.9,75.9,64,81.1,70.3,81.1z"/>
	<path class="st0" d="M72.4,65c0,0.1,0,0.1,0,0.2c-0.5,2.7,0.4,4.8,2.7,6.4c0.3,0.2,0.6,0.6,0.9,0.9c0.8,0.9,1,1.8,0.1,2.7
		c-0.9,0.9-2,1.1-3,0.2c-1.4-1.3-2.8-2.7-4.1-4.2c-0.4-0.5-0.6-1.2-0.6-1.9c-0.1-2.4,0-4.9,0-7.3c0-1.6,0.7-2.3,2-2.3
		c1.3,0,2,0.7,2.1,2.3c0,0.1,0,0.2,0,0.3C72.4,63.2,72.4,64.1,72.4,65z"/>
</g>
</svg>
