<?xml version="1.0" encoding="utf-8"?>
<!-- Generator: Adobe Illustrator 23.0.3, SVG Export Plug-In . SVG Version: 6.00 Build 0)  -->
<svg version="1.1" id="Layer_1" xmlns="http://www.w3.org/2000/svg" xmlns:xlink="http://www.w3.org/1999/xlink" x="0px" y="0px"
	 viewBox="0 0 100 100" style="enable-background:new 0 0 100 100;" xml:space="preserve">
<style type="text/css">
	.st0{fill:#A7ACB6;stroke:#A7ACB6;stroke-linecap:round;stroke-linejoin:round;stroke-miterlimit:10;}
</style>
<g>
	<g>
		<path class="st0" d="M82,50c0,13.1,0,26.3,0,39.4c0,0.6-0.1,0.8-0.8,0.8c-20.9,0-41.8,0-62.6,0c-0.6,0-0.7-0.1-0.7-0.7
			c0-26.3,0-52.6,0-78.9c0-0.6,0.1-0.7,0.7-0.7c20.9,0,41.8,0,62.7,0c0.6,0,0.7,0.2,0.7,0.7C82,23.7,82.1,36.8,82,50
			C82.1,50,82,50,82,50z M20.6,50c0,12.2,0,24.4,0,36.7c0,0.7,0.2,0.8,0.8,0.8c19,0,38.1,0,57.1,0c0.6,0,0.8-0.1,0.8-0.8
			c0-24.4,0-48.8,0-73.2c0-0.7-0.2-0.9-0.9-0.9c-19,0-38,0-56.9,0c-0.7,0-0.9,0.2-0.9,0.9C20.6,25.6,20.6,37.8,20.6,50z"/>
		<path class="st0" d="M50,55.4c7.8,0,15.6,0,23.4,0c0.6,0,0.8,0.1,0.8,0.8c0,8.4,0,16.9,0,25.3c0,0.7-0.2,0.8-0.8,0.8
			c-15.6,0-31.2,0-46.8,0c-0.6,0-0.8-0.1-0.8-0.8c0-8.5,0-16.9,0-25.4c0-0.6,0.2-0.7,0.7-0.7C34.4,55.4,42.2,55.4,50,55.4z
			 M56.2,74.2c-4.9,0-9.7,0-14.6,0c-0.6,0-0.8,0.2-0.8,0.8c0,1.3,0.1,2.6,0,3.8c0,0.7,0.2,0.8,0.8,0.8c4.5,0,9,0,13.5,0
			c5.2,0,10.5,0,15.7,0c0.5,0,0.7-0.1,0.7-0.7c0-1.3,0-2.7,0-4c0-0.6-0.2-0.7-0.7-0.7C65.9,74.2,61.1,74.2,56.2,74.2z M56.2,58.1
			c-1.3,0-2.6,0-3.8,0c-3.6,0-7.2,0-10.8,0c-0.5,0-0.7,0.1-0.7,0.7c0.1,0.8,0,1.7,0,2.5c0,0.7-0.3,1.6,0.1,2.1
			c0.4,0.4,1.3,0.1,2,0.1c9.2,0,18.5,0,27.7,0c0.6,0,0.8-0.1,0.8-0.8c-0.1-1.3,0-2.6,0-3.8c0-0.6-0.1-0.7-0.7-0.7
			C65.9,58.1,61.1,58.1,56.2,58.1z M56.2,66.2c-4.9,0-9.8,0-14.7,0c-0.6,0-0.7,0.1-0.7,0.7c0,1.4,0,2.8,0,4.1c0,0.4,0.1,0.5,0.5,0.5
			c9.9,0,19.7,0,29.6,0c0.4,0,0.6-0.1,0.6-0.6c0-1.4,0-2.7,0-4.1c0-0.6-0.2-0.7-0.7-0.7C65.9,66.2,61.1,66.2,56.2,66.2z M33.4,58.1
			c-1.4,0-2.9,0-4.3,0c-0.4,0-0.6,0.1-0.6,0.6c0,1.4,0,2.8,0,4.2c0,0.4,0.1,0.6,0.6,0.6c2.8,0,5.7,0,8.5,0c0.4,0,0.6-0.1,0.6-0.6
			c0-1.4,0-2.8,0-4.2c0-0.5-0.2-0.6-0.6-0.6C36.2,58.1,34.8,58.1,33.4,58.1z M33.3,71.5c1.4,0,2.9,0,4.3,0c0.3,0,0.6,0,0.6-0.5
			c0-1.5,0-2.9,0-4.4c0-0.4-0.2-0.4-0.5-0.4c-2.9,0-5.8,0-8.7,0c-0.4,0-0.5,0.1-0.5,0.5c0,1.4,0,2.9,0,4.3c0,0.5,0.2,0.6,0.6,0.6
			C30.5,71.5,31.9,71.5,33.3,71.5z M33.3,79.6c1.4,0,2.8,0,4.3,0c0.5,0,0.7-0.1,0.6-0.6c0-1.4,0-2.8,0-4.2c0-0.5-0.1-0.6-0.6-0.6
			c-2.8,0-5.7,0-8.5,0c-0.4,0-0.6,0.1-0.6,0.5c0,1.4,0,2.9,0,4.3c0,0.5,0.2,0.5,0.6,0.5C30.5,79.6,31.9,79.6,33.3,79.6z"/>
		<path class="st0" d="M70,41.6c0.7,0,1.4,0,2.1,0c1.2,0,2.1,0.9,2.1,2.1c0,1.4,0,2.9,0,4.3c0,1.1-0.8,2-2,2c-1.5,0.1-3,0.1-4.6,0
			c-1.1,0-1.9-0.9-1.9-2c0-1.4,0-2.8,0-4.3c0-1.3,0.9-2.1,2.2-2.1C68.6,41.6,69.3,41.6,70,41.6L70,41.6z M72,46c0-0.6,0-1.2,0-1.7
			c0-0.4-0.1-0.5-0.5-0.5c-1.1,0-2.1,0-3.2,0c-0.4,0-0.5,0.1-0.5,0.5c0,0.5,0,1,0,1.5c0,0.7-0.3,1.5,0.1,2c0.4,0.4,1.3,0.1,1.9,0.1
			c0.7,0,1.5,0.3,1.9-0.1C72.3,47.4,71.9,46.5,72,46z"/>
		<path class="st0" d="M41.8,41.5c2.7,0,5.3,0,8,0c0.6,0,0.8,0.1,0.7,0.7c-0.1,0.7,0.3,1.5-0.1,1.9c-0.4,0.3-1.2,0.1-1.9,0.1
			c-4.9,0-9.7,0-14.6,0c-0.6,0-0.8-0.1-0.7-0.7c0.1-0.6-0.3-1.5,0.1-1.9c0.4-0.4,1.2-0.1,1.8-0.1C37.4,41.5,39.6,41.5,41.8,41.5z"/>
		<path class="st0" d="M41.8,50.2c-2.7,0-5.4,0-8,0c-0.5,0-0.7-0.1-0.6-0.6c0.1-0.7-0.2-1.5,0.1-1.9c0.4-0.5,1.2-0.1,1.9-0.2
			c4.9,0,9.7,0,14.6,0c0.6,0,0.8,0.2,0.7,0.7c-0.1,0.6,0.3,1.4-0.1,1.8c-0.4,0.4-1.2,0.1-1.8,0.1C46.3,50.2,44,50.2,41.8,50.2z"/>
		<path class="st0" d="M28,44.2h-0.1c-2.3,0-2.3,0-2-2.3c0-0.3,0.2-0.4,0.5-0.4c1.1,0,2.3,0,3.4,0c0.3,0,0.5,0.1,0.5,0.5
			c0,0.6,0,1.2,0,1.8c0,0.4-0.2,0.5-0.5,0.5C29.1,44.2,28.5,44.2,28,44.2z"/>
		<path class="st0" d="M28,50.2c-0.6,0-1.2,0-1.8,0c-0.3,0-0.5-0.1-0.4-0.4v-0.1c-0.1-2.1-0.1-2.1,2-2.1c0.6,0,1.2,0,1.8,0
			c0.4,0,0.5,0.1,0.5,0.5c0,0.6,0,1.2,0,1.8c0,0.3-0.1,0.4-0.4,0.4C29.1,50.2,28.6,50.2,28,50.2z"/>
	</g>
	<g>
		<path class="st0" d="M60.2,26.7c0,1.6,0,3.1-0.4,4.6c-0.6,2.4-2.1,3.5-4.7,3.5c-2.6,0-4.1-1-4.7-3.5c-0.7-3.1-0.7-6.3,0-9.4
			c0.5-2.4,2.1-3.4,4.6-3.5c2.6,0,4.1,1,4.7,3.4C60.2,23.5,60.2,25.1,60.2,26.7z M57.2,26.7c0-1.4,0-2.8-0.3-4.2
			c-0.3-1.1-0.8-1.6-1.7-1.6c-1,0-1.6,0.4-1.8,1.5c-0.5,2.8-0.5,5.7,0,8.6c0.2,1.1,0.8,1.5,1.7,1.5c1,0,1.5-0.4,1.8-1.5
			C57.2,29.6,57.1,28.1,57.2,26.7z"/>
		<g>
			<path class="st0" d="M48.1,23.5C48,24.2,48,25,47.8,25.7C47.4,27.8,46,29,43.9,29c-1.4,0-1.4,0.1-1.4,1.5c0,1.3,0,2.6,0,3.9
				c0,1.2-0.2,1.3-1.3,1.3c-1.2,0-1.3-0.1-1.3-1.3c0-3.3,0-6.6,0-9.9c0-0.3,0-0.7-0.1-1h0.1v0.1c0.8,0,1.7,0,2.5,0
				c0,0.6,0,1.2,0.1,1.8c0,1.1,0.4,1.4,1.5,1.2c0.9-0.2,1.2-0.8,1.4-1.6c0.1-0.4,0.1-0.9,0.1-1.4C46.3,23.5,47.1,23.5,48.1,23.5
				L48.1,23.5L48.1,23.5z"/>
			<path class="st0" d="M48,23.5c-0.9,0-1.7,0-2.6,0h-0.1v0.1c0.1-0.3,0-0.6-0.1-0.9c-0.3-0.9-1.1-1.3-2.1-1.1
				c-0.9,0.2-0.5,0.9-0.6,1.5c0,0.2,0,0.4,0,0.5h-0.1h-0.1c-0.8,0-1.7,0-2.5,0c0-1.2,0-2.4,0-3.6c0-0.6,0.3-0.9,0.9-0.9
				c1.3,0,2.7,0,4,0c1.7,0.1,2.9,1.5,3.1,3.3C47.9,22.7,47.9,23.1,48,23.5z"/>
		</g>
	</g>
</g>
</svg>
