<?xml version="1.0" encoding="utf-8"?>
<!-- Generator: Adobe Illustrator 23.0.3, SVG Export Plug-In . SVG Version: 6.00 Build 0)  -->
<svg version="1.1" id="Layer_1" xmlns="http://www.w3.org/2000/svg" xmlns:xlink="http://www.w3.org/1999/xlink" x="0px" y="0px"
	 viewBox="0 0 100 100" style="enable-background:new 0 0 100 100;" xml:space="preserve">
<style type="text/css">
	.st0{fill:#A7ACB6;stroke:#A7ACB6;stroke-width:0.9741;stroke-miterlimit:10;}
</style>
<g>
	<path class="st0" d="M20.2,89.4c-0.2-0.7-0.6-1.4-0.6-2.1c-0.1-4.7-0.1-10.3,0-15c0-0.7,0.6-1.9,1-1.9c1.3-0.1,1.2,1,1.2,2
		c0,4.5,0,10.1,0,14.7c17.5,0,38.7,0,56.2,0c0-0.8,0-2.4,0-3.1c0-18.7,0-37.4,0-56.1c0-0.5-0.1-1,0-1.4c0.3-0.6,0.8-1,1.2-1.5
		c0.4,0.5,0.8,1,1.1,1.5c0.1,0.3,0,0.7,0,1c0,19.4,0,39.8,0,59.3c0,0.9-0.4,1.7-0.6,2.6C61.2,89.4,38.8,89.4,20.2,89.4z"/>
	<path class="st0" d="M79.8,10.6c0.2,0.5,0.5,1,0.6,1.6c0.1,2.4,0.1,5.9,0,8.3c0,0.5-0.7,1-1,1.5c-0.4-0.5-1.1-1-1.2-1.5
		c-0.1-2.1-0.1-5.3-0.1-7.5c-17.5,0-38.7,0-56.2,0c0,0.7,0,2.4,0,3.1c0,16.2,0,32.5,0,48.7c0,0.4,0.1,0.9,0,1.2
		c-0.3,0.5-0.7,1-1.1,1.5c-0.4-0.5-0.9-0.9-1.1-1.4c-0.2-0.3,0-0.8,0-1.2c0-16.9,0-34.7,0-51.5c0-0.9,0.4-1.7,0.6-2.6
		C38.8,10.6,61.2,10.6,79.8,10.6z"/>
	<path class="st0" d="M65.8,81.3c1.6,0,3.2,0,5,0c0-0.6,0-1.2,0-1.8c0-4.7,0-9.5,0-14.2c0-0.9-0.1-1.9,1.1-1.9
		c1.2,0,1.1,1.1,1.1,1.9c0,5.5,0,10.9,0,16.4c0,1.4-0.4,2-1.9,2c-2-0.1-4,0-6,0c-1.1,0-1.7-0.5-1.7-1.6c0-8.8,0-17.5,0-26.3
		c0-1.1,0.4-1.6,1.5-1.6c2.2,0,4.3,0,6.5,0c0.2,0,0.6,0,0.7,0.1c0.3,0.5,0.8,1.1,0.8,1.7c-0.1,1.4-0.1,2.9-0.7,4.2
		c-0.3,0.6-1.4,0-1.5-0.9c-0.1-0.8,0-1.7,0-2.7c-1.7,0-3.3,0-5,0C65.8,64.6,65.8,72.9,65.8,81.3z"/>
	<path class="st0" d="M50.1,16.4c3.7,0,7.4,0,11.1,0c1.6,0,2.2,0.6,2.1,2.1c-0.1,1.2,0,2.4,0,3.6c0,1-0.5,1.5-1.4,1.5
		c-7.8,0-15.7,0-23.5,0c-1,0-1.5-0.5-1.4-1.5c0-0.1,0-0.2,0-0.3c0.1-6.2-0.9-5.3,5.1-5.3C44.6,16.3,47.4,16.4,50.1,16.4z M61,18.8
		c-7.4,0-14.7,0-21.9,0c0,0.9,0,1.6,0,2.3c7.4,0,14.6,0,21.9,0C61,20.3,61,19.6,61,18.8z"/>
	<path class="st0" d="M43.8,34.9c0,4.9-3.8,8.7-8.6,8.8c-4.8,0-8.7-3.8-8.7-8.7c0-4.9,3.8-8.7,8.6-8.8
		C39.8,26.2,43.7,30.1,43.8,34.9z M41.3,36.1c-1.8,0-3.6,0-5.4,0c-1.3,0-1.8-0.5-1.8-1.8c0.1-1.8,0-3.7,0-5.6
		c-3.5,0.7-5.7,3.6-5.4,6.9c0.4,3.3,3.2,5.9,6.5,5.8C38.3,41.5,41,39.1,41.3,36.1z M36.3,28.7c0,1.7,0,3.3,0,5.1c0.9,0,1.7,0,2.5,0
		c0.8,0,1.7,0,2.5,0C40.9,31,39.1,29.3,36.3,28.7z"/>
	<path class="st0" d="M60.8,71.8c0,3.3,0,6.6,0,9.9c0,1.4-0.5,1.9-1.9,1.9c-1.9,0-3.9,0-5.8,0c-1.3,0-1.8-0.6-1.8-1.9
		c0-6.6,0-13.2,0-19.8c0-1.4,0.5-2,1.9-1.9c1.9,0.1,3.8,0.1,5.6,0c1.5-0.1,2,0.6,2,2C60.8,65.3,60.8,68.6,60.8,71.8z M58.5,81.3
		c0-6.4,0-12.6,0-18.8c-1.7,0-3.2,0-4.8,0c0,6.3,0,12.5,0,18.8C55.3,81.3,56.8,81.3,58.5,81.3z"/>
	<path class="st0" d="M48.7,76.5c0,1.8,0,3.6,0,5.5c0,1.1-0.5,1.7-1.7,1.7c-2.1,0-4.2,0-6.3,0c-1,0-1.5-0.5-1.5-1.6
		c0-3.8,0-7.5,0-11.3c0-1.1,0.5-1.5,1.5-1.5c2.1,0,4.2,0,6.3,0c1.2,0,1.7,0.5,1.6,1.6C48.7,72.8,48.7,74.6,48.7,76.5z M46.3,71.5
		c-1.6,0-3.2,0-4.9,0c0,3.3,0,6.5,0,9.7c1.7,0,3.2,0,4.9,0C46.3,78,46.3,74.8,46.3,71.5z"/>
	<path class="st0" d="M61.1,28.5c-3.5,0-6.9,0.1-10.4,0c-0.6,0-1.2-0.7-1.8-1c0.6-0.4,1.2-1.1,1.8-1.1c7-0.1,14.1-0.1,21.1,0
		c0.6,0,1.1,0.7,1.7,1.1c-0.5,0.3-1.1,1-1.6,1C68.3,28.5,64.7,28.5,61.1,28.5z"/>
	<path class="st0" d="M31.9,76.5c5.3,0,4.6-0.6,4.7,4.6c0,2.5,0,2.5-2.6,2.6c-1.7,0-3.4,0-5.1,0c-1.2,0-1.8-0.5-1.8-1.7
		c0-1.2,0-2.5,0-3.8c0-1.2,0.6-1.8,1.8-1.7C29.8,76.5,30.8,76.5,31.9,76.5z M34.3,78.8c-1.7,0-3.3,0-4.9,0c0,0.9,0,1.6,0,2.4
		c1.7,0,3.3,0,4.9,0C34.3,80.4,34.3,79.7,34.3,78.8z"/>
	<path class="st0" d="M40,48.9c3,0,5.9,0,8.9,0c0.9,0,2.2-0.2,2.2,1.2c0,1.3-1.3,1.1-2.3,1.1c-6,0-11.9,0-17.9,0
		c-1,0-2.4,0.3-2.4-1.2c0-1.4,1.3-1.1,2.3-1.1C33.8,48.8,36.9,48.9,40,48.9z"/>
	<path class="st0" d="M39.9,53.9c3.1,0,6.3-0.1,9.4,0.1c0.6,0,1.2,0.7,1.8,1.1c-0.6,0.4-1.2,1-1.8,1.1c-6.4,0.1-12.7,0.1-19.1,0
		c-0.6,0-1.2-0.7-1.8-1.1c0.6-0.4,1.2-1,1.8-1.1C33.5,53.9,36.7,53.9,39.9,53.9z"/>
	<path class="st0" d="M61.1,33.5c-3.5,0-6.9,0-10.4,0c-0.8,0-1.8,0-1.7-1.1c0.1-0.4,1.1-1,1.7-1c7-0.1,14,0,21,0
		c0.8,0,1.7-0.1,1.7,1.1c0,1.2-1,1.1-1.8,1.1C68.2,33.5,64.6,33.5,61.1,33.5z"/>
	<path class="st0" d="M61.1,36.4c3.5,0,7.1,0,10.6,0c0.8,0,1.7-0.1,1.8,1c0,1.2-0.9,1.1-1.7,1.1c-7,0-14,0-21,0
		c-0.6,0-1.2-0.7-1.8-1c0.6-0.4,1.2-1,1.8-1.1C54.2,36.4,57.6,36.4,61.1,36.4z"/>
	<path class="st0" d="M56.8,41.5c2,0,4.1-0.1,6.1,0c0.5,0,1,0.7,1.5,1c-0.5,0.4-1,1-1.4,1.1c-4.2,0.1-8.4,0.1-12.6,0
		c-0.5,0-1-0.7-1.5-1c0.5-0.4,0.9-1,1.4-1C52.5,41.4,54.7,41.5,56.8,41.5z"/>
	<path class="st0" d="M35.1,61.2c-1.8,0-3.5,0.1-5.3-0.1c-0.5,0-0.9-0.7-1.4-1.1c0.4-0.3,0.9-0.9,1.3-1c3.6-0.1,7.2-0.1,10.7,0
		c0.5,0,1,0.7,1.5,1c-0.5,0.4-0.9,1-1.4,1C38.7,61.3,36.9,61.2,35.1,61.2z"/>
</g>
</svg>
