<?xml version="1.0" encoding="utf-8"?>
<!-- Generator: Adobe Illustrator 23.0.3, SVG Export Plug-In . SVG Version: 6.00 Build 0)  -->
<svg version="1.1" id="Layer_1" xmlns="http://www.w3.org/2000/svg" xmlns:xlink="http://www.w3.org/1999/xlink" x="0px" y="0px"
	 viewBox="0 0 100 100" style="enable-background:new 0 0 100 100;" xml:space="preserve">
<style type="text/css">
	.st0{fill:#A7ACB6;stroke:#A7ACB6;stroke-width:2.1876;stroke-linecap:round;stroke-linejoin:round;stroke-miterlimit:10;}
	.st1{fill:#A7ACB6;stroke:#A7ACB6;stroke-width:0.75;stroke-linecap:round;stroke-linejoin:round;stroke-miterlimit:10;}
	.st2{fill:#A7ACB6;stroke:#A7ACB6;stroke-linecap:round;stroke-linejoin:round;stroke-miterlimit:10;}
</style>
<g>
	<path class="st0" d="M21,16.7c0.1-0.4,0.1-0.9,0.1-1.2c0.4-3.7,2.5-5.9,6.2-5.9c12.1,0,32.1,0,44.1,0c4.1,0,6.4,2.4,6.4,6.6
		c0,18.3,0,36.7,0,55c0,4.4-2.2,6.7-6.7,6.7c-11.8,0-31.6,0-43.3,0c-4.5,0-6.7-2.2-6.7-6.7c0-16.6,0-33.2,0-49.7c0-0.9,0-1.7,0-2.5
		c-2.5,0-4.1,1.2-4.5,3.4c-0.1,0.6-0.1,1.3-0.1,2c0,17.8,0,35.7,0,53.5c0,4.5,1.3,5.8,5.9,5.8c11.5,0,30.9,0,42.4,0
		c3.4,0,4.3-0.7,5.2-3.9c0.1-0.4,0.6-0.7,1-1c0.3,0.4,0.6,0.8,0.6,1.2c0,2.8-2.7,5.3-5.9,5.3c-5,0.1-18,0-23,0c-7,0-14,0-21,0
		c-4.6,0-6.8-2.1-6.8-6.8c0-18,0-36.1,0-54.2C14.8,19.5,16.3,17.7,21,16.7z M76.2,43.7c0-9,0-18,0-27c0-4.1-1.5-5.6-5.5-5.6
		c-11.6,0-31.2,0-42.8,0c-3.6,0-5.2,1.6-5.2,5.2c0,18.1,0,36.2,0,54.3c0,3.8,1.5,5.3,5.3,5.3c11.6,0,31.2,0,42.8,0
		c4,0,5.4-1.4,5.4-5.4C76.3,61.7,76.2,52.8,76.2,43.7z"/>
	<path class="st0" d="M85.2,56.4c0,9.1,0,18.1,0,27.2c0,4.6-2.2,6.9-6.8,6.9c-11.7,0-31.4,0-43.2,0c-2.3,0-4.4-0.5-5.8-2.6
		c-0.3-0.4-0.1-1.2-0.2-1.7c0.4,0.3,1.1,0.4,1.4,0.7c1.2,1.4,2.6,2,4.4,2c11.9,0,31.7,0,43.6,0c3.3,0,4.9-1.7,4.9-5
		c0-18.4,0-36.8,0-55.1c0-2.8-1-4-3.8-4.8c-0.4-0.1-0.7-0.5-1.1-0.9c0.4-0.3,0.9-0.7,1.3-0.7c2.3,0,4.6,2.2,5.1,4.6
		c0.2,0.9,0.2,1.7,0.2,2.6C85.2,38.6,85.2,47.4,85.2,56.4z"/>
	<path class="st1" d="M66.8,23.5c-0.4,0.4-0.7,0.7-1.1,0.9c-0.7,0.5-2,1.7-2.2,1.5c-1.1-1-2-2.2-2.8-3.5c-0.1-0.1,0.2-0.7,0.4-0.8
		c0.4-0.1,0.8,0,1.1,0.2c0.6,0.5,1.2,1.2,1.9,2c1.6-1.8,3-3.5,4.6-5.1c0.4-0.4,1.2-0.5,1.8-0.8c-0.2,0.6-0.2,1.3-0.5,1.8
		c-0.9,1.1-2.1,2-1.3,3.7c0.4,0.7,0.1,1.7,0,2.6c-0.2,1.3-1,2.2-2.3,2.3c-1.9,0.1-3.7,0.1-5.6,0c-1.6-0.1-2.4-1-2.5-2.6
		c0-1.8-0.1-3.6,0-5.4c0.1-1.6,0.9-2.5,2.5-2.5c1.7,0,3.3-0.1,5,0c0.4,0,0.8,0.4,1.2,0.7c-0.4,0.3-0.8,0.8-1.2,0.9
		c-1.4,0.1-2.9-0.1-4.4,0.1c-0.5,0.3-1.3,1-1.4,1.5c-0.2,1.4-0.1,2.9-0.1,4.4c0,0.3,0,0.7,0.1,0.7c2,0.3,4,0.5,5.9,0.5
		c0.4,0,0.8-1.3,1.1-2C67,24.4,66.9,24.1,66.8,23.5z"/>
	<path class="st1" d="M66.8,62.9C66.5,63,66.3,63,66.2,63c-0.9,0.7-1.8,1.5-2.7,2.3c-1-1.1-2-2.1-2.8-3.3c-0.2-0.3,0.1-0.8,0.1-1.2
		c0.4,0.1,0.9,0,1.1,0.2c0.6,0.6,1.2,1.2,1.9,2.1c1.5-1.7,2.9-3.3,4.4-4.8c0.5-0.5,1.3-0.7,2-1c-0.3,0.7-0.4,1.5-0.9,2.1
		c-0.8,1-1.6,1.8-1,3.3c0.4,0.7,0.1,1.7,0,2.6c-0.1,1.5-1,2.4-2.4,2.4c-1.9,0.1-3.7,0.1-5.6,0C59,67.7,58,66.9,58,65.4
		c-0.1-2-0.2-3.9,0.1-5.8c0.2-0.9,1.2-2,2-2.2c1.8-0.4,3.7-0.2,5.6-0.1c0.4,0,0.7,0.5,1.1,0.9c-0.4,0.3-0.7,0.7-1.1,0.7
		c-1,0.1-2,0.1-3,0.1c-3.1,0-3.1,0-3.1,3c0.1,5-0.7,4.3,4.4,4.3C67,66.1,67,66.1,66.8,62.9z"/>
	<path class="st1" d="M66.8,43.3c-0.3,0.1-0.4,0.2-0.5,0.3c-0.9,0.7-2.2,2.1-2.7,2c-1.2-0.6-2-2-2.8-3c-0.2-0.2,0-0.7,0-1.1
		c0.4,0,1-0.1,1.2,0.1c0.6,0.5,1.2,1.2,1.9,2c1.6-1.8,3.1-3.6,4.7-5.1c0.4-0.4,1.2-0.4,1.8-0.6c-0.2,0.5-0.2,1.3-0.5,1.7
		c-1.2,1.2-2,2.1-1.3,3.9c0.3,0.7,0.1,1.6,0,2.4c-0.2,1.4-1,2.3-2.5,2.3c-1.8,0-3.6,0-5.4,0c-1.6,0-2.5-0.9-2.5-2.5
		c-0.1-1.9-0.1-3.7,0-5.6c0.1-1.4,0.8-2.3,2.2-2.3c1.8-0.1,3.6-0.1,5.4,0c0.4,0,0.7,0.5,1.2,0.8c-0.4,0.3-0.8,0.7-1.2,0.7
		c-1.4,0.1-2.9,0.1-4.4,0c-1.1,0-1.5,0.4-1.5,1.5c-0.4,5.7-0.4,5.7,5,5.7C67,46.5,67,46.4,66.8,43.3z"/>
	<path class="st2" d="M43.8,64.4c3.6,0,7.2,0,10.7,0c0.5,0,1.1,0.5,1.5,0.8C55.5,65.4,55,66,54.4,66C47.2,66,40.1,66,32.9,66
		c-0.5,0-1.1-0.5-1.5-0.8c0.5-0.3,1.1-0.8,1.6-0.8C36.6,64.4,40.1,64.4,43.8,64.4z"/>
	<path class="st2" d="M43.8,26.7c-3.6,0-7.2,0-10.7,0c-0.5,0-1.1-0.4-1.6-0.7c0.5-0.3,1.2-0.8,1.7-0.9c7.1-0.1,14.2-0.1,21.3,0
		c0.5,0,1.1,0.4,1.6,0.7c-0.5,0.3-1.2,0.8-1.7,0.8C50.9,26.8,47.3,26.7,43.8,26.7L43.8,26.7z"/>
	<path class="st2" d="M43.8,19.7c3.6,0,7.1,0,10.6,0c0.5,0,1.2,0.4,1.7,0.6c-0.5,0.3-1.2,0.9-1.7,0.9c-7.1,0.1-14.1,0.1-21.2,0
		c-0.6,0-1.2-0.5-1.8-0.8c0.6-0.3,1.2-0.7,1.8-0.8C36.8,19.7,40.2,19.7,43.8,19.7z"/>
	<path class="st2" d="M43.8,41c-3.6,0-7.2,0-10.8,0c-0.5,0-1.1-0.5-1.6-0.7c0.5-0.3,1.1-0.8,1.6-0.8c7.2-0.1,14.4-0.1,21.6,0
		c0.5,0,1,0.6,1.5,0.9c-0.5,0.3-1,0.6-1.5,0.6C51,41,47.4,41,43.8,41z"/>
	<path class="st2" d="M43.8,44.8c3.6,0,7,0,10.6,0c0.5,0,1.2,0.5,1.7,0.9c-0.5,0.3-1.1,0.7-1.6,0.7c-7.1,0.1-14.2,0.1-21.3,0
		c-0.5,0-1.2-0.5-1.7-0.9c0.5-0.3,1.1-0.7,1.6-0.7C36.6,44.7,40.2,44.8,43.8,44.8z"/>
	<path class="st2" d="M43.6,60.6c-3.6,0-7,0-10.6,0c-0.5,0-1.1-0.4-1.6-0.7c0.5-0.3,1-0.8,1.5-0.8c7.3-0.1,14.5-0.1,21.8,0
		c0.4,0,0.9,0.4,1.4,0.7c-0.5,0.3-1,0.8-1.5,0.8C50.9,60.6,47.2,60.6,43.6,60.6z"/>
</g>
</svg>
