<?xml version="1.0" encoding="utf-8"?>
<!-- Generator: Adobe Illustrator 23.0.3, SVG Export Plug-In . SVG Version: 6.00 Build 0)  -->
<svg version="1.1" id="Layer_1" xmlns="http://www.w3.org/2000/svg" xmlns:xlink="http://www.w3.org/1999/xlink" x="0px" y="0px"
	 viewBox="0 0 100 100" style="enable-background:new 0 0 100 100;" xml:space="preserve">
<style type="text/css">
	.st0{fill:#243A76;}
</style>
<g>
	<path class="st0" d="M72.3,35.9c-1.9-0.2-3.5-0.3-5.4-0.5c0-2.1,0-4.2,0-6.4c0-2.5,0-5,0-7.5c0-1.4-0.6-2.2-2.2-2.2
		c-14.3,0-28.6,0-43,0c-1.7,0-2.1,0.9-2.1,2.4c0,5,0,10,0,15c0,13.6,0,27.2,0,40.8c0,2.7,0.2,2.9,2.9,2.9c13.6,0,27.2,0,40.8,0
		c3.4,0,3.3,0,3.5-3.3c0-0.3,0.1-0.5,0.1-0.9c1.7-0.2,3.3-0.4,5-0.6c1.7,5.9-1.6,10.4-7.6,10.4c-14.1,0-28.2,0-42.1,0
		c-5.1,0-7.9-2.7-7.9-7.9c0-18.8,0-37.5,0-56.3c0-5.1,2.8-7.9,7.9-7.9c14.1,0,28.2,0,42.1,0c5.1,0,7.9,2.7,7.9,7.9
		C72.3,26.4,72.3,31,72.3,35.9z"/>
	<path class="st0" d="M49.1,55.9c0-10.2,8-18.3,18.1-18.3c10.2,0,18.5,8.2,18.5,18.3c0,10-8.3,18.3-18.3,18.3S49.1,65.9,49.1,55.9z
		 M54.6,55.8c0,7,5.6,12.8,12.6,12.9c7.1,0,13-5.9,13-12.9c0-7.1-5.8-12.8-12.9-12.8C60.2,43.1,54.7,48.6,54.6,55.8z"/>
	<path class="st0" d="M40.2,33.2c-4.8,0-9.6,0-14.3,0c-2.1,0-3.3-1.1-3.3-2.7s1.2-2.7,3.2-2.7c9.7,0,19.4,0,29.2,0
		c2,0,3.2,1,3.2,2.7c0,1.7-1.2,2.7-3.2,2.7C49.9,33.2,45,33.2,40.2,33.2z"/>
	<path class="st0" d="M37,66.7c3.7,0,7.3,0,11,0c2.1,0,3.2,0.9,3.2,2.6c0.1,1.7-1.2,2.8-3.2,2.8c-7.4,0-14.8,0-22.2,0
		c-2.1,0-3.3-1.2-3.2-2.9c0.1-1.6,1.3-2.6,3.2-2.6C29.5,66.7,33.2,66.7,37,66.7z"/>
	<path class="st0" d="M33.9,52.6c-2.8,0-5.7,0-8.5,0c-1.8,0-3-1.2-3-2.7c0-1.5,1.2-2.7,3-2.7c5.7,0,11.3,0,17,0c1.9,0,3,1.1,3,2.6
		c0,1.6-1.1,2.6-3,2.7C39.6,52.6,36.7,52.6,33.9,52.6z"/>
	<path class="st0" d="M68.6,54.7c1.8,0,3.3,0,4.8,0c1.9,0.1,3,1,3,2.7c0,1.6-1.1,2.6-3,2.7c-2.4,0.1-4.9,0.1-7.3,0
		c-2,0-2.9-0.9-3-2.9c-0.1-2.3-0.1-4.5,0-6.7c0.1-1.9,1.2-2.9,2.8-2.9s2.5,1.1,2.6,3C68.6,51.9,68.6,53.2,68.6,54.7z"/>
</g>
</svg>
