<?xml version="1.0" encoding="utf-8"?>
<!-- Generator: Adobe Illustrator 23.0.3, SVG Export Plug-In . SVG Version: 6.00 Build 0)  -->
<svg version="1.1" id="Layer_1" xmlns="http://www.w3.org/2000/svg" xmlns:xlink="http://www.w3.org/1999/xlink" x="0px" y="0px"
	 viewBox="0 0 100 100" style="enable-background:new 0 0 100 100;" xml:space="preserve">
<style type="text/css">
	.st0{fill:#243A76;}
	.st1{fill:none;stroke:#243A76;stroke-width:4;stroke-miterlimit:10;}
</style>
<g>
	<path class="st0" d="M77.2,46.4c-2.4-0.6-1.2-1.7-3.5-2.6c-0.6-0.2-1-1.4-1.1-2.1c-0.1-5.7,0-9.6,0-15.3c0-0.9,0-1.7,0-2.8
		c-2.9,0-5.7,0-8.9,0c0,4.2,0,6.4,0,10.8c-11.8,0-23.3,0-35.1,0c0-4.3,0-6.6,0-10.9c-3,0-5.9,0-8.8,0c0,21.8,0,40.7,0,62.9
		c2.5,0,5,0,7.4,0c3.8,0,7.7,0,11.5,0c0.7,0,1.7,0.5,2,1c1.8,2.4,3.6,1,5.1,3.3c-0.5,0-1.1,0.1-1.6,0.1c-7,0-13.9,0-20.9,0
		c-5.4,0-8.5-3.1-8.5-8.5c0-19,0-38.1,0-57.1c0-5.4,3.2-8.5,8.5-8.6c3.3,0,6.7,0,10,0c1.1,0,1.7-0.2,2.3-1.3c2.2-4,5.8-6.3,10.5-6.3
		s8.2,2.2,10.4,6.4c0.5,1,1.1,1.4,2.2,1.3c3.5-0.1,7.1-0.1,10.6,0c4.1,0.1,7.7,2.8,7.8,6.6C77.4,31,77.2,38.6,77.2,46.4z M46.1,24.6
		c2.2,0,3.9-1.9,3.9-4s-1.8-3.8-3.9-3.9c-2.1,0-4,1.8-4,3.9C42.2,22.8,44,24.6,46.1,24.6z"/>
	<path class="st1" d="M45,71.3c0-11.4,9.1-20.5,20.6-20.5c11.7,0,20.8,9.1,20.8,20.7c0,11.5-9.2,20.6-20.7,20.6
		C54,92.2,45,83,45,71.3z"/>
</g>
<path class="st0" d="M73.1,82.5c1.5-1.1,2.6-2.1,4.1-3.1c-2.6-2.6-5.2-4.8-7.4-7.3c-0.9-1-1.6-2.6-1.7-4c-0.2-3.6-0.1-7.3-0.1-11
	c-1.7,0-3.2,0-4.8,0c0,4.9,0,9.8,0,14.5c0,0.6,0.5,1.2,0.9,1.7C67.2,76.5,70.3,79.5,73.1,82.5z"/>
</svg>
