<?xml version="1.0" encoding="utf-8"?>
<!-- Generator: Adobe Illustrator 23.0.3, SVG Export Plug-In . SVG Version: 6.00 Build 0)  -->
<svg version="1.1" id="Layer_1" xmlns="http://www.w3.org/2000/svg" xmlns:xlink="http://www.w3.org/1999/xlink" x="0px" y="0px"
	 viewBox="0 0 100 100" style="enable-background:new 0 0 100 100;" xml:space="preserve">
<style type="text/css">
	.st0{fill:#243A76;stroke:#243A76;stroke-width:0.5;stroke-linecap:round;stroke-linejoin:round;stroke-miterlimit:10;}
</style>
<g>
	<path class="st0" d="M65.7,18.8c-15.6,0-31.2,0-46.7,0c0,20.7,0,41.4,0,62.2c0.2,0,0.5,0,0.7,0c6.6,0,13.2,0,19.8,0
		c1.3,0,2.2,0.7,2.2,1.9c0,0.9-0.6,1.7-1.5,1.8c-0.3,0-0.6,0.1-0.8,0.1c-6.6,0-13.3,0-19.9,0c-0.6,0-1.3-0.1-1.9-0.3
		c-1.5-0.6-2.2-1.8-2.2-3.5c0-2.9,0-5.8,0-8.6c0-17.7,0-35.5,0-53.2c0-1.9,0.9-3.3,2.6-3.8c0.4-0.1,0.9-0.2,1.3-0.2
		c15.5,0,31,0,46.5,0c2.3,0,3.9,1.6,3.9,3.9c0,3.3,0,6.7,0,10c0,0.9-0.6,1.7-1.5,1.9c-0.8,0.2-1.7-0.3-2-1.1
		c-0.1-0.3-0.2-0.7-0.2-1.1c0-3,0-6.1,0-9.1C65.7,19.4,65.7,19.1,65.7,18.8z"/>
	<path class="st0" d="M84.9,63.2c0,12-9.7,21.7-21.6,21.7c-12,0-21.7-9.7-21.7-21.7c0-11.9,9.7-21.6,21.7-21.6
		C75.2,41.6,84.9,51.3,84.9,63.2z M63.2,45.4c-9.7,0-17.8,7.8-17.9,17.7c-0.1,10,7.9,18.1,17.8,18.1c9.9,0,18-8,18-17.8
		C81.1,53.4,73.1,45.4,63.2,45.4z"/>
	<path class="st0" d="M42.5,28.7c5.2,0,10.4,0,15.6,0c1.2,0,2,0.8,1.9,2c0,1-0.8,1.8-1.9,1.8c-2.4,0-4.8,0-7.2,0c-8,0-15.9,0-23.9,0
		c-0.3,0-0.5,0-0.8-0.1c-0.9-0.2-1.5-1.2-1.4-2c0.1-0.9,0.9-1.6,1.9-1.6C32,28.7,37.2,28.7,42.5,28.7C42.5,28.7,42.5,28.7,42.5,28.7
		z"/>
	<path class="st0" d="M33.6,46c-2.2,0-4.4,0-6.5,0c-0.7,0-1.4-0.2-1.8-0.8c-0.4-0.6-0.5-1.3-0.1-1.9c0.4-0.7,1-1,1.8-1
		c1.3,0,2.7,0,4,0c3.1,0,6.2,0,9.4,0c0.8,0,1.5,0.3,1.8,1.1c0.3,0.7,0.2,1.4-0.3,2c-0.4,0.5-1.1,0.7-1.7,0.7
		C37.9,46,35.7,46,33.6,46z"/>
	<path class="st0" d="M30.9,59.5c-1.4,0-2.7,0-4.1,0c-1.2,0-2-0.8-2-1.9c0-1.1,0.9-1.9,2-1.9c2.8,0,5.5,0,8.3,0c1.2,0,2,0.8,2,1.9
		c0,1.1-0.8,1.8-2,1.9C33.7,59.5,32.3,59.5,30.9,59.5C30.9,59.5,30.9,59.5,30.9,59.5z"/>
	<path class="st0" d="M31,69.3c1.4,0,2.8,0,4.2,0c1.1,0,1.9,0.8,1.9,1.8c0,1.1-0.8,1.9-1.9,1.9c-2.8,0-5.6,0-8.4,0
		c-1.1,0-1.9-0.9-1.9-1.9c0-1,0.8-1.8,1.9-1.9C28.2,69.3,29.6,69.3,31,69.3C31,69.3,31,69.3,31,69.3z"/>
	<path class="st0" d="M60.1,63.5c-3.8-3.2-6.3-6.9-5.7-12c6,0,11.9,0,17.9,0c0.5,3.4-0.2,7.5-5.6,12c3.7,3.1,6.3,6.8,5.7,12
		c-6,0-11.9,0-18,0C53.8,70.4,56.3,66.7,60.1,63.5z M63.4,61.3c2.2-1.6,4.1-3.4,5-6.1c-3.4,0-6.7,0-10,0
		C58.7,56.9,61,59.7,63.4,61.3z M68.4,71.8c-0.1-0.3-0.2-0.5-0.2-0.7c-1-2.2-2.6-3.8-4.5-5.2c-0.1-0.1-0.4,0-0.6,0.1
		c-1.3,0.9-2.5,2-3.4,3.3c-0.5,0.7-0.9,1.6-1.4,2.5C61.7,71.8,65,71.8,68.4,71.8z"/>
</g>
</svg>
