<?xml version="1.0" encoding="utf-8"?>
<!-- Generator: Adobe Illustrator 23.0.3, SVG Export Plug-In . SVG Version: 6.00 Build 0)  -->
<svg version="1.1" id="Layer_1" xmlns="http://www.w3.org/2000/svg" xmlns:xlink="http://www.w3.org/1999/xlink" x="0px" y="0px"
	 viewBox="0 0 100 100" style="enable-background:new 0 0 100 100;" xml:space="preserve">
<style type="text/css">
	.st0{fill:#243A76;stroke:#243A76;stroke-width:1.5;stroke-linecap:round;stroke-linejoin:round;stroke-miterlimit:10;}
</style>
<g>
	<path class="st0" d="M65.8,32.9c0,1.8,0,3.5,0,5.2c0.2,0,0.3,0,0.5,0c1.8,0,3.7,0,5.5,0c1.4,0,2.5,0.9,2.6,2.3
		c0.2,1.9,0.3,3.8,0.4,5.7c0.2,3.6,0.5,7.2,0.7,10.8c0.2,2.6,0.3,5.3,0.5,7.9c0.2,3.7,0.5,7.4,0.7,11.1c0.2,3,0.4,6,0.6,9
		c0.1,1.7-1,2.8-2.7,2.8c-15.5,0-30.9,0-46.4,0c-1.7,0-2.8-1.2-2.6-2.9c0.2-2.3,0.3-4.6,0.5-6.8c0.2-3.7,0.5-7.3,0.7-11
		c0.2-2.7,0.3-5.5,0.5-8.2c0.2-3.6,0.5-7.1,0.7-10.7c0.2-2.5,0.3-5.1,0.5-7.6c0.1-1.4,1.2-2.4,2.6-2.4c1.9,0,3.8,0,5.7,0
		c0.4,0,0.5-0.1,0.5-0.5c0-1.4,0-2.9,0-4.3c0-0.4-0.1-0.5-0.5-0.5c-2.2,0-4.4,0.1-6.5-0.1c-5.4-0.4-9.1-3.2-11.2-8.2
		c-0.7-1.8-0.9-3.7-0.8-5.6c0.1-1.6,1.4-2.9,3-2.9c0.3,0,0.6,0,0.9,0c19.8,0,39.5,0,59.3,0c2,0,3.3,1.3,3.3,3.3
		c0.1,3.3-0.8,6.3-3,8.9c-2.6,3-6,4.5-10,4.6c-1.8,0-3.7,0-5.5,0C66.2,32.9,66,32.9,65.8,32.9z M74.4,77.9c0-0.4-0.1-0.8-0.1-1.3
		c-0.2-2.7-0.3-5.5-0.5-8.2c-0.2-3.2-0.4-6.5-0.6-9.7c-0.2-2.7-0.3-5.3-0.5-8c-0.2-3.2-0.4-6.3-0.6-9.5c0-0.6,0-0.6-0.6-0.6
		c-13.2,0-26.3,0-39.5,0c-0.2,0-0.4,0-0.5,0c-0.3,0-0.4,0.1-0.4,0.4c-0.1,2.2-0.3,4.4-0.4,6.6c-0.2,2.7-0.3,5.4-0.5,8.1
		c-0.2,3.6-0.5,7.2-0.7,10.8c-0.2,3.6-0.5,7.1-0.7,10.7c0,0.2,0,0.4,0,0.7C43.9,77.9,59.1,77.9,74.4,77.9z M51.5,18.7
		c-9.8,0-19.6,0-29.4,0c-0.2,0-0.4,0-0.7,0c-0.5,0-0.7,0.3-0.7,0.7c0,0.3,0,0.6,0,0.9c0.1,5.6,4.6,10.2,10.3,10.2
		c13.7,0,27.4,0,41,0c1.9,0,3.7-0.5,5.4-1.5c3.3-2.2,4.9-5.3,4.9-9.2c0-0.8-0.2-1-1-1C71.4,18.7,61.4,18.7,51.5,18.7z M74.6,80.4
		c-15.4,0-30.7,0-46.1,0c-0.1,1.6-0.2,3.2-0.3,4.8c15.6,0,31.2,0,46.7,0C74.8,83.6,74.7,82.1,74.6,80.4z M39.8,33c0,1.7,0,3.4,0,5.2
		c7.8,0,15.6,0,23.5,0c0-1.7,0-3.5,0-5.2C55.4,33,47.6,33,39.8,33z"/>
	<path class="st0" d="M51.6,44.6c8.2,0,14.7,6.7,14.7,14.9c0,8-6.7,14.6-14.7,14.6c-8.3-0.1-14.8-6.6-14.7-15
		C36.9,51.1,43.6,44.5,51.6,44.6z M43.8,49.9c0.2,0.1,0.4,0.2,0.5,0.4c0.6,0.6,1.3,1.3,1.9,1.9c0.4,0.4,0.5,1,0.2,1.5
		c-0.2,0.5-0.7,0.7-1.3,0.6c-0.3-0.1-0.6-0.3-0.8-0.5c-0.7-0.7-1.5-1.4-2.2-2.1c-1.2,1.2-2.7,4.8-2.6,6.3c0.2,0,0.4,0,0.6,0
		c0.8,0,1.6,0,2.5,0c0.8,0,1.3,0.5,1.3,1.2c0,0.7-0.6,1.3-1.4,1.3c-0.9,0-1.8,0-2.7,0c-0.1,0-0.3,0-0.4,0c-0.1,1.7,1.5,5.4,2.8,6.4
		c0.7-0.7,1.4-1.5,2.1-2.3c0.5-0.5,1.3-0.5,1.8,0c0.5,0.5,0.5,1.3-0.1,1.8c-0.3,0.3-0.7,0.7-1,1c-0.4,0.4-0.8,0.8-1.2,1.2
		c1.3,1.3,4.8,2.8,6.4,2.6c0-0.1,0-0.3,0-0.4c0-0.9,0-1.9,0-2.8c0-0.7,0.5-1.2,1.2-1.2c0.7,0,1.2,0.5,1.2,1.2c0,0.4,0,0.7,0,1.1
		c0,0.7,0,1.4,0,2.2c1.5,0.2,5.5-1.5,6.4-2.7c-0.7-0.7-1.5-1.5-2.2-2.2c-0.5-0.6-0.5-1.3,0-1.8c0.5-0.5,1.3-0.5,1.8,0.1
		c0.5,0.5,1.1,1.1,1.6,1.6c0.2,0.2,0.4,0.4,0.6,0.7c1.5-2,2.4-4,2.7-6.5c-0.2,0-0.4,0-0.5,0c-0.9,0-1.8,0-2.7,0
		c-0.7,0-1.3-0.6-1.2-1.3c0-0.7,0.5-1.2,1.3-1.2c0.9,0,1.8,0,2.7,0c0.2,0,0.3,0,0.6,0c-0.3-2.4-1.2-4.5-2.8-6.5
		c-0.8,0.8-1.4,1.6-2.2,2.3c-0.6,0.6-1.4,0.6-1.9,0c-0.5-0.5-0.5-1.3,0.1-1.8c0.4-0.4,0.8-0.8,1.2-1.2c0.3-0.3,0.7-0.6,1-1
		c-1.9-1.5-4-2.4-6.4-2.7c0,0.2,0,0.3,0,0.5c0,0.8,0,1.7,0,2.5c0,0.2,0,0.5-0.1,0.7c-0.2,0.6-0.8,0.9-1.4,0.8c-0.6-0.1-1-0.6-1-1.2
		c0-0.9,0-1.9,0-2.8c0-0.1,0-0.3,0-0.5C47.9,47.4,45.8,48.3,43.8,49.9z"/>
	<path class="st0" d="M52.8,57.2c0,0.7,0,1.4,0,2c0,0.8-0.5,1.3-1.2,1.3c-0.7,0-1.3-0.5-1.3-1.3c0-1.4,0-2.8,0-4.2
		c0-0.8,0.5-1.3,1.2-1.3c0.7,0,1.3,0.5,1.3,1.3C52.8,55.7,52.8,56.4,52.8,57.2C52.8,57.2,52.8,57.2,52.8,57.2z"/>
</g>
</svg>
