<?xml version="1.0" encoding="utf-8"?>
<!-- Generator: Adobe Illustrator 23.0.3, SVG Export Plug-In . SVG Version: 6.00 Build 0)  -->
<svg version="1.1" id="Layer_1" xmlns="http://www.w3.org/2000/svg" xmlns:xlink="http://www.w3.org/1999/xlink" x="0px" y="0px"
	 viewBox="0 0 100 100" style="enable-background:new 0 0 100 100;" xml:space="preserve">
<style type="text/css">
	.st0{fill:#243A76;stroke:#243A76;stroke-width:1.8419;stroke-linecap:round;stroke-linejoin:round;stroke-miterlimit:10;}
</style>
<g>
	<path class="st0" d="M50,15.1C69.3,15,84.9,30.7,85,49.9c0,19.4-15.5,35-34.8,35.1s-35-15.5-35.1-34.9C15,30.7,30.6,15.1,50,15.1z
		 M82.1,50c0.1-17.6-14.5-32-32-32.1c-17.7,0-32.2,14.4-32.2,32c0,17.6,14.4,32.1,32,32.1C67.6,82.1,82.1,67.8,82.1,50z"/>
	<path class="st0" d="M69,68.4c0.1,1.4,0,2.5-1.4,2.6c-1.4,0.1-1.5-0.9-1.6-1.9c-0.5-8.5-6.9-15-15.3-15.5
		c-8.1-0.5-15.2,5.5-16.6,13.7c-0.1,0.6,0.1,1.5-0.2,2.1c-0.3,0.6-0.8,1.5-1.4,1.6c-1,0.2-1.5-0.6-1.5-1.7c0.1-4.1,1.4-7.7,3.8-11
		c4.6-6.2,12.4-8.9,19.9-7.1c7.4,1.8,12.9,8,14,15.7C68.8,67.5,68.9,68.1,69,68.4z"/>
	<path class="st0" d="M60,37.7c0,5.8-4.4,10.4-9.9,10.4s-9.9-4.7-9.9-10.6c0-5.7,4.5-10.4,10-10.3C55.5,27.2,60,31.9,60,37.7z
		 M57,37.6c0-4.2-3-7.6-6.9-7.6c-4,0-7,3.2-7,7.5c0,4.3,3.1,7.7,7,7.7C54,45.2,57,41.8,57,37.6z"/>
</g>
</svg>
