<?xml version="1.0" encoding="utf-8"?>
<!-- Generator: Adobe Illustrator 23.0.3, SVG Export Plug-In . SVG Version: 6.00 Build 0)  -->
<svg version="1.1" id="Layer_1" xmlns="http://www.w3.org/2000/svg" xmlns:xlink="http://www.w3.org/1999/xlink" x="0px" y="0px"
	 viewBox="0 0 100 100" style="enable-background:new 0 0 100 100;" xml:space="preserve">
<style type="text/css">
	.st0{fill:#ACACAC;}
</style>
<g>
	<path class="st0" d="M87.45,69.28c-0.52,1.52-1.63,2.08-3.16,1.99c-0.22-0.01-0.44,0.02-0.66-0.01c-0.45-0.05-0.58,0.18-0.76,0.57
		c-0.53,1.16-1.02,2.39-1.78,3.38c-2.57,3.35-6.05,4.78-10.19,4.06c-4.19-0.72-6.99-3.27-8.39-7.31c-0.18-0.51-0.37-0.72-0.94-0.72
		c-6.27,0.02-12.53,0.02-18.8,0c-0.52,0-0.75,0.15-0.9,0.67c-0.86,2.84-2.67,4.94-5.27,6.31c-5.83,3.08-13.08,0.08-15.05-6.22
		c-0.19-0.62-0.47-0.76-1.06-0.77c-0.99,0-2.01,0.02-2.96-0.21c-2.93-0.72-4.69-3.06-4.71-6.12c-0.02-3.33,0-6.65-0.01-9.98
		c0-2.72,1.21-4.68,3.63-5.9c1.43-0.72,2.85-1.45,4.3-2.14c0.47-0.22,0.68-0.53,0.8-1.01c0.77-3.11,1.49-6.23,2.36-9.31
		c1.05-3.73,4.67-6.85,8.44-7.05c3.88-0.21,7.77-0.13,11.65-0.1c1.52,0.01,2.43,1.08,2.47,2.6c0.01,0.48,0,0.95,0,1.44
		c1.96,0,3.82,0,5.76,0c0-0.34,0-0.62,0-0.91c0-2.84-0.01-5.68,0.01-8.53c0.01-1.86,1-2.83,2.85-2.83c5.22-0.01,10.44-0.01,15.67,0
		c1.85,0,2.84,0.99,2.84,2.84c0,2.87,0,5.73,0,8.6c0,0.26,0,0.53,0,0.88c0.32,0,0.58,0,0.84,0c1.48,0,2.96-0.01,4.44,0
		c1.98,0.01,2.9,0.93,2.9,2.9c0,4.2,0,8.4,0,12.61c0,0.28,0,0.56,0,0.88c0.89,0,1.67,0.05,2.44-0.01c1.53-0.11,2.63,0.45,3.22,1.9
		C87.45,57.62,87.45,63.45,87.45,69.28z M46.5,66.23c0.25,0.02,0.48,0.05,0.72,0.05c4.78,0,9.57,0,14.35,0.01
		c0.51,0,0.75-0.12,0.92-0.65c1.37-4.41,5.32-7.49,9.93-7.53c4.25-0.03,7.49,1.88,9.62,5.59c0.11,0.19,0.21,0.38,0.39,0.72
		c0-3.26,0-6.36,0-9.52c-11.94,0-23.9,0-35.92,0C46.5,58.7,46.5,62.43,46.5,66.23z M40.67,50.76c-5.32,0-10.64-0.01-15.96,0.01
		c-0.39,0-0.82,0.11-1.17,0.28c-1.6,0.76-3.17,1.58-4.76,2.35c-0.69,0.33-1.01,0.81-1.01,1.59c0.03,3.26,0.01,6.51,0.01,9.77
		c0,1.1,0.39,1.5,1.48,1.51c0.63,0.01,1.38,0.19,1.85-0.09c0.41-0.24,0.49-1.03,0.74-1.57c1.9-4.01,5.04-6.36,9.5-6.49
		c4.31-0.12,7.59,1.84,9.73,5.63c0.09,0.17,0.19,0.33,0.37,0.64c0-4.62,0-9.08,0-13.64C41.15,50.76,40.91,50.76,40.67,50.76z
		 M46.5,49.84c4.63,0,9.25,0,13.91,0c0-3.77,0-7.51,0-11.31c-4.64,0-9.23,0-13.91,0C46.5,42.32,46.5,46.06,46.5,49.84z M41.47,45.77
		c0-3.78,0-7.53,0-11.3c-0.11-0.03-0.2-0.08-0.29-0.08c-2.67,0.01-5.34-0.06-8.01,0.06c-2.13,0.09-3.73,1.27-4.38,3.28
		c-0.85,2.62-1.42,5.33-2.13,8.04C31.64,45.77,36.53,45.77,41.47,45.77z M65.46,38.52c0,3.78,0,7.53,0,11.33c3.74,0,7.49,0,11.3,0
		c0-3.74,0-7.51,0-11.33C72.97,38.52,69.24,38.52,65.46,38.52z M25.98,68.76c-0.02,3.09,2.57,5.7,5.7,5.73
		c3.08,0.03,5.7-2.58,5.73-5.7c0.03-3.08-2.59-5.71-5.7-5.73C28.62,63.03,26,65.64,25.98,68.76z M72.89,74.46
		c3.48-0.17,5.61-3.04,5.47-5.91c-0.18-3.51-3.05-5.6-5.91-5.47c-3.47,0.16-5.65,3.12-5.45,5.98
		C67.13,72.25,69.88,74.61,72.89,74.46z M68.61,26.21c-3.78,0-7.53,0-11.34,0c0,2.42,0,4.81,0,7.25c3.78,0,7.53,0,11.34,0
		C68.61,31.01,68.61,28.63,68.61,26.21z"/>
</g>
</svg>
