<?xml version="1.0" encoding="utf-8"?>
<!-- Generator: Adobe Illustrator 23.0.3, SVG Export Plug-In . SVG Version: 6.00 Build 0)  -->
<svg version="1.1" id="Layer_1" xmlns="http://www.w3.org/2000/svg" xmlns:xlink="http://www.w3.org/1999/xlink" x="0px" y="0px"
	 viewBox="0 0 78 78" style="enable-background:new 0 0 78 78;" xml:space="preserve">
<style type="text/css">
	.st0{fill:#243A76;}
	.st1{fill:#FBD23C;}
</style>
<circle class="st0" cx="39" cy="39" r="38.2"/>
<g>
	<path class="st1" d="M45.7,23H35c-5.1,0-8,2.9-8,8v9.3c0,0.7,0.6,1.3,1.3,1.3s1.3-0.6,1.3-1.3V31c0-3.6,1.7-5.3,5.3-5.3h8.9
		c-0.1,0.2-0.2,0.4-0.2,0.7V29c0,2.2,1.8,4,4,4h2.7c0.2,0,0.5-0.1,0.7-0.2v11.5c0,3.6-1.7,5.3-5.3,5.3H39c-0.7,0-1.3,0.6-1.3,1.3
		s0.6,1.3,1.3,1.3h6.7c5.1,0,8-2.9,8-8V31C53.6,25.9,50.7,23,45.7,23z M47.7,30.3c-0.7,0-1.3-0.6-1.3-1.3v-2.7
		c0-0.2-0.1-0.4-0.2-0.6c3.1,0.2,4.7,1.7,4.8,4.8c-0.2-0.1-0.4-0.2-0.6-0.2H47.7z"/>
	<g>
		<path class="st1" d="M29.7,55c-0.7,0-1.3-0.6-1.3-1.3V51h-2.7c-0.7,0-1.3-0.6-1.3-1.3s0.6-1.3,1.3-1.3h2.7v-2.7
			c0-0.7,0.6-1.3,1.3-1.3S31,45,31,45.7v2.7h2.7c0.7,0,1.3,0.6,1.3,1.3S34.4,51,33.7,51H31v2.7C31,54.4,30.4,55,29.7,55z"/>
	</g>
</g>
</svg>
