<?xml version="1.0" encoding="utf-8"?>
<!-- Generator: Adobe Illustrator 23.0.3, SVG Export Plug-In . SVG Version: 6.00 Build 0)  -->
<svg version="1.1" id="Layer_1" xmlns="http://www.w3.org/2000/svg" xmlns:xlink="http://www.w3.org/1999/xlink" x="0px" y="0px"
	 viewBox="0 0 24 22" style="enable-background:new 0 0 24 22;" xml:space="preserve">
<style type="text/css">
	.st0{fill-rule:evenodd;clip-rule:evenodd;fill:#243A76;}
</style>
<g>
	<path class="st0" d="M2.7,2.1C3.8,1,5.3,0.4,7,0.4h10c1.7,0,3.2,0.6,4.3,1.7C22.4,3.2,23,4.7,23,6.4v6c0,1.7-0.6,3.2-1.7,4.3
		s-2.6,1.7-4.3,1.7h-3.7l-4.2,2.8c-1.3,0.9-3.1,0-3.1-1.6v-1.2c-1.3-0.2-2.5-0.7-3.3-1.6C1.6,15.7,1,14.2,1,12.4v-6
		C1,4.7,1.6,3.2,2.7,2.1z M4.1,3.5C3.4,4.2,3,5.2,3,6.4v6c0,1.3,0.4,2.3,1.1,2.9C4.7,16,5.7,16.4,7,16.4c0.6,0,1,0.4,1,1v2.1l4.4-3
		c0.2-0.1,0.4-0.2,0.6-0.2h4c1.3,0,2.3-0.4,2.9-1.1s1.1-1.6,1.1-2.9v-6C21,5,20.6,4,19.9,3.4s-1.6-1-2.9-1H7
		C5.7,2.4,4.7,2.8,4.1,3.5z"/>
	<path class="st0" d="M11,12.8c0-0.6,0.4-1,1-1l0,0c0.6,0,1,0.4,1,1s-0.4,1-1,1l0,0C11.4,13.8,11,13.3,11,12.8z M9.3,7.5
		c0-1.5,1.2-2.7,2.7-2.7s2.7,1.2,2.7,2.7c0,1.2-0.8,1.8-1.3,2.1c-0.2,0.1-0.3,0.2-0.3,0.3C13,10,13,10,13,10.2v0.2c0,0.6-0.4,1-1,1
		s-1-0.4-1-1v-0.2C11,9,11.8,8.4,12.3,8l0,0l0,0c0.2-0.1,0.3-0.2,0.3-0.3c0,0,0.1-0.1,0.1-0.2c0-0.4-0.3-0.7-0.7-0.7
		s-0.7,0.3-0.7,0.7c0,0.6-0.4,1-1,1C9.8,8.5,9.3,8.1,9.3,7.5z"/>
</g>
</svg>
