<?xml version="1.0" encoding="utf-8"?>
<!-- Generator: Adobe Illustrator 23.0.3, SVG Export Plug-In . SVG Version: 6.00 Build 0)  -->
<svg version="1.1" id="Layer_1" xmlns="http://www.w3.org/2000/svg" xmlns:xlink="http://www.w3.org/1999/xlink" x="0px" y="0px"
	 viewBox="0 0 100 104" style="enable-background:new 0 0 100 104;" xml:space="preserve">
<style type="text/css">
	.st0{fill:#FBD23C;}
</style>
<g>
	<path class="st0" d="M37.95,72.23c0.47,6.65-1.45,7.85-7.78,7.87c-6.86,0.03-8.23-1.29-8.19-8.23c0.03-6.26,1.18-7.86,7.91-7.83
		C36.91,64.08,38.34,65.18,37.95,72.23z M30.03,68.04c-4.74,0.07-4.04-0.62-4.05,4.02c-0.01,4.65-0.6,4.06,4.04,4.05
		c4.65-0.01,3.98,0.69,4.02-4.04C34.08,68.04,34.05,68.04,30.03,68.04z"/>
	<path class="st0" d="M29.9,39.95c-6.64,0.45-7.91-1.3-7.92-7.94c-0.02-6.66,1.43-8.04,7.97-8.02c6.72,0.01,8.12,1.2,8.09,8.08
		C38,38.81,36.91,40.36,29.9,39.95z M34.05,32.02c0-4.04,0-4.07-4.04-4.04c-4.63,0.03-4.04-0.59-4.03,4.07
		c0.01,4.63-0.69,3.96,4.06,4C34.05,36.08,34.05,36.05,34.05,32.02z"/>
	<path class="st0" d="M69.96,39.95c-6.67,0.4-7.9-1.1-7.92-7.89c-0.02-6.88,1.39-8.06,8.1-8.07c6.53-0.01,7.99,1.36,7.96,8.03
		C78.07,38.63,76.94,40.41,69.96,39.95z M70.07,36.05c4.04,0,4.07,0,4.04-4.04c-0.03-4.63,0.59-4.04-4.07-4.03
		c-4.63,0.01-3.96-0.69-4,4.06C66,36.05,66.03,36.05,70.07,36.05z"/>
	<path class="st0" d="M10.1,25.36c-0.84-9.11,3.92-14.1,13.34-13.28c1.41,0.12,2.84,0.04,4.26,0.01c1.37-0.02,2.25,0.6,2.23,1.97
		c-0.01,1.39-0.96,1.94-2.29,1.93c-2.42-0.02-4.83-0.03-7.25,0c-3.86,0.06-6.33,2.56-6.38,6.45c-0.03,2.27-0.03,4.55,0,6.82
		c0.02,1.45-0.32,2.67-2.01,2.64c-1.7-0.03-1.96-1.3-1.91-2.72C10.13,27.92,10.1,26.64,10.1,25.36z"/>
	<path class="st0" d="M76.79,12.19c1.63,0,3.29-0.19,4.89,0.04c4.65,0.66,8.15,4.7,8.28,9.44c0.07,2.63,0,5.26,0.03,7.88
		c0.02,1.44-0.52,2.42-2.05,2.37c-1.41-0.04-1.88-1.04-1.87-2.35c0.02-2.42,0.04-4.83,0-7.25c-0.07-3.75-2.56-6.25-6.31-6.31
		c-2.41-0.04-4.83-0.03-7.25,0c-1.31,0.01-2.31-0.45-2.36-1.86c-0.06-1.52,0.92-2.09,2.36-2.05c1.42,0.03,2.84,0.01,4.26,0.01
		C76.79,12.13,76.79,12.16,76.79,12.19z"/>
	<path class="st0" d="M23.24,91.84c-1.7,0-3.45,0.24-5.1-0.05c-4.62-0.8-7.91-4.75-8.03-9.43c-0.06-2.56,0.01-5.11-0.03-7.67
		c-0.02-1.38,0.34-2.5,1.89-2.53c1.69-0.03,2.06,1.16,2.03,2.61c-0.04,2.2-0.02,4.4-0.01,6.61c0.04,4.26,2.48,6.67,6.79,6.7
		c2.06,0.01,4.12,0.03,6.18-0.01c1.44-0.02,2.9,0.06,2.95,1.91c0.05,1.85-1.35,2.06-2.83,2.01c-1.28-0.04-2.56-0.01-3.84-0.01
		C23.24,91.94,23.24,91.89,23.24,91.84z"/>
	<path class="st0" d="M76.52,91.99c-1.28,0-2.56-0.03-3.84,0.01c-1.38,0.05-2.5-0.35-2.52-1.9c-0.03-1.69,1.18-2.04,2.63-2.02
		c2.06,0.04,4.12,0.01,6.18,0.01c4.75-0.01,7.1-2.33,7.11-7.02c0.01-2.2,0.02-4.4,0-6.61c-0.01-1.33,0.52-2.28,1.92-2.3
		c1.37-0.02,2,0.84,1.99,2.21c-0.03,2.84,0.08,5.69-0.06,8.52c-0.23,4.79-4.34,8.8-9.15,9.05c-1.42,0.07-2.84,0.01-4.26,0.01
		C76.52,91.97,76.52,91.98,76.52,91.99z"/>
	<path class="st0" d="M62.1,76.06c1.35,0,2.48,0,3.72,0c0.51-1.44-0.36-3.88,2.21-3.88c2.51,0,1.68,2.3,2.13,3.81
		c1.26,0,2.5,0,3.85,0c0.04-0.7-0.13-1.44,0.15-1.91c0.45-0.74,1.2-1.3,1.83-1.94c0.67,0.67,1.69,1.24,1.93,2.04
		c0.33,1.11,0.1,2.39,0.09,3.6c-0.02,1.47-0.78,2.24-2.25,2.24C70.57,80.02,65.39,80.02,60.2,80c-0.4,0-0.85-0.13-1.18-0.34
		c-1.33-0.87-1.46-6.15-0.21-7.13c1.06-0.83,2.73-0.29,3.04,1.05C62.03,74.32,62.02,75.11,62.1,76.06z"/>
	<path class="st0" d="M54.16,44.16c0,1.38,0,2.56,0,3.8c0.68,0.04,1.37-0.12,1.76,0.16c0.77,0.53,1.37,1.31,2.05,1.99
		c-0.71,0.61-1.38,1.69-2.14,1.76c-2.53,0.22-5.11,0.23-7.64-0.01c-0.75-0.07-1.4-1.19-2.09-1.83c0.64-0.65,1.19-1.43,1.94-1.9
		c0.47-0.3,1.23-0.13,1.98-0.18c0-1.25,0-2.42,0-3.91c-1.73,0-3.4,0.01-5.08,0c-1.45-0.01-2.85-0.26-2.78-2.11
		c0.06-1.75,1.46-1.82,2.8-1.82c3.33,0.01,6.67,0,10,0c1.38,0,2.92-0.05,2.98,1.85c0.06,1.85-1.38,2.05-2.82,2.08
		C54.83,44.06,54.55,44.12,54.16,44.16z"/>
	<path class="st0" d="M53.94,64.14c0-1.47,0-2.7,0-4.04c-0.72-0.04-1.48,0.13-1.93-0.17c-0.72-0.46-1.73-1.25-1.72-1.88
		c0.01-0.66,0.98-1.7,1.7-1.88c1.27-0.31,2.74-0.33,3.99,0c0.78,0.21,1.83,1.24,1.9,1.98c0.24,2.53,0.09,5.09,0.09,7.64
		c0,1.51-0.83,2.21-2.26,2.22c-3.83,0.03-7.65,0.03-11.48-0.01c-1.31-0.01-2.38-0.74-2.03-2.08c0.19-0.73,1.34-1.67,2.11-1.71
		C47.48,64.03,50.66,64.14,53.94,64.14z"/>
	<path class="st0" d="M54.06,27.97c-3.2,0-6.16-0.02-9.12,0.01c-1.46,0.01-2.86-0.13-2.8-2.02c0.05-1.72,1.36-1.9,2.75-1.89
		c3.48,0.02,6.95,0.05,10.43-0.01c1.88-0.03,2.74,0.76,2.69,2.67c-0.06,2.27-0.05,4.54-0.01,6.81c0.03,1.43-0.54,2.48-2,2.44
		c-1.46-0.04-1.97-1.14-1.94-2.54C54.09,31.74,54.06,30.04,54.06,27.97z"/>
	<path class="st0" d="M74.23,64.07c-0.55,3.97-0.55,3.97-4.57,3.97c-1.78,0-3.55,0.02-5.33-0.01c-1.45-0.03-2.23-0.75-2.2-2.26
		c0.03-1.14-0.22-2.34,0.08-3.39c0.24-0.84,0.99-1.97,1.72-2.14c1.28-0.31,2.03,0.69,2.1,2.04c0.03,0.55,0.08,1.1,0.12,1.76
		c1.27,0,2.45,0,3.75,0c0.08-0.75,0.08-1.46,0.26-2.12c0.14-0.51,0.49-1.36,0.78-1.38c2.07-0.11,4.16-0.13,6.23,0.04
		c0.32,0.03,0.87,1.23,0.74,1.74c-0.16,0.61-0.85,1.24-1.47,1.54C75.84,64.13,75.05,64.01,74.23,64.07z"/>
	<path class="st0" d="M46.1,76c-0.07,1.04,0.12,1.88-0.21,2.4c-0.43,0.67-1.29,1.5-1.93,1.47c-0.63-0.02-1.63-0.95-1.76-1.62
		c-0.27-1.43-0.27-2.99,0-4.42c0.13-0.67,1.13-1.61,1.78-1.65c2.67-0.19,5.38-0.21,8.04,0c0.69,0.05,1.3,1.16,1.95,1.78
		c-0.67,0.68-1.26,1.83-2.02,1.94C50.11,76.2,48.19,76,46.1,76z"/>
	<path class="st0" d="M74.13,47.89c0-0.73-0.22-1.48,0.05-1.96c0.4-0.7,1.18-1.73,1.72-1.68c0.74,0.07,1.94,0.97,1.99,1.59
		c0.22,2.75,0.23,5.54,0.02,8.3c-0.05,0.67-1.22,1.72-1.88,1.73c-0.63,0-1.4-1.05-1.85-1.8c-0.29-0.47-0.11-1.22-0.14-1.89
		c-1.48-0.53-3.98,0.47-3.85-2.26C70.3,47.58,72.4,48.25,74.13,47.89z"/>
	<path class="st0" d="M33.81,48.01c-0.58,0-1.34,0.23-1.78-0.05c-0.73-0.46-1.73-1.22-1.75-1.89c-0.02-0.63,0.97-1.71,1.68-1.87
		c1.35-0.3,2.82-0.2,4.23-0.06c2.34,0.23,1.53,2.29,1.93,3.78c0.68,0.06,1.5-0.1,2.01,0.23c0.73,0.46,1.71,1.28,1.71,1.95
		c0,0.61-1.08,1.34-1.82,1.8c-0.41,0.25-1.1,0.06-1.67,0.06C34.41,51.95,34.41,51.95,33.81,48.01z"/>
	<path class="st0" d="M27.97,59.98c-1.27,0-2.61,0.24-3.8-0.08c-0.8-0.22-1.39-1.22-2.08-1.87c0.63-0.65,1.21-1.8,1.88-1.85
		c2.67-0.22,5.39-0.24,8.06,0c0.71,0.06,1.32,1.29,1.98,1.99c-0.67,0.6-1.26,1.56-2.02,1.74C30.7,60.19,29.31,59.98,27.97,59.98z"/>
	<path class="st0" d="M62.14,49.87c0-1.27-0.21-2.6,0.08-3.8c0.18-0.75,1.13-1.81,1.74-1.81c0.67-0.01,1.89,0.99,1.94,1.63
		c0.22,2.74,0.23,5.51,0.01,8.25c-0.05,0.66-1.23,1.24-1.89,1.86c-0.63-0.7-1.61-1.31-1.81-2.12
		C61.91,52.61,62.14,51.21,62.14,49.87z"/>
	<path class="st0" d="M25.94,48.14c0,0.71,0.23,1.54-0.06,2.09c-0.37,0.69-1.17,1.57-1.8,1.58c-0.64,0.01-1.76-0.84-1.87-1.46
		c-0.27-1.51-0.27-3.13,0-4.64c0.12-0.63,1.23-1.49,1.87-1.48c0.63,0.01,1.46,0.9,1.8,1.6C26.18,46.46,25.94,47.36,25.94,48.14z"/>
	<path class="st0" d="M42.12,59.98c-0.71,0-1.55,0.24-2.09-0.06c-0.75-0.41-1.76-1.23-1.75-1.86c0.01-0.66,0.99-1.71,1.72-1.88
		c1.27-0.31,2.73-0.33,3.99,0c0.78,0.21,1.34,1.28,2,1.97c-0.65,0.61-1.22,1.37-1.98,1.79C43.52,60.2,42.76,59.98,42.12,59.98z"/>
	<path class="st0" d="M46.39,32.12c1.25,0.18,3.45-0.64,3.47,1.91c0.02,2.46-2.08,1.96-3.64,2.02c-0.71,0.03-1.56,0.24-2.09-0.07
		c-0.79-0.46-1.36-1.31-2.02-2c0.71-0.62,1.35-1.37,2.15-1.81C44.76,31.9,45.52,32.12,46.39,32.12z"/>
</g>
</svg>
