<?xml version="1.0" encoding="utf-8"?>
<!-- Generator: Adobe Illustrator 23.0.3, SVG Export Plug-In . SVG Version: 6.00 Build 0)  -->
<svg version="1.1" id="Layer_1" xmlns="http://www.w3.org/2000/svg" xmlns:xlink="http://www.w3.org/1999/xlink" x="0px" y="0px"
	 viewBox="0 0 24 22" style="enable-background:new 0 0 24 22;" xml:space="preserve">
<style type="text/css">
	.st0{fill:#243A76;}
</style>
<g>
	<path class="st0" d="M2.9,11h3.6c0.5,0,0.9-0.4,0.9-0.9S7,9.2,6.5,9.2H2.9C2.4,9.2,2,9.6,2,10.1S2.4,11,2.9,11z"/>
	<path class="st0" d="M2.9,8.3h5.5c0.5,0,0.9-0.4,0.9-0.9S8.9,6.5,8.4,6.5H2.9C2.4,6.5,2,6.9,2,7.4S2.4,8.3,2.9,8.3z"/>
	<path class="st0" d="M21.9,10.6l-1.4-2.3c0-0.2,0-0.3-0.1-0.5l-1.6-2.7c-0.5-0.9-1.4-1.4-2.4-1.4h-0.8V1.9c0-0.5-0.4-0.9-0.9-0.9
		H6.5C4.8,1,3.4,1.9,2.6,3.3c-0.3,0.5-0.1,1,0.3,1.3c0.5,0.2,1,0.1,1.2-0.4c0.5-0.8,1.4-1.4,2.4-1.4h7.3v1.8V11
		c0,0.5-0.4,0.9-0.9,0.9H12c-0.5,0-0.9,0.4-0.9,0.9s0.4,0.9,0.9,0.9h0.9c1.5,0,2.7-1.2,2.7-2.7V5.5h0.8c0.3,0,0.6,0.2,0.8,0.5
		l0.9,1.4c0,0,0,0-0.1,0c-0.9,0.1-1.5,0.9-1.5,1.8h0.1v2.7c0,1,0.8,1.8,1.8,1.8h0.1h1.8v1.8c0,1-0.8,1.8-1.8,1.8h-0.2
		c-0.4-1-1.4-1.8-2.6-1.8c-1.1,0-2.1,0.6-2.5,1.6c0,0.1-0.1,0.1-0.1,0.2H11c-0.4-1-1.4-1.8-2.6-1.8c-1.1,0-2.1,0.6-2.5,1.6
		c0,0.1-0.1,0.1-0.1,0.2H5.6c-1,0-1.8-0.8-1.8-1.8c0-0.5-0.4-0.9-0.9-0.9S2,15,2,15.5c0,2,1.6,3.6,3.6,3.6h0.1
		C6.1,20.2,7.2,21,8.3,21c1.2,0,2.2-0.8,2.6-1.9H13c0.3,1.1,1.3,1.9,2.6,1.9s2.2-0.8,2.6-1.9h0.2c2,0,3.6-1.6,3.6-3.6v-2.7V11
		C22,10.8,22,10.7,21.9,10.6z M8.4,19.2c-0.4,0-0.8-0.3-0.9-0.7c0-0.1,0.1-0.2,0.1-0.3c0-0.2,0.1-0.4,0.2-0.6
		c0.2-0.1,0.4-0.2,0.6-0.2c0.5,0,0.9,0.4,0.9,0.9S8.9,19.2,8.4,19.2z M15.6,19.2c-0.4,0-0.8-0.3-0.9-0.7c0-0.1,0.1-0.2,0.1-0.3
		c0-0.2,0.1-0.4,0.2-0.6c0.2-0.1,0.4-0.2,0.6-0.2c0.5,0,0.9,0.4,0.9,0.9S16.1,19.2,15.6,19.2z M18.4,11.9V9.2H19l1.2,2v0.7H18.4z"/>
	<path class="st0" d="M2.9,13.7h1.8c0.5,0,0.9-0.4,0.9-0.9s-0.4-0.9-0.9-0.9H2.9c-0.5,0-0.9,0.4-0.9,0.9S2.4,13.7,2.9,13.7z"/>
</g>
</svg>
