<?xml version="1.0" encoding="utf-8"?>
<!-- Generator: Adobe Illustrator 23.0.3, SVG Export Plug-In . SVG Version: 6.00 Build 0)  -->
<svg version="1.1" id="Layer_1" xmlns="http://www.w3.org/2000/svg" xmlns:xlink="http://www.w3.org/1999/xlink" x="0px" y="0px"
	 viewBox="0 0 100 100" style="enable-background:new 0 0 100 100;" xml:space="preserve">
<style type="text/css">
	.st0{fill:#A7ACB6;stroke:#A7ACB6;stroke-width:0.75;stroke-linecap:round;stroke-linejoin:round;stroke-miterlimit:10;}
</style>
<g>
	<path class="st0" d="M63.2,85.6c-14.7,0-29.4,0-44,0C16,84.5,14.9,82.3,15,79C15,59.7,15,40.3,15,21c0-3.2,1.1-5.5,4.2-6.6
		c14.7,0,29.4,0,44,0c3.1,1.2,4.2,3.6,4.1,6.8c-0.1,5.2,0,10.3-0.1,15.5c0,1,0.2,1.3,1.3,1.3c4.9-0.1,9.8,0,14.7,0
		c1.4,0,1.8,0.5,1.8,1.8c0,7.8,0,15.6,0,23.4c0,1.5-0.5,1.9-2,1.9c-4.9-0.1-9.7,0-14.6,0c-1,0-1.3,0.2-1.3,1.3
		c0.1,4.2-0.1,8.3,0.1,12.5C67.4,82.1,66.3,84.4,63.2,85.6z M17.1,49.9c0,9.9,0,19.9,0,29.8c0,2.6,1.1,3.9,3.5,3.9
		c13.7,0,27.3,0,41,0c2.3,0,3.5-1.3,3.5-3.6c0-4.6,0-9.2,0-13.8c0-0.8,0-1.2-1-1.2c-1,0-1.1,0.5-1.1,1.3c0,4.3,0,8.7,0,13
		c0,2.1-0.1,2.2-2.3,2.2c-13.1,0-26.2,0-39.3,0c-2.2,0-2.3-0.1-2.3-2.3c0-11.6,0-23.1,0-34.7c0-0.4,0-0.8,0-1.3c0.1-0.6,0.4-1,1-1
		c0.6,0,1,0.4,1,1c0.1,0.5,0,0.9,0,1.4c0,9.8,0,19.5,0,29.3c0,0.8,0,1.3,1.1,1.3c12.5,0,25,0,37.5,0c0.8,0,1.1-0.2,1-1.1
		c-0.1-2.6-0.1-5.3,0-7.9c0-1.1-0.4-1.2-1.3-1.2c-5.7,0-11.4,0-17.1,0c-0.8,0-1.4,0.3-1.9,0.8c-2.1,2.2-4.3,4.3-6.5,6.5
		c-0.5,0.5-1,1.3-1.8,0.9c-0.9-0.4-0.6-1.3-0.6-1.9c0-10.4,0-20.8,0-31.2c0-2.2,0-2.2,2.2-2.2c8.5,0,17,0,25.5,0
		c1.2,0,1.5-0.2,1.5-1.5c-0.1-2.7,0-5.5,0-8.2c0-3.5,0-3.5-3.5-3.5c-2.8,0-2.8,0-2.8,2.8c0,2.8-1.5,4.9-3.9,5.4c-1,0.2-2,0.2-3,0.1
		c-1.6-0.1-2.9,0.2-4,1.5c-1.5,1.7-3.6,1.7-5.1,0.1c-1.2-1.3-2.4-1.8-4.1-1.6c-0.7,0.1-1.5,0-2.2,0c-2.3-0.2-4.3-2.1-4.5-4.3
		c-0.1-0.9-0.1-1.8-0.1-2.7c0.1-0.9-0.1-1.4-1.2-1.3c-1.3,0.1-2.6,0.1-4,0c-1-0.1-1.2,0.3-1.2,1.2c0.1,4,0,8,0,12
		c0,0.8,0.1,1.9-1.1,1.9c-1.2,0-1-1.1-1-2c0-3.9,0-7.8,0-11.7c0-3.9-0.3-3.5,3.5-3.5c1.6,0,3.8,0.7,4.7-0.3c0.8-1,0.2-3.1,0.3-4.7
		c0-0.1,0-0.2,0-0.3c0.1-0.8-0.3-1-1-1c-1.7,0-3.5,0-5.2,0c-3.2,0-4.3,1.1-4.3,4.2C17.1,30.4,17.1,40.2,17.1,49.9z M33.7,69.5
		c0.1,0.1,0.2,0.2,0.4,0.3c1.8-1.8,3.6-3.7,5.3-5.5c0.8-0.9,1.7-1.2,2.9-1.2c13,0,26.1,0,39.1,0c1.1,0,1.6-0.2,1.6-1.4
		c-0.1-6.8-0.1-13.6,0-20.4c0-1-0.3-1.2-1.2-1.2c-15.6,0-31.1,0-46.7,0c-1,0-1.3,0.2-1.3,1.3C33.8,50.7,33.7,60.1,33.7,69.5z
		 M65.1,28.2c0-2.7,0-5.4,0-8.1c0-2.6-1.2-3.7-3.8-3.8c-0.5,0-1.1,0-1.6,0c-1.7,0.1-4-0.7-4.8,0.3c-0.8,1-0.2,3.2-0.3,4.9
		c0,0.1,0,0.1,0,0.2c-0.1,0.8,0.2,1,1,1c1.8,0,3.6,0.1,5.4,0c1.5-0.1,2.1,0.4,2,2c-0.1,4,0,8,0,12c0,0.8,0,1.3,1.1,1.3
		c1,0,1.1-0.5,1.1-1.3C65.1,33.9,65.1,31.1,65.1,28.2z M41.1,28.9c-2.6,0-5.3,0-7.9,0c-1.1,0-1.5-0.4-1.5-1.5c0-2,0-4,0-6
		c0-0.9-0.5-0.8-1.1-0.9c-0.6,0-1.1,0-1.1,0.9c0.1,2.2,0,4.4,0,6.6c0,1.6,1.3,2.8,2.9,3c0.7,0.1,1.4,0.1,2.1,0c2.1-0.2,3.9,0,5.3,2
		c0.6,0.9,1.7,1,2.4,0.1c1.4-2,3.4-2.3,5.5-2c0.5,0.1,1.1,0,1.6,0c1.9-0.1,3.2-1.3,3.2-3.2c0.1-2.1,0-4.2,0-6.3c0-1-0.5-0.9-1.2-1
		c-0.7,0-1,0.1-1,0.9c0.1,1.9,0,3.9,0,5.8c0,1.1-0.5,1.6-1.6,1.6C46.3,28.9,43.7,28.9,41.1,28.9z M41.1,79.4c6.2,0,12.3,0,18.5,0
		c0.7,0,1.4,0.2,1.4-1c0-1.1-0.5-1.1-1.3-1.1c-12.3,0-24.7,0-37,0c-0.8,0-1.4-0.1-1.4,1.1c0,1.1,0.5,1.1,1.3,1.1
		C28.7,79.4,34.9,79.4,41.1,79.4z M41.3,16.4c-3.5,0-7,0-10.4,0c-0.9,0-1.3,0.1-1.3,1.2c0,1.1,0.5,1,1.3,1c6.9,0,13.7,0,20.6,0
		c0.7,0,1.3,0.1,1.3-1c0-1-0.3-1.2-1.3-1.2C48,16.4,44.7,16.4,41.3,16.4z M41.1,20.6c-2.1,0-4.2,0-6.3,0c-0.8,0-1.1,0.2-1.1,1.1
		c0,0.7,0.1,1.2,1,1.1c4.2,0,8.4,0,12.7,0c0.9,0,1.1-0.3,1.1-1.1c0-0.8-0.1-1.1-1-1.1C45.3,20.7,43.2,20.6,41.1,20.6z M41,27
		c2.2,0,4.3,0,6.5,0c0.9,0,1-0.4,1-1.1c0-0.8-0.2-1.1-1-1.1c-4.2,0-8.4,0-12.6,0c-0.7,0-1.2,0-1.1,1c0,0.8,0.2,1.2,1.1,1.2
		C36.9,26.9,38.9,27,41,27z"/>
	<path class="st0" d="M53.3,51.6c0-2.9,2.3-5.2,5.2-5.2c2.9,0,5.3,2.4,5.2,5.2c0,2.8-2.4,5.1-5.1,5.2C55.8,56.8,53.3,54.4,53.3,51.6
		z M58.6,54.6c1.8,0,3-1.4,3-3.2c0-1.7-1.4-3.1-3.1-3.1c-1.7,0-3.1,1.5-3.1,3.1C55.3,53.3,56.8,54.6,58.6,54.6z"/>
	<path class="st0" d="M48.7,56.7c-1.3-0.1-2.5-0.4-3.4-1.4c-0.4-0.5-0.7-1-0.2-1.5c0.5-0.5,1-0.5,1.5-0.1c0.8,0.7,1.6,1,2.6,0.8
		c0.5-0.1,0.9-0.3,1-0.9c0.1-0.5-0.3-0.8-0.7-1c-0.8-0.3-1.5-0.6-2.3-1c-1.3-0.5-1.9-1.4-1.8-2.8c0.1-1.4,1-2.2,2.2-2.5
		c1.4-0.4,2.7,0,3.9,0.9c0.5,0.3,0.8,0.8,0.4,1.3c-0.4,0.6-0.8,0.8-1.5,0.4c-0.6-0.4-1.3-0.7-2.1-0.6c-0.4,0.1-0.9,0.2-1,0.7
		c-0.1,0.6,0.4,0.7,0.8,0.8c0.6,0.3,1.3,0.5,1.9,0.8c1.7,0.8,2.5,1.9,2.2,3.4C51.9,55.6,50.5,56.7,48.7,56.7z"/>
	<path class="st0" d="M65.1,51.4c0-1.1,0.1-2.1,0-3.2c-0.1-1.4,0.4-2.1,1.9-2c0.6,0.1,1.2,0,1.7,0c1.8,0.1,3.3,1.7,3.2,3.4
		c0,1.8-1.4,3.3-3.2,3.2c-1.3,0-1.6,0.5-1.5,1.6c0,0.3,0,0.6,0,0.9c-0.1,0.7-0.4,1.2-1.1,1.1c-0.7,0-1-0.5-1-1.2
		C65.1,54.2,65.1,52.8,65.1,51.4C65.1,51.4,65.1,51.4,65.1,51.4z M67.2,49.8c0.2,0.4-0.4,1.4,0.9,1.3c0.9-0.1,1.7-0.3,1.8-1.4
		c0-1.1-0.8-1.3-1.7-1.4C66.9,48.2,67.3,49.1,67.2,49.8z"/>
</g>
</svg>
