<?xml version="1.0" encoding="utf-8"?>
<!-- Generator: Adobe Illustrator 23.0.3, SVG Export Plug-In . SVG Version: 6.00 Build 0)  -->
<svg version="1.1" id="Layer_1" xmlns="http://www.w3.org/2000/svg" xmlns:xlink="http://www.w3.org/1999/xlink" x="0px" y="0px"
	 viewBox="0 0 78 78" style="enable-background:new 0 0 78 78;" xml:space="preserve">
<style type="text/css">
	.st0{fill:#243A76;}
	.st1{fill:#FBD23C;}
</style>
<circle class="st0" cx="39" cy="39" r="38.2"/>
<path class="st1" d="M48.4,28.2h-1.5c-0.3-1.5-1.2-2.9-2.3-3.9c-1.2-1-2.7-1.5-4.2-1.5h-2.6c-1.6,0-3.1,0.5-4.2,1.5
	c-1.2,1-2,2.3-2.3,3.9h-1.5c-1.7,0-3.5,0.7-4.7,2c-1.2,1.2-2,3-2,4.7v13.4c0,1.7,0.7,3.5,2,4.7c1.2,1.2,3,2,4.7,2h18.8
	c1.7,0,3.5-0.7,4.7-2c1.2-1.2,2-3,2-4.7V34.9c0-1.7-0.7-3.5-2-4.7C51.8,29,50.2,28.2,48.4,28.2z M37.7,25.6h2.6
	c0.8,0,1.7,0.2,2.3,0.7s1.2,1.2,1.5,1.9H33.9c0.2-0.7,0.8-1.5,1.5-1.9C36,25.8,36.9,25.6,37.7,25.6z M29.7,31h18.8
	c1.1,0,2.1,0.4,2.8,1.2c0.7,0.7,1.2,1.7,1.2,2.8v4H25.6v-4.1c0-1.1,0.4-2.1,1.2-2.8C27.5,31.4,28.6,31,29.7,31z M48.4,52.4H29.7
	c-1.1,0-2.1-0.4-2.8-1.2c-0.7-0.7-1.2-1.7-1.2-2.8v-6.7h12.1V43c0,0.3,0.2,0.7,0.4,0.9s0.6,0.4,0.9,0.4c0.3,0,0.7-0.2,0.9-0.4
	s0.4-0.6,0.4-0.9v-1.3h12.1v6.7c0,1.1-0.4,2.1-1.2,2.8C50.5,52,49.4,52.4,48.4,52.4z"/>
</svg>
