<?xml version="1.0" encoding="utf-8"?>
<!-- Generator: Adobe Illustrator 23.0.3, SVG Export Plug-In . SVG Version: 6.00 Build 0)  -->
<svg version="1.1" id="Layer_1" xmlns="http://www.w3.org/2000/svg" xmlns:xlink="http://www.w3.org/1999/xlink" x="0px" y="0px"
	 viewBox="0 0 78 78" style="enable-background:new 0 0 78 78;" xml:space="preserve">
<style type="text/css">
	.st0{fill:#243A76;}
	.st1{fill:#FBD23C;}
	.st2{opacity:0.4;fill-rule:evenodd;clip-rule:evenodd;fill:#FBD23C;enable-background:new    ;}
</style>
<circle class="st0" cx="39" cy="39" r="38.2"/>
<g>
	<path class="st1" d="M56.5,21.6c-0.9-0.9-2.3-1.3-3.6-0.9L23,29.3c-1.4,0.4-2.3,1.4-2.6,2.8c-0.3,1.4,0.7,3.1,1.9,3.9l9.3,5.7
		c1,0.6,2.2,0.4,3-0.4l10.7-10.7c0.5-0.6,1.4-0.6,2,0c0.5,0.5,0.5,1.4,0,2L36.6,43.3c-0.8,0.8-0.9,2-0.4,3l5.7,9.4
		c0.7,1.1,1.8,1.7,3.1,1.7c0.1,0,0.3,0,0.5,0c1.4-0.2,2.6-1.2,3-2.6l8.9-29.6C57.8,24,57.4,22.6,56.5,21.6z"/>
	<path class="st2" d="M22.3,47.9c-0.4,0-0.7-0.1-1-0.4c-0.5-0.5-0.5-1.4,0-2l2.5-2.5c0.5-0.5,1.4-0.5,2,0c0.5,0.5,0.5,1.4,0,2
		l-2.5,2.5C23,47.8,22.7,47.9,22.3,47.9z M29.3,50.1c-0.4,0-0.7-0.1-1-0.4c-0.5-0.5-0.5-1.4,0-2l2.5-2.5c0.5-0.5,1.4-0.5,2,0
		c0.5,0.5,0.5,1.4,0,2l-2.5,2.5C30,50,29.7,50.1,29.3,50.1z M29.8,56.8c0.3,0.3,0.6,0.4,1,0.4s0.7-0.1,1-0.4l2.5-2.5
		c0.5-0.5,0.5-1.4,0-2c-0.5-0.5-1.4-0.5-2,0l-2.5,2.5C29.2,55.3,29.2,56.2,29.8,56.8z"/>
</g>
</svg>
