<?xml version="1.0" encoding="utf-8"?>
<!-- Generator: Adobe Illustrator 23.0.3, SVG Export Plug-In . SVG Version: 6.00 Build 0)  -->
<svg version="1.1" id="Layer_1" xmlns="http://www.w3.org/2000/svg" xmlns:xlink="http://www.w3.org/1999/xlink" x="0px" y="0px"
	 viewBox="0 0 22 22" style="enable-background:new 0 0 22 22;" xml:space="preserve">
<style type="text/css">
	.st0{fill:#FBD23C;}
</style>
<g>
	<path class="st0" d="M4.9,21.6c-0.1,0-0.2,0-0.3,0C0.5,20.4,0,16.7,0,14V8c0-5.5,2.5-8,8-8h6c5.5,0,8,2.5,8,8v6
		c0,2.7-0.5,6.4-4.6,7.6c-0.3,0.1-0.6,0-0.8-0.1s-0.4-0.4-0.4-0.7C16,18.6,13.7,17,11,17s-5,1.6-5.1,3.7c0,0.3-0.2,0.6-0.4,0.7
		C5.3,21.6,5.1,21.6,4.9,21.6z M11,15c3.2,0,6,1.8,6.9,4.3c1.2-0.6,2.1-2,2.1-5.3V8c0-4.4-1.6-6-6-6H8C3.6,2,2,3.6,2,8v6
		c0,3.3,0.9,4.6,2.1,5.3C5,16.8,7.8,15,11,15z M11,14.2c-2.5,0-4.6-2.1-4.6-4.6S8.5,5,11,5s4.6,2.1,4.6,4.6S13.5,14.2,11,14.2z
		 M11,7C9.6,7,8.4,8.2,8.4,9.6s1.2,2.6,2.6,2.6s2.6-1.2,2.6-2.6S12.4,7,11,7z"/>
</g>
</svg>
