<?xml version="1.0" encoding="utf-8"?>
<!-- Generator: Adobe Illustrator 23.0.3, SVG Export Plug-In . SVG Version: 6.00 Build 0)  -->
<svg version="1.1" id="Layer_1" xmlns="http://www.w3.org/2000/svg" xmlns:xlink="http://www.w3.org/1999/xlink" x="0px" y="0px"
	 viewBox="0 0 600 600" style="enable-background:new 0 0 600 600;" xml:space="preserve">
<style type="text/css">
	.st0{fill:#B3B3B3;}
</style>
<g>
	<path class="st0" d="M299.4,588.2c-56.7,0-114.6,0-171.1,0c-32,0-49.3-17.2-49.3-49.3c0-39.4,1.3-78.8,0-118.2
		c-1.3-56.7,25.9-96.1,73.9-123.1c1.3-1.3,3.7-2.5,4.9-2.5c17.2-9.8,30.8-11.1,49.3,1.3c56.7,40.6,144.1,34.4,200.8-7.4
		c3.7-2.5,11.1-3.7,14.8-2.5c49.3,13.6,101,64.1,98.5,133c-1.3,40.6,0,80,0,120.7c0,29.5-17.2,46.7-48,48
		C415.1,588.2,357.3,588.2,299.4,588.2z"/>
	<path class="st0" d="M166.5,144.8c0-73.8,59-134.1,133-133c72.6,0,131.8,59.2,131.8,133s-59.2,134.2-133,133
		C225.5,277.9,166.5,218.7,166.5,144.8z"/>
</g>
</svg>
