<?xml version="1.0" encoding="utf-8"?>
<!-- Generator: Adobe Illustrator 23.0.3, SVG Export Plug-In . SVG Version: 6.00 Build 0)  -->
<svg version="1.1" id="Layer_1" xmlns="http://www.w3.org/2000/svg" xmlns:xlink="http://www.w3.org/1999/xlink" x="0px" y="0px"
	 viewBox="0 0 50 50" style="enable-background:new 0 0 50 50;" xml:space="preserve">
<style type="text/css">
	.st0{fill:#929497;}
</style>
<g>
	<path class="st0" d="M10.6-68c0.1-7.4,5.9-13.8,13.1-14.3c8.1-0.6,14.7,5.1,15.7,12.6c0.4,3.4-0.3,6.6-2.2,9.6
		c-3.4,5.1-6.8,10.2-10.2,15.3c-0.8,1.2-1.6,1.6-2.6,1.1c-0.4-0.2-0.8-0.6-1-0.9c-3.6-5.3-7.1-10.6-10.6-15.9
		C11.2-62.6,10.6-65.3,10.6-68z M25.1-60.2c3.4,0,6.2-2.9,6.2-6.3c0-3.4-2.9-6.2-6.3-6.2c-3.4,0-6.2,2.9-6.2,6.2
		C18.8-63,21.6-60.2,25.1-60.2z M26.8-79c-0.1,0.1-0.6,0.4-0.7,0.7c-0.1,0.6,0.4,0.8,0.9,0.8c2.6,0.2,4.6,1.4,6.1,3.5
		c0.2,0.3,0.8,0.5,1.1,0.3c0.6-0.3,0.4-0.8,0.1-1.2C32.5-77.3,30.1-78.6,26.8-79z M36-69.8c-0.1-0.6-0.2-1.4-0.4-2.1
		c-0.1-0.3-0.5-0.4-0.8-0.6c-0.2,0.3-0.5,0.6-0.5,0.9c0,0.9,0.1,1.8,0.3,2.6c0.1,0.3,0.5,0.5,0.7,0.7c0.2-0.2,0.5-0.5,0.7-0.7
		C36-69.2,35.9-69.4,36-69.8z"/>
	<ellipse class="st0" cx="25.2" cy="-36.4" rx="6.8" ry="2.4"/>
</g>
<g>
	<path class="st0" d="M25,48.8C12.1,48.8,1.6,38.1,1.7,25c0-13.1,10.4-23.7,23.2-23.8c13,0,23.5,10.7,23.5,23.9
		C48.3,38.2,37.9,48.8,25,48.8z M44.2,25c0-10.8-8.5-19.5-19.1-19.5c-10.6,0-19.2,8.7-19.2,19.4c0,10.8,8.5,19.6,19.1,19.6
		C35.6,44.6,44.2,35.8,44.2,25z"/>
	<path class="st0" d="M25,27c-0.4-0.1-0.7-0.2-1-0.4c-3.4-2-6.8-4-10.2-6c-1.6-0.9-1.3-2.7-0.3-3.5c0.7-0.5,1.4-0.5,2.1-0.1
		c1.1,0.7,2.3,1.3,3.4,2c1.9,1.1,3.9,2.3,5.8,3.4c0.2,0.1,0.3,0.1,0.5,0c1.5-0.9,2.9-1.7,4.4-2.6c1.7-1,3.4-2,5.2-3
		c0.4-0.3,0.9-0.6,1.3-0.7c1.1-0.4,2.2,0.4,2.4,1.6c0.1,0.8-0.2,1.6-0.9,2c-3.3,1.9-6.5,3.8-9.8,5.7c-0.6,0.4-1.2,0.8-1.9,1.1
		C25.7,26.8,25.3,26.9,25,27z"/>
</g>
<g>
	<path class="st0" d="M-47.6,37.2c0.1-0.2,0.1-0.3,0.2-0.5c0.1-0.2,0.3-0.3,0.5-0.5c0.2-0.2,0.5-0.1,0.6,0.2
		c0.1,0.2,0.1,0.4,0.2,0.7c0.1,0.2,0,0.4-0.1,0.5c-0.2,0.2-0.1,0.3,0,0.5c0.3,0.7,0.8,1.1,1.5,1.4c0.1,0.1,0.3,0.1,0.4,0
		c0.2-0.2,0.4-0.2,0.7-0.1c0.2,0.1,0.4,0.1,0.5,0.2c0.3,0.1,0.4,0.3,0.3,0.5c-0.2,0.3-0.4,0.6-0.8,0.7c-0.1,0-0.3,0-0.5,0
		c-1.7-0.6-2.8-1.7-3.3-3.4C-47.5,37.4-47.5,37.3-47.6,37.2C-47.6,37.2-47.6,37.2-47.6,37.2z"/>
	<path class="st0" d="M-44.9,35.7c1.3,0.1,2.2,0.9,2.5,2.2c0,0.1,0,0.3,0,0.4c0,0.1,0,0.2-0.2,0.3c-0.2,0-0.2-0.1-0.2-0.2
		c0-0.5-0.2-1-0.5-1.4c-0.4-0.5-1-0.8-1.6-0.8c-0.1,0-0.2,0-0.3-0.1C-45.2,35.8-45.1,35.7-44.9,35.7z"/>
	<path class="st0" d="M-43.1,38.3c0,0.1,0,0.3-0.2,0.3c-0.1,0-0.2-0.1-0.2-0.2c-0.1-0.6-0.4-1.1-1-1.4c-0.2-0.1-0.4-0.1-0.5-0.1
		c-0.1,0-0.2-0.1-0.2-0.2c0-0.1,0.1-0.2,0.2-0.2c0.8,0,1.6,0.7,1.8,1.5C-43.2,38.1-43.2,38.2-43.1,38.3z"/>
	<path class="st0" d="M-43.9,38.3c0,0.1,0,0.2-0.2,0.2c-0.1,0-0.2-0.1-0.2-0.2c0-0.4-0.3-0.7-0.7-0.7c-0.1,0-0.2,0-0.2-0.2
		c0-0.2,0.1-0.2,0.2-0.2C-44.4,37.3-43.9,37.8-43.9,38.3z"/>
</g>
</svg>
