<?xml version="1.0" encoding="utf-8"?>
<!-- Generator: Adobe Illustrator 23.0.3, SVG Export Plug-In . SVG Version: 6.00 Build 0)  -->
<svg version="1.1" id="Layer_1" xmlns="http://www.w3.org/2000/svg" xmlns:xlink="http://www.w3.org/1999/xlink" x="0px" y="0px"
	 viewBox="0 0 200 73" style="enable-background:new 0 0 200 73;" xml:space="preserve">
<style type="text/css">
	.st0{enable-background:new    ;}
	.st1{fill:#FFFFFF;}
</style>
<g>
	<g class="st0">
		<path class="st1" d="M59.9,47.8h-3.4c-0.2,0-0.3-0.1-0.4-0.2c-0.1-0.1-0.1-0.2-0.1-0.4V32c0-0.1,0-0.3,0.1-0.4
			c0.1-0.1,0.2-0.2,0.4-0.2h3.4c0.1,0,0.3,0.1,0.4,0.2c0.1,0.1,0.2,0.2,0.2,0.4v15.2c0,0.1-0.1,0.3-0.2,0.4
			C60.2,47.8,60,47.8,59.9,47.8z"/>
		<path class="st1" d="M66.8,36.2v0.9c0,0.1,0.1,0.3,0.2,0.4c0.1,0.1,0.2,0.2,0.4,0.2h6c0.1,0,0.3,0.1,0.4,0.2
			c0.1,0.1,0.2,0.2,0.2,0.4v3.1c0,0.1-0.1,0.3-0.2,0.4c-0.1,0.1-0.2,0.2-0.4,0.2h-6c-0.1,0-0.3,0.1-0.4,0.2
			c-0.1,0.1-0.2,0.2-0.2,0.4v4.9c0,0.1-0.1,0.3-0.2,0.4c-0.1,0.1-0.2,0.2-0.4,0.2h-3.4c-0.1,0-0.3-0.1-0.4-0.2
			c-0.1-0.1-0.2-0.2-0.2-0.4V32c0-0.1,0.1-0.3,0.2-0.4c0.1-0.1,0.2-0.2,0.4-0.2h11.3c0.1,0,0.3,0.1,0.4,0.2c0.1,0.1,0.2,0.2,0.2,0.4
			v3.1c0,0.1-0.1,0.3-0.2,0.4c-0.1,0.1-0.2,0.2-0.4,0.2h-6.9c-0.1,0-0.3,0.1-0.4,0.2C66.9,35.9,66.8,36,66.8,36.2z"/>
	</g>
	<g class="st0">
		<path class="st1" d="M87.5,35.6h-3.1c-0.1,0-0.3,0.1-0.4,0.2c-0.1,0.1-0.2,0.2-0.2,0.4v11.2c0,0.1,0,0.3-0.1,0.4
			c-0.1,0.1-0.2,0.2-0.4,0.2h-3.3c-0.1,0-0.3-0.1-0.4-0.2c-0.1-0.1-0.2-0.2-0.2-0.4V36.1c0-0.1,0-0.3-0.1-0.4
			c-0.1-0.1-0.2-0.2-0.4-0.2h-3.2c-0.1,0-0.3-0.1-0.4-0.2c-0.1-0.1-0.2-0.2-0.2-0.4v-3c0-0.1,0.1-0.3,0.2-0.4
			c0.1-0.1,0.2-0.2,0.4-0.2h11.8c0.2,0,0.3,0.1,0.4,0.2c0.1,0.1,0.1,0.2,0.1,0.4v3c0,0.1,0,0.3-0.1,0.4
			C87.7,35.5,87.6,35.6,87.5,35.6z"/>
	</g>
	<g class="st0">
		<path class="st1" d="M106.8,35.6h-3.1c-0.1,0-0.3,0.1-0.4,0.2c-0.1,0.1-0.2,0.2-0.2,0.4v11.2c0,0.1,0,0.3-0.1,0.4
			c-0.1,0.1-0.2,0.2-0.4,0.2h-3.3c-0.1,0-0.3-0.1-0.4-0.2c-0.1-0.1-0.2-0.2-0.2-0.4V36.1c0-0.1,0-0.3-0.1-0.4
			c-0.1-0.1-0.2-0.2-0.4-0.2H95c-0.1,0-0.3-0.1-0.4-0.2c-0.1-0.1-0.2-0.2-0.2-0.4v-3c0-0.1,0.1-0.3,0.2-0.4c0.1-0.1,0.2-0.2,0.4-0.2
			h11.8c0.2,0,0.3,0.1,0.4,0.2c0.1,0.1,0.1,0.2,0.1,0.4v3c0,0.1,0,0.3-0.1,0.4C107,35.5,106.9,35.6,106.8,35.6z"/>
	</g>
	<g class="st0">
		<path class="st1" d="M122.4,32v15.3c0,0.1-0.1,0.3-0.2,0.4c-0.1,0.1-0.2,0.2-0.4,0.2h-3.3c-0.2,0-0.3-0.1-0.4-0.2
			c-0.1-0.1-0.1-0.2-0.1-0.4v-4.8c0-0.1-0.1-0.3-0.2-0.4c-0.1-0.1-0.2-0.2-0.4-0.2h-4.6c-0.2,0-0.3,0.1-0.4,0.2
			c-0.1,0.1-0.1,0.2-0.1,0.4v4.8c0,0.1-0.1,0.3-0.2,0.4c-0.1,0.1-0.2,0.2-0.4,0.2h-3.3c-0.2,0-0.3-0.1-0.4-0.2
			c-0.1-0.1-0.1-0.2-0.1-0.4V32c0-0.1,0-0.3,0.1-0.4c0.1-0.1,0.2-0.2,0.4-0.2h3.3c0.1,0,0.3,0.1,0.4,0.2c0.1,0.1,0.2,0.2,0.2,0.4
			v5.3c0,0.1,0,0.3,0.1,0.4c0.1,0.1,0.2,0.2,0.4,0.2h4.6c0.1,0,0.3-0.1,0.4-0.2c0.1-0.1,0.2-0.2,0.2-0.4V32c0-0.1,0-0.3,0.1-0.4
			c0.1-0.1,0.2-0.2,0.4-0.2h3.3c0.1,0,0.3,0.1,0.4,0.2C122.3,31.7,122.4,31.9,122.4,32z"/>
	</g>
	<g class="st0">
		<path class="st1" d="M128.7,47.8h-3.4c-0.2,0-0.3-0.1-0.4-0.2c-0.1-0.1-0.1-0.2-0.1-0.4V32c0-0.1,0-0.3,0.1-0.4
			c0.1-0.1,0.2-0.2,0.4-0.2h3.4c0.1,0,0.3,0.1,0.4,0.2c0.1,0.1,0.2,0.2,0.2,0.4v15.2c0,0.1-0.1,0.3-0.2,0.4
			C129,47.8,128.8,47.8,128.7,47.8z"/>
	</g>
	<g class="st0">
		<path class="st1" d="M133,42.2c0.8,0.5,1.6,0.9,2.4,1.2c0.8,0.3,1.5,0.4,2.2,0.4c0.7,0,1.2-0.1,1.5-0.3c0.3-0.2,0.5-0.5,0.5-0.8
			c0-0.2-0.1-0.3-0.2-0.5c-0.1-0.1-0.3-0.2-0.6-0.3s-0.5-0.1-0.9-0.2s-0.7-0.1-1-0.2c-0.3-0.1-0.7-0.1-1.1-0.2
			c-0.4-0.1-0.9-0.2-1.3-0.4c-0.5-0.2-0.9-0.4-1.4-0.6c-0.5-0.2-0.9-0.5-1.2-0.9s-0.6-0.8-0.9-1.3c-0.2-0.5-0.3-1.1-0.3-1.8
			c0-1,0.2-1.9,0.6-2.5c0.4-0.7,0.9-1.2,1.5-1.6c0.6-0.4,1.3-0.7,2.1-0.8s1.5-0.2,2.2-0.2c1.3,0,2.4,0.2,3.4,0.5
			c1,0.4,1.9,0.9,2.8,1.6c0.1,0.1,0.2,0.2,0.2,0.4c0,0.1,0,0.3-0.1,0.4l-1.7,2.5c-0.1,0.1-0.2,0.2-0.4,0.2c-0.1,0-0.3,0-0.4-0.1
			c-0.8-0.5-1.5-0.8-2.1-1c-0.7-0.2-1.3-0.3-1.8-0.3c-0.2,0-0.4,0-0.6,0c-0.2,0-0.4,0-0.6,0.1s-0.4,0.1-0.5,0.3
			c-0.1,0.1-0.2,0.3-0.2,0.5c0,0.2,0.2,0.4,0.5,0.6c0.3,0.2,0.7,0.3,1.1,0.4c0.4,0.1,0.8,0.2,1.2,0.3s0.6,0.1,0.7,0.1
			c0.5,0.1,1.1,0.3,1.8,0.5c0.6,0.2,1.2,0.5,1.8,0.9c0.6,0.4,1,0.9,1.4,1.5c0.4,0.6,0.6,1.4,0.6,2.4c0,0.9-0.2,1.7-0.5,2.3
			s-0.7,1.2-1.3,1.6c-0.6,0.4-1.2,0.7-2,0.9c-0.8,0.2-1.6,0.3-2.6,0.3c-0.8,0-1.5-0.1-2.2-0.2c-0.7-0.1-1.3-0.3-1.9-0.5
			c-0.6-0.2-1.1-0.5-1.6-0.8c-0.5-0.3-1-0.6-1.4-1c-0.1-0.1-0.2-0.2-0.2-0.4s0-0.3,0.1-0.4l1.7-2.5c0.1-0.1,0.2-0.2,0.4-0.2
			C132.7,42.1,132.9,42.1,133,42.2z"/>
	</g>
	<g class="st0">
		<path class="st1" d="M35.5,57.3c-2.4,0-4.6-0.4-6.7-1.3c-2.1-0.9-3.9-2.1-5.5-3.6c-1.6-1.5-2.8-3.3-3.7-5.4
			c-0.9-2.1-1.4-4.3-1.4-6.6s0.5-4.5,1.4-6.6c0.9-2.1,2.2-3.9,3.7-5.4c1.6-1.5,3.4-2.8,5.5-3.7c2.1-0.9,4.3-1.3,6.7-1.3
			c3.3,0,6.2,0.7,8.6,2c2.4,1.3,4.4,3.2,5.9,5.6c0.1,0.2,0.2,0.5,0.1,0.8c-0.1,0.3-0.2,0.5-0.5,0.7l-5.4,3.5
			c-0.2,0.2-0.5,0.2-0.8,0.2c-0.3,0-0.6-0.2-0.8-0.4c-0.9-1.1-2-2-3.1-2.7c-1.2-0.7-2.5-1-4.1-1c-1.1,0-2.2,0.2-3.2,0.7
			c-1,0.5-1.9,1.1-2.6,1.9c-0.7,0.8-1.3,1.7-1.8,2.7c-0.4,1-0.7,2.1-0.7,3.2c0,1.1,0.2,2.2,0.7,3.2c0.4,1,1,1.9,1.8,2.7
			c0.7,0.8,1.6,1.4,2.6,1.8c1,0.5,2.1,0.7,3.2,0.7s2.3-0.2,3.4-0.6c1.1-0.4,2-1.1,2.6-2.1c0.1-0.2,0.2-0.5,0-0.7
			c-0.1-0.2-0.3-0.3-0.6-0.3h-5.2c-0.3,0-0.6-0.1-0.8-0.3c-0.2-0.2-0.3-0.5-0.3-0.8v-5.3c0-0.3,0.1-0.6,0.3-0.8
			c0.2-0.2,0.5-0.3,0.8-0.3h15.4c0.3,0,0.6,0.1,0.8,0.3c0.2,0.2,0.4,0.5,0.4,0.8c0.1,0.5,0.1,1.1,0.1,1.9c0,0.7,0,1.5-0.1,2.3
			c-0.2,2.1-0.8,4-1.8,5.7c-1,1.8-2.2,3.3-3.7,4.6c-1.5,1.3-3.2,2.3-5.2,3C39.8,57,37.7,57.3,35.5,57.3z"/>
	</g>
	<g class="st0">
		<path class="st1" d="M69.7,65.3L63,50.1c-0.1-0.2-0.1-0.3,0-0.4c0.1-0.1,0.2-0.2,0.4-0.2H67c0.1,0,0.3,0,0.4,0.1
			c0.1,0.1,0.2,0.2,0.3,0.3l3.9,9c0.1,0.1,0.2,0.2,0.3,0.2c0.1,0,0.2-0.1,0.3-0.2l3.9-9c0.1-0.1,0.2-0.2,0.3-0.3
			c0.1-0.1,0.3-0.1,0.4-0.1h3.7c0.2,0,0.3,0.1,0.4,0.2c0.1,0.1,0.1,0.2,0,0.4l-6.8,15.3c-0.1,0.1-0.2,0.3-0.3,0.3
			c-0.1,0.1-0.3,0.1-0.4,0.1h-3c-0.1,0-0.3,0-0.4-0.1C69.9,65.6,69.8,65.5,69.7,65.3z"/>
	</g>
	<g class="st0">
		<path class="st1" d="M79.8,57.7c0-1.2,0.2-2.3,0.7-3.3c0.4-1,1-1.9,1.8-2.7s1.7-1.4,2.7-1.8c1-0.4,2.1-0.7,3.3-0.7
			c1.2,0,2.3,0.2,3.3,0.7c1,0.4,1.9,1.1,2.7,1.8c0.8,0.8,1.4,1.7,1.8,2.7c0.4,1,0.7,2.1,0.7,3.3c0,1.2-0.2,2.3-0.7,3.3
			c-0.4,1-1.1,1.9-1.8,2.7c-0.8,0.8-1.7,1.4-2.7,1.8c-1,0.4-2.1,0.7-3.3,0.7c-1.2,0-2.3-0.2-3.3-0.7c-1-0.4-1.9-1.1-2.7-1.8
			S81,62,80.5,60.9C80.1,59.9,79.8,58.8,79.8,57.7z M84.3,57.7c0,0.6,0.1,1.1,0.3,1.6s0.5,1,0.9,1.3c0.4,0.4,0.8,0.7,1.3,0.9
			c0.5,0.2,1,0.3,1.6,0.3c0.6,0,1.1-0.1,1.6-0.3c0.5-0.2,0.9-0.5,1.3-0.9c0.4-0.4,0.7-0.8,0.9-1.3c0.2-0.5,0.3-1,0.3-1.6
			c0-0.5-0.1-1.1-0.3-1.6c-0.2-0.5-0.5-1-0.9-1.3c-0.4-0.4-0.8-0.7-1.3-0.9c-0.5-0.2-1-0.3-1.6-0.3c-0.6,0-1.1,0.1-1.6,0.3
			c-0.5,0.2-0.9,0.5-1.3,0.9c-0.4,0.4-0.7,0.8-0.9,1.3S84.3,57.1,84.3,57.7z"/>
		<path class="st1" d="M98.1,50.1c0-0.1,0.1-0.3,0.2-0.4c0.1-0.1,0.2-0.2,0.4-0.2h3.4c0.1,0,0.3,0.1,0.4,0.2
			c0.1,0.1,0.2,0.2,0.2,0.4v9c0,0.6,0.1,1.1,0.3,1.4c0.2,0.4,0.4,0.7,0.7,0.9s0.6,0.4,0.9,0.5c0.3,0.1,0.6,0.1,0.9,0.1
			s0.5,0,0.9-0.1c0.3-0.1,0.6-0.2,0.9-0.5s0.5-0.5,0.7-0.9c0.2-0.4,0.3-0.9,0.3-1.4v-9c0-0.1,0.1-0.3,0.2-0.4
			c0.1-0.1,0.2-0.2,0.4-0.2h3.4c0.1,0,0.3,0.1,0.4,0.2c0.1,0.1,0.2,0.2,0.2,0.4v9c0,1.1-0.2,2-0.5,2.9c-0.3,0.9-0.8,1.6-1.4,2.2
			c-0.6,0.6-1.4,1.1-2.3,1.4s-1.8,0.5-2.9,0.5c-1.1,0-2-0.2-2.9-0.5s-1.6-0.8-2.3-1.4s-1.1-1.3-1.4-2.2s-0.5-1.8-0.5-2.9V50.1z"/>
	</g>
	<g class="st0">
		<path class="st1" d="M130.2,61.5c-0.4,0.7-0.9,1.3-1.4,1.9c-0.5,0.6-1.1,1.1-1.8,1.5c-0.6,0.4-1.4,0.7-2.2,0.9s-1.7,0.3-2.6,0.3
			c-1.2,0-2.3-0.2-3.3-0.7c-1-0.4-2-1-2.7-1.8s-1.4-1.7-1.8-2.7c-0.4-1-0.7-2.1-0.7-3.3c0-1.2,0.2-2.3,0.7-3.3
			c0.4-1,1.1-1.9,1.8-2.7c0.8-0.8,1.7-1.4,2.7-1.8c1-0.4,2.2-0.7,3.3-0.7c1,0,1.9,0.1,2.7,0.3c0.8,0.2,1.5,0.5,2.1,0.9
			c0.6,0.4,1.2,0.9,1.7,1.5c0.5,0.6,1,1.2,1.4,1.9c0.1,0.1,0.1,0.2,0,0.4c0,0.1-0.1,0.2-0.3,0.3l-3.2,1.3c-0.1,0.1-0.3,0.1-0.4,0
			c-0.1-0.1-0.3-0.1-0.3-0.3c-0.4-0.7-1-1.2-1.6-1.6c-0.6-0.4-1.3-0.5-2.2-0.5c-0.6,0-1.1,0.1-1.6,0.4c-0.5,0.2-0.9,0.6-1.3,1
			s-0.7,0.9-0.9,1.4c-0.2,0.5-0.3,1.1-0.3,1.6c0,0.6,0.1,1.1,0.3,1.6c0.2,0.5,0.5,1,0.9,1.4s0.8,0.7,1.3,0.9c0.5,0.2,1,0.4,1.6,0.4
			c0.8,0,1.6-0.2,2.2-0.6s1.2-0.9,1.6-1.5c0.1-0.1,0.2-0.2,0.3-0.3s0.3-0.1,0.4,0l3.2,1.3c0.1,0.1,0.2,0.2,0.3,0.3
			C130.3,61.2,130.3,61.4,130.2,61.5z"/>
	</g>
	<g class="st0">
		<path class="st1" d="M145.3,50v15.3c0,0.1-0.1,0.3-0.2,0.4c-0.1,0.1-0.2,0.2-0.4,0.2h-3.3c-0.2,0-0.3-0.1-0.4-0.2
			c-0.1-0.1-0.1-0.2-0.1-0.4v-4.8c0-0.1-0.1-0.3-0.2-0.4c-0.1-0.1-0.2-0.2-0.4-0.2h-4.6c-0.2,0-0.3,0.1-0.4,0.2
			c-0.1,0.1-0.1,0.2-0.1,0.4v4.8c0,0.1-0.1,0.3-0.2,0.4c-0.1,0.1-0.2,0.2-0.4,0.2h-3.3c-0.2,0-0.3-0.1-0.4-0.2
			c-0.1-0.1-0.1-0.2-0.1-0.4V50c0-0.1,0-0.3,0.1-0.4c0.1-0.1,0.2-0.2,0.4-0.2h3.3c0.1,0,0.3,0.1,0.4,0.2c0.1,0.1,0.2,0.2,0.2,0.4
			v5.3c0,0.1,0,0.3,0.1,0.4c0.1,0.1,0.2,0.2,0.4,0.2h4.6c0.1,0,0.3-0.1,0.4-0.2c0.1-0.1,0.2-0.2,0.2-0.4V50c0-0.1,0-0.3,0.1-0.4
			c0.1-0.1,0.2-0.2,0.4-0.2h3.3c0.1,0,0.3,0.1,0.4,0.2C145.3,49.8,145.3,49.9,145.3,50z"/>
	</g>
	<g class="st0">
		<path class="st1" d="M151.7,54.1v0.9c0,0.1,0.1,0.3,0.2,0.4c0.1,0.1,0.2,0.2,0.4,0.2h6c0.1,0,0.3,0.1,0.4,0.2
			c0.1,0.1,0.2,0.2,0.2,0.4v3.1c0,0.1-0.1,0.3-0.2,0.4c-0.1,0.1-0.2,0.2-0.4,0.2h-6c-0.1,0-0.3,0.1-0.4,0.2
			c-0.1,0.1-0.2,0.2-0.2,0.4v0.8c0,0.1,0.1,0.3,0.2,0.4c0.1,0.1,0.2,0.2,0.4,0.2h6.9c0.1,0,0.3,0.1,0.4,0.2c0.1,0.1,0.2,0.2,0.2,0.4
			v3.1c0,0.1-0.1,0.3-0.2,0.4c-0.1,0.1-0.2,0.2-0.4,0.2h-11.4c-0.1,0-0.3-0.1-0.4-0.2c-0.1-0.1-0.2-0.2-0.2-0.4V50
			c0-0.1,0.1-0.3,0.2-0.4c0.1-0.1,0.2-0.2,0.4-0.2h11.4c0.1,0,0.3,0.1,0.4,0.2c0.1,0.1,0.2,0.2,0.2,0.4v3c0,0.1-0.1,0.3-0.2,0.4
			c-0.1,0.1-0.2,0.2-0.4,0.2h-6.9c-0.1,0-0.3,0.1-0.4,0.2C151.7,53.9,151.7,54,151.7,54.1z"/>
	</g>
	<g class="st0">
		<path class="st1" d="M165.4,65.8H162c-0.1,0-0.3-0.1-0.4-0.2c-0.1-0.1-0.2-0.2-0.2-0.4V50c0-0.1,0.1-0.3,0.2-0.4
			c0.1-0.1,0.2-0.2,0.4-0.2h6.9c0.9,0,1.7,0.1,2.4,0.4c0.7,0.3,1.4,0.7,1.9,1.2c0.5,0.5,0.9,1.1,1.2,1.9c0.3,0.7,0.4,1.5,0.4,2.4
			c0,0.5-0.1,0.9-0.2,1.4s-0.3,0.9-0.5,1.3c-0.2,0.4-0.5,0.8-0.7,1.1c-0.3,0.3-0.6,0.6-1,0.8c-0.1,0.1-0.2,0.2-0.2,0.3
			c0,0.1,0,0.3,0.1,0.4c0.6,0.7,1.2,1.5,1.8,2.3s1.2,1.5,1.7,2.2c0.1,0.1,0.1,0.2,0.1,0.4c0,0.1-0.1,0.2-0.3,0.2h-4.2
			c-0.1,0-0.3,0-0.5-0.1c-0.2-0.1-0.3-0.2-0.4-0.3c-0.5-0.6-0.9-1.3-1.4-1.9s-0.9-1.3-1.4-1.9c-0.1-0.1-0.2-0.2-0.4-0.3
			c-0.2-0.1-0.3-0.1-0.5-0.1h-0.5c-0.1,0-0.3,0.1-0.4,0.2c-0.1,0.1-0.2,0.2-0.2,0.4v3.6c0,0.1-0.1,0.3-0.2,0.4
			C165.6,65.8,165.5,65.8,165.4,65.8z M166.4,57h2.4c0.2,0,0.4,0,0.6-0.1c0.2-0.1,0.4-0.2,0.5-0.3c0.2-0.1,0.3-0.3,0.4-0.5
			c0.1-0.2,0.2-0.5,0.2-0.7c0-0.1,0-0.3-0.1-0.5s-0.1-0.4-0.3-0.6c-0.1-0.2-0.3-0.3-0.5-0.5c-0.2-0.1-0.5-0.2-0.8-0.2h-2.4
			c-0.1,0-0.3,0.1-0.4,0.2c-0.1,0.1-0.2,0.2-0.2,0.4v2.4c0,0.1,0.1,0.3,0.2,0.4C166.2,57,166.3,57,166.4,57z"/>
	</g>
	<g class="st0">
		<path class="st1" d="M178.2,60.2c0.8,0.5,1.6,0.9,2.4,1.2c0.8,0.3,1.5,0.4,2.2,0.4c0.7,0,1.2-0.1,1.5-0.3c0.3-0.2,0.5-0.5,0.5-0.8
			c0-0.2-0.1-0.3-0.2-0.5c-0.1-0.1-0.3-0.2-0.6-0.3s-0.5-0.1-0.9-0.2s-0.7-0.1-1-0.2c-0.3-0.1-0.7-0.1-1.1-0.2
			c-0.4-0.1-0.9-0.2-1.3-0.4c-0.5-0.2-0.9-0.4-1.4-0.6c-0.5-0.2-0.9-0.5-1.2-0.9s-0.6-0.8-0.9-1.3c-0.2-0.5-0.3-1.1-0.3-1.8
			c0-1,0.2-1.9,0.6-2.5c0.4-0.7,0.9-1.2,1.5-1.6c0.6-0.4,1.3-0.7,2.1-0.8s1.5-0.2,2.2-0.2c1.3,0,2.4,0.2,3.4,0.5
			c1,0.4,1.9,0.9,2.8,1.6c0.1,0.1,0.2,0.2,0.2,0.4c0,0.1,0,0.3-0.1,0.4l-1.7,2.5c-0.1,0.1-0.2,0.2-0.4,0.2c-0.1,0-0.3,0-0.4-0.1
			c-0.8-0.5-1.5-0.8-2.1-1c-0.7-0.2-1.3-0.3-1.8-0.3c-0.2,0-0.4,0-0.6,0c-0.2,0-0.4,0-0.6,0.1s-0.4,0.1-0.5,0.3
			c-0.1,0.1-0.2,0.3-0.2,0.5c0,0.2,0.2,0.4,0.5,0.6c0.3,0.2,0.7,0.3,1.1,0.4c0.4,0.1,0.8,0.2,1.2,0.3s0.6,0.1,0.7,0.1
			c0.5,0.1,1.1,0.3,1.8,0.5c0.6,0.2,1.2,0.5,1.8,0.9c0.6,0.4,1,0.9,1.4,1.5c0.4,0.6,0.6,1.4,0.6,2.4c0,0.9-0.2,1.7-0.5,2.3
			s-0.7,1.2-1.3,1.6c-0.6,0.4-1.2,0.7-2,0.9c-0.8,0.2-1.6,0.3-2.6,0.3c-0.8,0-1.5-0.1-2.2-0.2c-0.7-0.1-1.3-0.3-1.9-0.5
			c-0.6-0.2-1.1-0.5-1.6-0.8c-0.5-0.3-1-0.6-1.4-1c-0.1-0.1-0.2-0.2-0.2-0.4s0-0.3,0.1-0.4l1.7-2.5c0.1-0.1,0.2-0.2,0.4-0.2
			C178,60.1,178.1,60.2,178.2,60.2z"/>
	</g>
	<path class="st1" d="M33.8,6.1c-0.9,1.1-1.7,2-2.6,3c-1.1-1-1.9-1.9-2.9-2.6c-0.4-0.3-1.5-0.4-1.6-0.2c-0.3,0.5-0.6,1.5-0.3,1.8
		c1.2,1.4,2.5,2.7,3.9,3.8c0.4,0.3,1.8-0.2,2.4-0.8C35,9,37.1,6.7,39.4,4.5c1.8-1.7,4.4-2,6.3-1c2.1,1.2,3.4,3.3,2.7,5.8
		c-0.4,1.5-1.8,2.8-2.7,4.1c-0.2,0.3-0.4,0.6-0.9,1.2c0.8,0.1,1.3,0.2,1.9,0.2c3.2,0,6.4,0,9.6,0c2.5,0,3.9,1.4,4,3.9
		c0,4.6,0,4,0,8.6c0,1.7-0.8,1.7-2.1,1.7c-1.2,0-2-0.2-1.9-1.7c0.1-3,0-0.9,0-3.9c0-3.3-1.4-4.6-4.7-4.6c-4.8,0-9.7,0-14.5,0
		c-0.6,0-1.3,0-2.2-0.4c2.4-2.3,4.7-4.6,7.1-6.9c0.8-0.8,1.7-1.6,2.4-2.6c0.3-0.4,0.1-1.3,0.1-1.9c-0.6,0-1.5-0.2-1.9,0.2
		c-1.9,1.7-3.6,3.5-5.4,5.3c-1.5,1.5-3.1,3-4.5,4.6c-1.2,1.3-2.5,1.8-4.2,1.7c-3.3-0.1-6.7,0-10,0c-3.1,0-4.5,1.4-4.5,4.6
		c0,3-0.1,9.4,0,12.5c0.1,1.8-1,1.8-2.3,1.8c-1.2,0-2.2,0-2.1-1.7c0.1-4.3,0-12.1,0-16.4c0.1-3.1,1.7-4.7,4.7-4.7c3.3,0,6.7,0,10,0
		c0.6,0,1.2-0.1,2.4-0.2c-1.2-1.3-1.9-2.3-2.8-3.1c-2.2-2.1-2.3-5.2-0.2-7.5C25.6,2,28.9,1.7,31,3.6C32,4.4,32.9,5.3,33.8,6.1"/>
	<path class="st1" d="M35.4,65.7c-6.8,0-13.6,0-20.4,0c-3.7,0-5.1-1.4-5.1-5.1c0-4.2,0-11.8-0.1-16c0-1.1,0.1-1.9,1.4-1.7
		c1.1,0.1,2.9-0.7,2.8,1.5c0,3.1,0,9.7,0,12.8c0,3,1.3,4.3,4.3,4.3c11.2,0,22.5,0,33.7,0c2.9,0,4.3-1.4,4.3-4.3c0-3.1,0.1-2.7,0-5.8
		c0-1.6,0.8-1.8,2.1-1.8c1.4,0,2,0.3,2,1.9c-0.1,4.5,0,5.6,0,10.1c0,2.6-1.4,4-4,4C49.3,65.7,42.3,65.7,35.4,65.7L35.4,65.7z"/>
</g>
</svg>
