<?xml version="1.0" encoding="utf-8"?>
<!-- Generator: Adobe Illustrator 23.0.3, SVG Export Plug-In . SVG Version: 6.00 Build 0)  -->
<svg version="1.1" id="Layer_1" xmlns="http://www.w3.org/2000/svg" xmlns:xlink="http://www.w3.org/1999/xlink" x="0px" y="0px"
	 viewBox="0 0 50 50" style="enable-background:new 0 0 50 50;" xml:space="preserve">
<style type="text/css">
	.st0{fill:#FFFFFF;}
</style>
<g>
	<path class="st0" d="M25.4,42.6c-1.8,0-3.5-0.3-5.1-1c-1.6-0.7-3-1.6-4.2-2.7c-1.2-1.2-2.1-2.5-2.8-4.1c-0.7-1.6-1-3.2-1-5
		s0.3-3.4,1-5c0.7-1.6,1.6-2.9,2.8-4.1c1.2-1.2,2.6-2.1,4.2-2.8c1.6-0.7,3.3-1,5.1-1c2.5,0,4.7,0.5,6.5,1.5c1.8,1,3.3,2.4,4.5,4.2
		c0.1,0.2,0.1,0.4,0.1,0.6c-0.1,0.2-0.2,0.4-0.4,0.5L32,26.4c-0.2,0.1-0.4,0.2-0.6,0.1c-0.2,0-0.4-0.1-0.6-0.3
		c-0.7-0.9-1.5-1.6-2.4-2.1c-0.9-0.5-1.9-0.8-3.1-0.8c-0.9,0-1.7,0.2-2.4,0.5c-0.8,0.4-1.4,0.8-2,1.4c-0.6,0.6-1,1.3-1.3,2.1
		c-0.3,0.8-0.5,1.6-0.5,2.4c0,0.9,0.2,1.7,0.5,2.4c0.3,0.8,0.8,1.4,1.3,2c0.6,0.6,1.2,1,2,1.4c0.8,0.3,1.6,0.5,2.4,0.5
		c0.9,0,1.7-0.2,2.5-0.5c0.8-0.3,1.5-0.8,2-1.6c0.1-0.2,0.1-0.3,0-0.5c-0.1-0.1-0.2-0.2-0.5-0.2h-3.9c-0.2,0-0.4-0.1-0.6-0.2
		c-0.2-0.2-0.2-0.3-0.2-0.6v-4c0-0.2,0.1-0.4,0.2-0.6c0.2-0.2,0.3-0.2,0.6-0.2h11.7c0.2,0,0.4,0.1,0.6,0.2c0.2,0.1,0.3,0.3,0.3,0.6
		c0,0.4,0.1,0.9,0.1,1.4s0,1.1-0.1,1.7c-0.2,1.6-0.6,3-1.3,4.3c-0.7,1.3-1.7,2.5-2.8,3.5c-1.1,1-2.5,1.7-3.9,2.3
		C28.6,42.3,27,42.6,25.4,42.6"/>
	<path class="st0" d="M24,3.9c-0.7,0.8-1.3,1.5-2,2.3c-0.8-0.8-1.4-1.4-2.2-2c-0.3-0.2-1.1-0.3-1.2-0.1c-0.2,0.4-0.4,1.1-0.2,1.4
		c0.9,1,1.9,2.1,3,2.9c0.3,0.2,1.4-0.2,1.8-0.6c1.8-1.6,3.3-3.4,5.1-5c1.4-1.3,3.3-1.5,4.8-0.7c1.6,0.9,2.6,2.5,2,4.3
		c-0.3,1.1-1.3,2.1-2,3.1c-0.2,0.2-0.3,0.5-0.7,0.9c0.6,0.1,1,0.1,1.4,0.1c2.4,0,4.8,0,7.3,0c1.9,0,3,1.1,3,2.9c0,3.5,0,3,0,6.5
		c0,1.2-0.6,1.3-1.6,1.3c-0.9,0-1.5-0.1-1.5-1.3c0.1-2.3,0-0.7,0-2.9c0-2.5-1-3.5-3.5-3.5c-3.7,0-7.3,0-11,0c-0.5,0-1,0-1.6-0.3
		c1.8-1.7,3.6-3.5,5.3-5.2c0.6-0.6,1.3-1.2,1.8-1.9c0.2-0.3,0.1-1,0.1-1.4c-0.5,0-1.1-0.1-1.4,0.1c-1.4,1.3-2.8,2.7-4.1,4
		c-1.2,1.2-2.3,2.3-3.4,3.5c-0.9,1-1.9,1.3-3.2,1.3c-2.5-0.1-5,0-7.6,0c-2.4,0-3.4,1.1-3.4,3.4c0,2.3-0.1,7.1,0,9.4
		c0,1.4-0.8,1.3-1.7,1.3c-0.9,0-1.6,0-1.6-1.3c0.1-3.3,0-9.1,0-12.4c0-2.4,1.3-3.5,3.6-3.5c2.5,0,5,0,7.6,0c0.5,0,0.9-0.1,1.8-0.1
		c-0.9-1-1.5-1.7-2.1-2.3c-1.7-1.6-1.8-3.9-0.2-5.7C17.9,0.8,20.4,0.6,22,2C22.7,2.6,23.4,3.3,24,3.9"/>
	<path class="st0" d="M25.2,48.9c-5.1,0-10.3,0-15.4,0C7,48.9,6,47.9,6,45.1C6,42,6,36.2,5.9,33c0-0.9,0.1-1.4,1-1.3
		c0.9,0.1,2.2-0.6,2.2,1.2c0,2.4,0,7.3,0,9.7c0,2.2,1,3.3,3.2,3.3c8.5,0,17,0,25.5,0c2.2,0,3.3-1,3.3-3.3c0-2.3,0.1-2.1,0-4.4
		c0-1.2,0.6-1.3,1.6-1.4c1,0,1.5,0.2,1.5,1.4c-0.1,3.4,0,4.2,0,7.6c0,2-1,3-3,3C35.8,49,30.5,48.9,25.2,48.9L25.2,48.9z"/>
</g>
</svg>
