<?xml version="1.0" encoding="utf-8"?>
<!-- Generator: Adobe Illustrator 23.0.3, SVG Export Plug-In . SVG Version: 6.00 Build 0)  -->
<svg version="1.1" id="Layer_1" xmlns="http://www.w3.org/2000/svg" xmlns:xlink="http://www.w3.org/1999/xlink" x="0px" y="0px"
	 viewBox="0 0 50 50" style="enable-background:new 0 0 50 50;" xml:space="preserve">
<style type="text/css">
	.st0{fill:#BBBDBF;}
</style>
<g>
	<path class="st0" d="M43.4,33.7c0,3.4,0,6.7,0,10.1c0,1.5-0.6,2.1-2.1,2.1c-3.5,0-7,0-10.5,0c-1.1,0-1.3-0.2-1.3-1.2
		c0-3.4,0-6.9,0-10.3c0-2.3-1-3.7-3.1-4.3c-2.2-0.6-4.5,0.1-5.6,1.8c-0.4,0.7-0.6,1.4-0.6,2.1c0,3.5,0,7.1,0,10.6
		c0,1.1-0.2,1.3-1.3,1.3c-3.5,0-7,0-10.5,0c-1.3,0-2-0.6-2-1.9c0-6.9,0-13.7,0-20.6c0-0.6,0.2-0.9,0.6-1.2
		c5.7-4.2,11.5-8.4,17.2-12.6c0.5-0.4,0.8-0.3,1.2,0c5.7,4.2,11.5,8.4,17.3,12.6c0.4,0.3,0.5,0.6,0.5,1.1
		C43.4,26.7,43.4,30.2,43.4,33.7z"/>
	<path class="st0" d="M48.3,23.2c-0.4,0-0.7-0.3-1.1-0.5c-7.2-5.3-14.4-10.5-21.6-15.8c-0.5-0.4-0.8-0.4-1.3,0
		c-7,5.2-14.1,10.3-21.1,15.4c-0.3,0.2-0.5,0.4-0.8,0.6c-0.6,0.4-1.1,0.5-1.6-0.1c-0.4-0.5-0.3-1.1,0.4-1.6c1.4-1,2.7-2,4.1-3
		c6.2-4.5,12.4-9,18.6-13.6c0.8-0.6,1.4-0.6,2.1,0c7.5,5.5,15,11,22.5,16.4c0.4,0.3,0.8,0.5,0.8,1.1C49.4,22.6,48.9,23.2,48.3,23.2z
		"/>
</g>
<g>
	<path class="st0" d="M-24.9,8.6c0,2-1.7,3.7-3.7,3.7c-2,0-3.7-1.7-3.7-3.7c0-2,1.7-3.7,3.7-3.7C-26.5,4.9-24.9,6.5-24.9,8.6z
		 M-26,10.6c1-1.2,1.1-3.2-0.3-4.5c-1.4-1.3-3.6-1.2-4.8,0.3c-1.2,1.5-0.9,3.3,0,4.3c0,0,0,0,0,0c0,0,0,0,0-0.1
		c0.2-0.9,0.8-1.5,1.6-1.8c0.1,0,0.1,0,0.2,0c0.5,0.2,1,0.2,1.5,0c0.1,0,0.1,0,0.2,0C-27,9-26.5,9.4-26.2,10
		C-26.1,10.2-26,10.4-26,10.6z"/>
	<path class="st0" d="M-27.2,7.2c0,0.7-0.6,1.3-1.3,1.3c-0.7,0-1.3-0.6-1.3-1.3c0-0.7,0.6-1.3,1.3-1.3C-27.8,5.9-27.2,6.5-27.2,7.2z
		"/>
</g>
</svg>
