<?xml version="1.0" encoding="utf-8"?>
<!-- Generator: Adobe Illustrator 23.0.3, SVG Export Plug-In . SVG Version: 6.00 Build 0)  -->
<svg version="1.1" id="Layer_1" xmlns="http://www.w3.org/2000/svg" xmlns:xlink="http://www.w3.org/1999/xlink" x="0px" y="0px"
	 viewBox="0 0 50 50" style="enable-background:new 0 0 50 50;" xml:space="preserve">
<style type="text/css">
	.st0{fill:#929497;}
</style>
<g>
	<path class="st0" d="M10.6,15.2c0.1-7.4,5.9-13.8,13.1-14.3C31.7,0.2,38.4,6,39.3,13.5c0.4,3.4-0.3,6.6-2.2,9.6
		c-3.4,5.1-6.8,10.2-10.2,15.3c-0.8,1.2-1.6,1.6-2.6,1.1c-0.4-0.2-0.8-0.6-1-0.9c-3.6-5.3-7.1-10.6-10.6-15.9
		C11.2,20.5,10.6,17.9,10.6,15.2z M25.1,22.9c3.4,0,6.2-2.9,6.2-6.3c0-3.4-2.9-6.2-6.3-6.2c-3.4,0-6.2,2.9-6.2,6.2
		C18.8,20.2,21.6,23,25.1,22.9z M26.8,4.2c-0.1,0.1-0.6,0.4-0.7,0.7c-0.1,0.6,0.4,0.8,0.9,0.8c2.6,0.2,4.6,1.4,6.1,3.5
		c0.2,0.3,0.8,0.5,1.1,0.3c0.6-0.3,0.4-0.8,0.1-1.2C32.5,5.9,30.1,4.6,26.8,4.2z M36,13.4c-0.1-0.6-0.2-1.4-0.4-2.1
		c-0.1-0.3-0.5-0.4-0.8-0.6c-0.2,0.3-0.5,0.6-0.5,0.9c0,0.9,0.1,1.8,0.3,2.6c0.1,0.3,0.5,0.5,0.7,0.7c0.2-0.2,0.5-0.5,0.7-0.7
		C36,14,35.9,13.8,36,13.4z"/>
	<ellipse class="st0" cx="25.2" cy="46.8" rx="6.8" ry="2.4"/>
</g>
<g>
	<path class="st0" d="M-45,29.6c-1.6,0-2.8-1.3-2.8-2.9c0-1.6,1.3-2.9,2.8-2.9c1.6,0,2.8,1.3,2.8,2.9C-42.2,28.3-43.4,29.6-45,29.6z
		 M-42.7,26.7c0-1.3-1-2.4-2.3-2.4c-1.3,0-2.3,1.1-2.3,2.3c0,1.3,1,2.4,2.3,2.4C-43.7,29.1-42.7,28-42.7,26.7z"/>
	<path class="st0" d="M-45,27c0,0-0.1,0-0.1,0c-0.4-0.2-0.8-0.5-1.2-0.7c-0.2-0.1-0.2-0.3,0-0.4c0.1-0.1,0.2-0.1,0.2,0
		c0.1,0.1,0.3,0.2,0.4,0.2c0.2,0.1,0.5,0.3,0.7,0.4c0,0,0,0,0.1,0c0.2-0.1,0.4-0.2,0.5-0.3c0.2-0.1,0.4-0.2,0.6-0.4
		c0.1,0,0.1-0.1,0.2-0.1c0.1,0,0.3,0.1,0.3,0.2c0,0.1,0,0.2-0.1,0.2c-0.4,0.2-0.8,0.5-1.2,0.7c-0.1,0-0.2,0.1-0.2,0.1
		C-44.9,27-44.9,27-45,27z"/>
</g>
<g>
	<path class="st0" d="M-47.6,37.2c0.1-0.2,0.1-0.3,0.2-0.5c0.1-0.2,0.3-0.3,0.5-0.5c0.2-0.2,0.5-0.1,0.6,0.2
		c0.1,0.2,0.1,0.4,0.2,0.7c0.1,0.2,0,0.4-0.1,0.5c-0.2,0.2-0.1,0.3,0,0.5c0.3,0.7,0.8,1.1,1.5,1.4c0.1,0.1,0.3,0.1,0.4,0
		c0.2-0.2,0.4-0.2,0.7-0.1c0.2,0.1,0.4,0.1,0.5,0.2c0.3,0.1,0.4,0.3,0.3,0.5c-0.2,0.3-0.4,0.6-0.8,0.7c-0.1,0-0.3,0-0.5,0
		c-1.7-0.6-2.8-1.7-3.3-3.4C-47.5,37.4-47.5,37.3-47.6,37.2C-47.6,37.2-47.6,37.2-47.6,37.2z"/>
	<path class="st0" d="M-44.9,35.7c1.3,0.1,2.2,0.9,2.5,2.2c0,0.1,0,0.3,0,0.4c0,0.1,0,0.2-0.2,0.3c-0.2,0-0.2-0.1-0.2-0.2
		c0-0.5-0.2-1-0.5-1.4c-0.4-0.5-1-0.8-1.6-0.8c-0.1,0-0.2,0-0.3-0.1C-45.2,35.8-45.1,35.7-44.9,35.7z"/>
	<path class="st0" d="M-43.1,38.3c0,0.1,0,0.3-0.2,0.3c-0.1,0-0.2-0.1-0.2-0.2c-0.1-0.6-0.4-1.1-1-1.4c-0.2-0.1-0.4-0.1-0.5-0.1
		c-0.1,0-0.2-0.1-0.2-0.2c0-0.1,0.1-0.2,0.2-0.2c0.8,0,1.6,0.7,1.8,1.5C-43.2,38.1-43.2,38.2-43.1,38.3z"/>
	<path class="st0" d="M-43.9,38.3c0,0.1,0,0.2-0.2,0.2c-0.1,0-0.2-0.1-0.2-0.2c0-0.4-0.3-0.7-0.7-0.7c-0.1,0-0.2,0-0.2-0.2
		c0-0.2,0.1-0.2,0.2-0.2C-44.4,37.3-43.9,37.8-43.9,38.3z"/>
</g>
</svg>
