<?xml version="1.0" encoding="utf-8"?>
<!-- Generator: Adobe Illustrator 23.0.3, SVG Export Plug-In . SVG Version: 6.00 Build 0)  -->
<svg version="1.1" id="Layer_1" xmlns="http://www.w3.org/2000/svg" xmlns:xlink="http://www.w3.org/1999/xlink" x="0px" y="0px"
	 viewBox="0 0 50 50" style="enable-background:new 0 0 50 50;" xml:space="preserve">
<style type="text/css">
	.st0{fill:#BBBDBF;}
</style>
<g>
	<path class="st0" d="M15.6,19.3c0.1,0,0.2,0,0.3,0c4.3,0,8.5,0,12.8,0c1.1,0,1.8,0.7,1.8,1.8c0,2.6,0,5.2,0,7.8
		c0,0.9-0.7,1.8-1.8,1.8c-4.3,0-8.5,0-12.8,0c-0.1,0-0.1,0-0.3,0c0,0.1,0,0.2,0,0.3c0,1.7,0,3.3,0,5c0,0.7-0.3,1.3-1,1.6
		c-0.7,0.3-1.3,0.2-1.8-0.4c-1.3-1.3-2.6-2.6-3.9-3.9c-1-1-2-2-3-3c-1.4-1.4-2.8-2.8-4.2-4.2c-0.6-0.6-0.6-1.6,0-2.2
		c1.3-1.3,2.6-2.6,3.9-3.9c1-1,2-2,3-3c1.4-1.4,2.8-2.8,4.3-4.3c0.5-0.5,1.1-0.6,1.8-0.3c0.6,0.3,1,0.8,1,1.5c0,1.1,0,2.1,0,3.2
		C15.6,17.8,15.6,18.6,15.6,19.3z"/>
	<path class="st0" d="M45.5,41.8c0-11.2,0-22.4,0-33.6c-8.4,0-16.8,0-25.1,0c0,0.1,0,0.3,0,0.4c0,2.1,0,4.2,0,6.3
		c0,0.6-0.2,1.1-0.8,1.4c-1.1,0.7-2.5,0-2.5-1.3c0-1.6,0-3.2,0-4.8c0-1.2,0-2.4,0-3.6c0-1.1,0.7-1.8,1.8-1.8c2.9,0,5.7,0,8.6,0
		c4.4,0,8.8,0,13.2,0c2.2,0,4.3,0,6.5,0c1.1,0,1.8,0.8,1.8,1.8c0,12.1,0,24.2,0,36.3c0,0.3,0,0.5,0,0.8c-0.2,0.8-0.8,1.3-1.7,1.3
		c-2,0-4.1,0-6.1,0c-2.4,0-4.8,0-7.1,0c-3.5,0-6.9,0-10.4,0c-1.6,0-3.2,0-4.8,0c-1,0-1.7-0.7-1.7-1.7c0-2.5,0-4.9,0-7.4
		c0-0.4,0-0.7,0-1.1c0-0.8,0.7-1.6,1.6-1.6c1,0,1.8,0.7,1.8,1.7c0,2.1,0,4.2,0,6.4c0,0.1,0,0.2,0,0.3C28.7,41.8,37.1,41.8,45.5,41.8
		z"/>
</g>
</svg>
