<?xml version="1.0" encoding="utf-8"?>
<!-- Generator: Adobe Illustrator 23.0.3, SVG Export Plug-In . SVG Version: 6.00 Build 0)  -->
<svg version="1.1" id="Layer_1" xmlns="http://www.w3.org/2000/svg" xmlns:xlink="http://www.w3.org/1999/xlink" x="0px" y="0px"
	 viewBox="0 0 50 50" style="enable-background:new 0 0 50 50;" xml:space="preserve">
<style type="text/css">
	.st0{fill:#FFFFFF;}
</style>
<g>
	<path class="st0" d="M31.2,13.7c-1.6-1-3.2-1.7-5-2c-3-0.7-6-0.5-8.9,0.5c-3.3,1.2-6,3.2-8,6.1c-1.4,2.1-2.3,4.3-2.6,6.8
		c-0.4,2.9-0.1,5.8,1.1,8.5c1.1,2.6,2.8,4.8,5.1,6.6c2,1.5,4.2,2.5,6.6,3c2,0.4,4,0.5,6,0.1c4.8-0.9,8.6-3.4,11.1-7.6
		c3.1-5.4,3.1-10.9,0.1-16.3c-0.2-0.3-0.2-0.5,0.1-0.7c0.5-0.5,1-1,1.5-1.4c0.1-0.1,0.4-0.2,0.6-0.2c1.1,0,2.1,0.1,3.2,0.2
		c0.1,0,0.2,0.1,0.3,0.2c0.9,1.7,1.5,3.4,1.9,5.2c0.9,4.1,0.7,8.2-0.7,12.2c-2,5.4-5.5,9.5-10.7,12.2c-3.4,1.8-7,2.6-10.8,2.4
		c-6.4-0.3-11.7-2.8-15.9-7.7c-4-4.6-5.7-10.1-5.2-16.2c0.6-7.1,4-12.6,10-16.5c4-2.6,8.4-3.7,13.2-3.5c3,0.2,5.9,0.9,8.6,2.3
		c0.1,0.1,0.2,0.2,0.2,0.3c0.1,1.2,0.2,2.3,0.2,3.5c0,0.2-0.1,0.4-0.2,0.5C32.3,12.7,31.7,13.2,31.2,13.7z"/>
	<path class="st0" d="M32.4,22.9c2,4,1.2,9.6-3.1,13c-4.4,3.5-10.6,3-14.4-0.8c-3.9-4-4.2-10.1-0.7-14.4c3.4-4.2,9-4.9,12.9-2.9
		c-0.6,0.6-1.1,1.1-1.7,1.7c-0.7,0.7-1.4,1.4-2.1,2.1c-0.2,0.2-0.4,0.3-0.7,0.3c-2.9,0-5.2,2-5.7,4.9c-0.4,2.6,1.3,5.3,3.9,6.2
		c3.7,1.2,7.5-1.6,7.5-5.5c0-0.2,0-0.4,0.1-0.5C29.8,25.6,31.1,24.3,32.4,22.9z"/>
	<path class="st0" d="M42.2,5c0.4-0.4,0.8-0.8,1.2-1.3c0.8-0.8,1.7-0.8,2.5,0c0.2,0.2,0.5,0.5,0.7,0.7c0.6,0.7,0.6,1.5,0,2.2
		c-0.3,0.3-0.6,0.6-1,1c-0.1,0.1-0.2,0.2-0.3,0.3c1,0.1,1.9,0.1,2.8,0.2c0.2,0,0.5,0,0.7,0.1c0.2,0.1,0.4,0.2,0.5,0.3
		c0.1,0.2,0,0.5-0.2,0.6c-0.8,0.8-1.5,1.6-2.3,2.3c-1.1,1.1-2.2,2.2-3.3,3.3c-0.7,0.7-1.5,1-2.5,0.9c-1-0.1-1.9-0.2-2.9-0.2
		c-0.2,0-0.4,0.1-0.5,0.2c-3.2,3.2-6.4,6.4-9.6,9.6c-0.5,0.5-1,1-1.5,1.5c-0.3,0.4-0.8,0.5-1.2,0.5c-0.4,0-0.7,0-1.1,0
		c-0.9,0-1.4-0.6-1.4-1.4c0-0.4,0-0.8,0.1-1.2c0.1-0.4,0.3-0.7,0.5-1c3.2-3.3,6.5-6.5,9.8-9.8c0.3-0.3,0.6-0.7,1-1
		c0.3-0.3,0.4-0.6,0.4-1.1c-0.1-1-0.1-1.9-0.2-2.9c-0.1-1.1,0.2-1.9,1-2.7c1.8-1.7,3.5-3.5,5.3-5.3c0.1-0.1,0.2-0.2,0.3-0.3
		c0.4-0.3,0.8-0.2,0.9,0.3c0.1,0.7,0.1,1.4,0.2,2.1c0,0.6,0.1,1.2,0.1,1.7C42.1,4.9,42.2,4.9,42.2,5z"/>
</g>
</svg>
