<?xml version="1.0" encoding="utf-8"?>
<!-- Generator: Adobe Illustrator 23.0.3, SVG Export Plug-In . SVG Version: 6.00 Build 0)  -->
<svg version="1.1" id="Layer_1" xmlns="http://www.w3.org/2000/svg" xmlns:xlink="http://www.w3.org/1999/xlink" x="0px" y="0px"
	 viewBox="0 0 50 50" style="enable-background:new 0 0 50 50;" xml:space="preserve">
<style type="text/css">
	.st0{fill:#F2F2F2;}
</style>
<g>
	<g>
		<path class="st0" d="M48.1,13H2.5c-0.4,0-0.8-0.3-0.8-0.8l0-5.4C1.8,6.4,2.1,6,2.5,6h45.5c0.4,0,0.8,0.3,0.8,0.8v5.4
			C48.8,12.7,48.5,13,48.1,13z"/>
	</g>
	<g>
		<path class="st0" d="M48.1,28.8H2.5c-0.4,0-0.8-0.3-0.8-0.8v-5.4c0-0.4,0.3-0.8,0.8-0.8h45.5c0.4,0,0.8,0.3,0.8,0.8V28
			C48.8,28.4,48.5,28.8,48.1,28.8z"/>
	</g>
	<g>
		<path class="st0" d="M48.1,44.5H2.5c-0.4,0-0.8-0.3-0.8-0.8v-5.4c0-0.4,0.3-0.8,0.8-0.8h45.5c0.4,0,0.8,0.3,0.8,0.8v5.4
			C48.8,44.2,48.5,44.5,48.1,44.5z"/>
	</g>
</g>
</svg>
