<?xml version="1.0" encoding="utf-8"?>
<!-- Generator: Adobe Illustrator 23.0.3, SVG Export Plug-In . SVG Version: 6.00 Build 0)  -->
<svg version="1.1" id="Layer_1" xmlns="http://www.w3.org/2000/svg" xmlns:xlink="http://www.w3.org/1999/xlink" x="0px" y="0px"
	 viewBox="0 0 20 20" style="enable-background:new 0 0 20 20;" xml:space="preserve">
<style type="text/css">
	.st0{fill:#F69320;}
	.st1{fill:#FFFFFF;}
</style>
<g>
	<circle class="st0" cx="10" cy="10" r="9.3"/>
	<g>
		<path class="st1" d="M12.1,6.5c-0.4-0.2-0.8-0.4-1.3-0.5c-0.8-0.2-1.5-0.1-2.3,0.1C7.7,6.4,7,6.9,6.5,7.7C6.1,8.2,5.9,8.8,5.8,9.4
			c-0.1,0.8,0,1.5,0.3,2.2c0.3,0.7,0.7,1.3,1.3,1.7c0.5,0.4,1.1,0.7,1.7,0.8c0.5,0.1,1,0.1,1.5,0c1.3-0.2,2.2-0.9,2.9-2
			c0.8-1.4,0.8-2.8,0-4.2c0-0.1,0-0.1,0-0.2c0.1-0.1,0.2-0.3,0.4-0.4c0,0,0.1-0.1,0.1-0.1c0.3,0,0.5,0,0.8,0c0,0,0.1,0,0.1,0.1
			c0.2,0.4,0.4,0.9,0.5,1.3c0.2,1.1,0.2,2.1-0.2,3.2c-0.5,1.4-1.4,2.5-2.8,3.1c-0.9,0.5-1.8,0.7-2.8,0.6c-1.7-0.1-3-0.7-4.1-2
			c-1-1.2-1.5-2.6-1.3-4.2c0.2-1.8,1-3.3,2.6-4.3c1-0.7,2.2-1,3.4-0.9c0.8,0,1.5,0.2,2.2,0.6c0,0,0.1,0.1,0.1,0.1
			c0,0.3,0,0.6,0.1,0.9c0,0,0,0.1-0.1,0.1C12.4,6.2,12.3,6.3,12.1,6.5z"/>
		<path class="st1" d="M12.5,8.9c0.5,1,0.3,2.5-0.8,3.4C10.5,13.1,8.9,13,8,12c-1-1-1.1-2.6-0.2-3.7c0.9-1.1,2.3-1.3,3.3-0.8
			c-0.1,0.1-0.3,0.3-0.4,0.4c-0.2,0.2-0.4,0.4-0.5,0.5C10.1,8.6,10,8.6,10,8.6c-0.7,0-1.3,0.5-1.5,1.3c-0.1,0.7,0.3,1.4,1,1.6
			c1,0.3,1.9-0.4,1.9-1.4c0,0,0-0.1,0-0.1C11.8,9.6,12.1,9.2,12.5,8.9z"/>
		<path class="st1" d="M15,4.2c0.1-0.1,0.2-0.2,0.3-0.3c0.2-0.2,0.4-0.2,0.6,0C16,4,16.1,4,16.1,4.1c0.2,0.2,0.2,0.4,0,0.6
			c-0.1,0.1-0.2,0.2-0.2,0.3c0,0,0,0-0.1,0.1c0.3,0,0.5,0,0.7,0.1c0.1,0,0.1,0,0.2,0c0,0,0.1,0,0.1,0.1c0,0,0,0.1,0,0.2
			c-0.2,0.2-0.4,0.4-0.6,0.6c-0.3,0.3-0.6,0.6-0.8,0.9C15.2,6.9,14.9,7,14.7,7c-0.2,0-0.5,0-0.7-0.1c0,0-0.1,0-0.1,0.1
			c-0.8,0.8-1.7,1.7-2.5,2.5c-0.1,0.1-0.3,0.3-0.4,0.4c-0.1,0.1-0.2,0.1-0.3,0.1c-0.1,0-0.2,0-0.3,0c-0.2,0-0.4-0.1-0.4-0.4
			c0-0.1,0-0.2,0-0.3c0-0.1,0.1-0.2,0.1-0.3c0.8-0.8,1.7-1.7,2.5-2.5c0.1-0.1,0.2-0.2,0.3-0.3C13,6.2,13,6.1,13,6
			c0-0.3,0-0.5-0.1-0.8c0-0.3,0.1-0.5,0.3-0.7c0.5-0.4,0.9-0.9,1.4-1.4c0,0,0.1-0.1,0.1-0.1c0.1-0.1,0.2,0,0.2,0.1
			c0,0.2,0,0.4,0,0.5C14.9,3.9,14.9,4.1,15,4.2C15,4.2,15,4.2,15,4.2z"/>
	</g>
</g>
</svg>
