<?xml version="1.0" encoding="utf-8"?>
<!-- Generator: Adobe Illustrator 23.0.3, SVG Export Plug-In . SVG Version: 6.00 Build 0)  -->
<svg version="1.1" id="Layer_1" xmlns="http://www.w3.org/2000/svg" xmlns:xlink="http://www.w3.org/1999/xlink" x="0px" y="0px"
	 viewBox="0 0 50 50" style="enable-background:new 0 0 50 50;" xml:space="preserve">
<style type="text/css">
	.st0{fill:#FFFFFF;}
</style>
<g>
	<path class="st0" d="M31.1,7.7c3.8,3.8,7.4,7.5,11.2,11.3C36,25.3,29.4,31.6,23.2,38.2c-3.5,3.8-7.4,6.4-12.4,7.7
		c-2.7,0.7-5.4,1.9-8.1,2.8c-0.5,0.2-1,0-1.5,0c0-0.5-0.1-1,0.1-1.4c1.7-4.9,3.5-9.7,5.2-14.5c0.1-0.4,0.3-0.8,0.6-1.1
		C15.1,23.7,23.1,15.7,31.1,7.7z M15.7,42.3c-2.7-2.7-5.3-5.3-7.9-8c-0.9,2.4-1.8,4.9-2.5,6.8c1.3,1.4,2.4,2.4,3.6,3.6
		C10.9,44,13.3,43.2,15.7,42.3z"/>
	<path class="st0" d="M33.1,5.5c1.1-1,2.1-2,3.1-3c1.7-1.6,3.8-1.8,5.5-0.2c2,1.9,4,3.9,5.9,5.9c1.5,1.6,1.4,3.8-0.1,5.4
		c-1,1.1-2.1,2.2-3.1,3.3C40.7,13.1,37,9.4,33.1,5.5z"/>
</g>
</svg>
