<?xml version="1.0" encoding="utf-8"?>
<!-- Generator: Adobe Illustrator 23.0.3, SVG Export Plug-In . SVG Version: 6.00 Build 0)  -->
<svg version="1.1" id="Layer_1" xmlns="http://www.w3.org/2000/svg" xmlns:xlink="http://www.w3.org/1999/xlink" x="0px" y="0px"
	 viewBox="0 0 50 50" style="enable-background:new 0 0 50 50;" xml:space="preserve">
<style type="text/css">
	.st0{fill:#FFFFFF;}
</style>
<g>
	<path class="st0" d="M24.9,0.9C11.6,0.9,0.8,11.7,0.8,25c0,13.3,10.8,24.1,24.1,24.1C38.2,49.1,49,38.3,49,25
		C49,11.7,38.2,0.9,24.9,0.9 M7.1,25c0-9.9,8-17.8,17.8-17.8c3.9,0,7.6,1.3,10.5,3.5L10.6,35.5C8.4,32.5,7.1,28.9,7.1,25 M24.9,42.8
		c-3.6,0-7-1.1-9.8-2.9l24.7-24.7c1.8,2.8,2.9,6.2,2.9,9.8C42.7,34.8,34.8,42.8,24.9,42.8"/>
</g>
</svg>
