<?xml version="1.0" encoding="utf-8"?>
<!-- Generator: Adobe Illustrator 23.0.3, SVG Export Plug-In . SVG Version: 6.00 Build 0)  -->
<svg version="1.1" id="Layer_1" xmlns="http://www.w3.org/2000/svg" xmlns:xlink="http://www.w3.org/1999/xlink" x="0px" y="0px"
	 viewBox="0 0 50 50" style="enable-background:new 0 0 50 50;" xml:space="preserve">
<style type="text/css">
	.st0{fill:#F69320;}
</style>
<g>
	<path class="st0" d="M29.5,32.1c-8.4,6.4-19.2,4.4-25.1-2.8c-5.5-6.8-5-17.3,1.3-23.6c6.4-6.4,16.8-6.9,23.6-1.4
		c7.4,6,9.1,16.9,2.8,25.1c0.9,1,1.7,2.2,3.4,2.1c0.7,0,1.5,0.6,2,1.1c3.6,3.6,7.3,7.2,10.8,10.8c1.5,1.5,1.5,3.6,0.1,5
		c-1.4,1.4-3.5,1.4-5-0.1c-3.7-3.6-7.3-7.3-10.9-10.9c-0.5-0.5-1-1.2-1-1.7C31.7,33.9,30.6,33.1,29.5,32.1z M4,18.2
		c0,7.9,6.4,14.3,14.2,14.4c7.8,0,14.4-6.5,14.4-14.3c0-8-6.4-14.3-14.4-14.4C10.3,3.9,4,10.3,4,18.2z"/>
	<path class="st0" d="M30,17.7c0.1,0.8,0,1.8-1.2,1.9c-1.2,0-1.4-0.9-1.5-1.9c-0.2-4.4-3.7-8-8.6-8.5C17.7,9,16.8,8.8,17,7.6
		c0.2-1.2,1.1-1.2,2-1.1C25.3,7.2,29.9,11.8,30,17.7z"/>
</g>
</svg>
