<?xml version="1.0" encoding="utf-8"?>
<!-- Generator: Adobe Illustrator 23.0.3, SVG Export Plug-In . SVG Version: 6.00 Build 0)  -->
<svg version="1.1" id="Layer_1" xmlns="http://www.w3.org/2000/svg" xmlns:xlink="http://www.w3.org/1999/xlink" x="0px" y="0px"
	 viewBox="0 0 50 50" style="enable-background:new 0 0 50 50;" xml:space="preserve">
<style type="text/css">
	.st0{fill:#BBBDBF;}
</style>
<g>
	<path class="st0" d="M44.9,15c2.3-0.1,2.3-0.1,3,2c1.3,3.8,1,3.1-1.7,4.9c-1.4,0.9-1.3,3,0.2,3.8c0.6,0.3,1.2,0.6,1.8,0.9
		c0.7,0.3,1,0.9,0.9,1.6c-0.2,1.2-0.4,2.4-0.7,3.6c-0.3,1-1.2,1-2,1c-1.1,0-2.2,0-3,1.1c-0.6,0.8-0.7,1.6-0.1,2.5
		c1.7,2.7,1.7,2.7-0.4,5.1c-0.1,0.2-0.3,0.3-0.5,0.5c-1.1,1.2-1.3,1.2-2.7,0.5c-1-0.6-2-1.1-3.3-0.6c-0.9,0.4-1.4,1-1.3,2
		c0.2,3.6,0.6,3.1-3,4.3c-2.2,0.7-2.2,0.7-3.4-1.2c-0.6-0.8-0.8-1.9-2.3-1.8c-1.1,0.1-1.8,0.5-2.3,1.5c-1.2,2.5-0.9,2.7-4,2
		c-0.1,0-0.2,0-0.3-0.1c-2.5-0.5-2.6-0.5-2.5-3.1c0-1.3-0.7-2.1-1.7-2.7c-0.9-0.5-1.7,0-2.4,0.5c-0.3,0.3-0.7,0.4-1,0.7
		c-0.8,0.6-1.5,0.6-2.2-0.1c-0.6-0.6-1.3-1.3-2-1.8c-0.9-0.7-1.1-1.5-0.5-2.5c0.6-1,1.3-2,0.7-3.2c-0.5-1.1-1.1-1.6-2.4-1.4
		c-3,0.3-3,0.3-3.9-2.5C1,29.9,1,29.9,3.4,28.4c0.7-0.5,1.5-0.9,1.4-2c-0.1-1.1-0.6-1.8-1.7-2.3c-2.4-1.1-2.4-1.1-1.9-3.8
		c0-0.2,0.1-0.4,0.2-0.7c0.5-2.4,0.5-2.4,2.9-2.4c1.4,0,2.3-0.7,2.7-1.8C7.2,15,7,14,6.7,13.5c-2.3-3-1.3-3,0.5-5.1
		C8.8,6.7,8.8,6.7,11,7.8c0.9,0.5,1.7,0.6,2.7,0.2c0.9-0.4,1.3-0.9,1.3-1.9c0-0.3,0-0.6,0-0.9c-0.1-2.5-0.1-2.5,2.3-3.3
		c3-0.9,2.6-1.5,4.6,1.6c1,1.7,3.1,1.6,4-0.2c1.5-3,1.2-2.9,4.5-2.2c0.3,0.1,0.6,0.1,0.9,0.2c1.4,0.3,1.7,0.6,1.7,2.1
		c0,1.3,0,2.5,1.3,3.3c0.7,0.5,1.3,0.6,2.1,0.2c0.1-0.1,0.3-0.2,0.4-0.2c2.8-2,2.5-1.7,4.9,0.4c0.3,0.2,0.5,0.5,0.8,0.8
		c0.9,0.7,1,1.5,0.4,2.5c-0.4,0.8-0.9,1.8-0.8,2.6C42,14.8,42.7,15.1,44.9,15z M41.5,25c0-9.1-7.4-16.6-16.5-16.6
		c-8.9,0-16.7,7-16.7,16.6c0,9.7,7.9,16.5,16.5,16.6C34.1,41.6,41.5,34.2,41.5,25z"/>
	<path class="st0" d="M39.2,25.1c0,7.9-6.3,14.3-14.3,14.4C17,39.5,10.6,33,10.6,25c0-8,6.3-14.3,14.4-14.3
		C33,10.7,39.2,16.9,39.2,25.1z M14.7,25.1c0,5.7,4.6,10.2,10.3,10.2c5.7,0,10.2-4.6,10.2-10.4c0-5.6-4.7-10.1-10.3-10
		C19.2,14.9,14.7,19.4,14.7,25.1z"/>
</g>
</svg>
