<?xml version="1.0" encoding="utf-8"?>
<!-- Generator: Adobe Illustrator 23.0.3, SVG Export Plug-In . SVG Version: 6.00 Build 0)  -->
<svg version="1.1" id="Layer_1" xmlns="http://www.w3.org/2000/svg" xmlns:xlink="http://www.w3.org/1999/xlink" x="0px" y="0px"
	 viewBox="0 0 50 50" style="enable-background:new 0 0 50 50;" xml:space="preserve">
<style type="text/css">
	.st0{clip-path:url(#SVGID_2_);fill:#FFFFFF;}
</style>
<g>
	<defs>
		<path id="SVGID_1_" d="M21.4,42L7,30.7C6.2,30.1,5.8,29,6.2,28c0.3-1,1.3-1.7,2.3-1.7h29.7c1.4,0,2.5,1.1,2.5,2.5
			c0,1.4-1.1,2.5-2.5,2.5H15.7l8.7,6.8c0.5,0.4,0.9,1,0.9,1.6c0.1,0.7-0.1,1.3-0.5,1.8c-0.5,0.6-1.2,1-1.9,1
			C22.4,42.5,21.8,42.3,21.4,42 M9.3,21.2c0-1.4,1.1-2.5,2.5-2.5h22.5l-8.7-6.8c-0.5-0.4-0.8-1-0.9-1.6c-0.1-0.7,0.1-1.3,0.5-1.8
			C26,7.4,27.5,7.2,28.6,8L43,19.3c0.8,0.6,1.2,1.8,0.8,2.8c-0.3,1-1.3,1.7-2.3,1.7H11.8C10.4,23.7,9.3,22.6,9.3,21.2 M0.8,25
			c0,13.4,10.8,24.2,24.2,24.2c13.4,0,24.2-10.8,24.2-24.2S38.4,0.8,25,0.8C11.6,0.8,0.8,11.6,0.8,25"/>
	</defs>
	<clipPath id="SVGID_2_">
		<use xlink:href="#SVGID_1_"  style="overflow:visible;"/>
	</clipPath>
	<rect x="-2.3" y="-2.3" class="st0" width="54.6" height="54.6"/>
</g>
</svg>
