<?xml version="1.0" encoding="utf-8"?>
<!-- Generator: Adobe Illustrator 23.0.3, SVG Export Plug-In . SVG Version: 6.00 Build 0)  -->
<svg version="1.1" id="Layer_1" xmlns="http://www.w3.org/2000/svg" xmlns:xlink="http://www.w3.org/1999/xlink" x="0px" y="0px"
	 viewBox="0 0 200 73" style="enable-background:new 0 0 200 73;" xml:space="preserve">
<style type="text/css">
	.st0{fill:#FFFFFF;}
</style>
<g>
	<g>
		<path class="st0" d="M93.4,30.6h-3.8c-0.2,0-0.3,0.1-0.5,0.2c-0.1,0.1-0.2,0.3-0.2,0.5v13.7c0,0.2-0.1,0.3-0.2,0.5
			c-0.1,0.1-0.3,0.2-0.5,0.2h-4.1c-0.2,0-0.3-0.1-0.5-0.2c-0.1-0.1-0.2-0.3-0.2-0.5V31.2c0-0.2-0.1-0.3-0.2-0.5
			c-0.1-0.1-0.3-0.2-0.5-0.2H79c-0.2,0-0.3-0.1-0.5-0.2c-0.1-0.1-0.2-0.3-0.2-0.5v-3.7c0-0.2,0.1-0.3,0.2-0.5
			c0.1-0.1,0.3-0.2,0.5-0.2h14.4c0.2,0,0.4,0.1,0.5,0.2C94,25.9,94,26,94,26.2v3.7c0,0.2-0.1,0.3-0.2,0.5
			C93.8,30.5,93.6,30.6,93.4,30.6z"/>
		<path class="st0" d="M99.6,45.6h-4.1c-0.2,0-0.3-0.1-0.5-0.2c-0.1-0.1-0.2-0.3-0.2-0.5V26.2c0-0.2,0.1-0.3,0.2-0.5
			c0.1-0.1,0.3-0.2,0.5-0.2h8.5c1.1,0,2,0.2,2.9,0.5c0.9,0.4,1.7,0.9,2.3,1.5c0.6,0.6,1.1,1.4,1.5,2.3c0.4,0.9,0.5,1.8,0.5,2.9
			c0,0.6-0.1,1.2-0.2,1.7c-0.1,0.6-0.3,1.1-0.6,1.6c-0.3,0.5-0.6,1-0.9,1.4c-0.3,0.4-0.7,0.8-1.2,1c-0.1,0.1-0.2,0.2-0.3,0.4
			s0,0.3,0.1,0.5c0.7,0.9,1.4,1.9,2.2,2.8c0.8,1,1.4,1.9,2.1,2.7c0.1,0.1,0.1,0.3,0.1,0.5c-0.1,0.2-0.2,0.3-0.4,0.3H107
			c-0.2,0-0.4,0-0.6-0.1c-0.2-0.1-0.4-0.2-0.5-0.4c-0.6-0.8-1.2-1.5-1.7-2.3c-0.6-0.8-1.1-1.6-1.7-2.4c-0.1-0.1-0.3-0.3-0.5-0.4
			c-0.2-0.1-0.4-0.1-0.6-0.1h-0.6c-0.2,0-0.3,0.1-0.5,0.2c-0.1,0.1-0.2,0.3-0.2,0.5v4.4c0,0.2-0.1,0.3-0.2,0.5
			C99.9,45.5,99.7,45.6,99.6,45.6z M100.9,34.8h2.9c0.2,0,0.4,0,0.7-0.1s0.5-0.2,0.7-0.4c0.2-0.2,0.4-0.4,0.5-0.6
			c0.1-0.3,0.2-0.6,0.2-0.9c0-0.2,0-0.4-0.1-0.6c-0.1-0.2-0.2-0.5-0.3-0.7c-0.2-0.2-0.4-0.4-0.6-0.6c-0.3-0.2-0.6-0.2-1-0.2h-2.9
			c-0.2,0-0.3,0.1-0.5,0.2c-0.1,0.1-0.2,0.3-0.2,0.5v2.9c0,0.2,0.1,0.3,0.2,0.5C100.5,34.7,100.7,34.8,100.9,34.8z"/>
		<path class="st0" d="M119.4,26.2c0.1-0.2,0.2-0.3,0.4-0.4c0.2-0.1,0.4-0.2,0.6-0.2h3.8c0.2,0,0.4,0.1,0.5,0.2
			c0.2,0.1,0.3,0.3,0.4,0.4l8,18.6c0.1,0.2,0.1,0.3,0,0.5c-0.1,0.2-0.3,0.3-0.6,0.3h-4.7c-0.2,0-0.4-0.1-0.6-0.2
			c-0.2-0.1-0.3-0.3-0.4-0.4l-0.7-1.6c-0.1-0.2-0.2-0.3-0.4-0.4c-0.2-0.1-0.4-0.2-0.5-0.2h-5.8c-0.2,0-0.4,0.1-0.6,0.2
			c-0.2,0.1-0.3,0.3-0.4,0.4l-0.8,1.6c-0.1,0.2-0.2,0.3-0.4,0.4c-0.2,0.1-0.4,0.2-0.5,0.2h-4.7c-0.1,0-0.2,0-0.3-0.1
			c-0.1,0-0.2-0.1-0.2-0.2c-0.1-0.1-0.1-0.2-0.1-0.3c0-0.1,0-0.2,0.1-0.4L119.4,26.2z M121,38.1h2.4c0.2,0,0.3-0.1,0.4-0.2
			c0.1-0.1,0.1-0.3,0-0.4c-0.2-0.5-0.4-1-0.7-1.6s-0.5-1.2-0.7-1.7c-0.1-0.2-0.2-0.2-0.2-0.2c-0.1,0-0.2,0.1-0.2,0.2l-1.4,3.3
			c-0.1,0.2-0.1,0.3,0,0.4C120.7,38,120.8,38.1,121,38.1z"/>
		<path class="st0" d="M133.7,44.9V26.2c0-0.2,0.1-0.3,0.2-0.5c0.1-0.1,0.3-0.2,0.5-0.2h7.5c2.9,0,5.2,0.8,7,2.5
			c1,0.9,1.7,2,2.2,3.3c0.5,1.3,0.8,2.7,0.8,4.2c0,1.6-0.3,3-0.8,4.3c-0.5,1.3-1.3,2.4-2.2,3.3c-0.9,0.8-2,1.4-3.1,1.9
			c-1.2,0.4-2.5,0.6-3.9,0.6h-7.5c-0.2,0-0.3-0.1-0.5-0.2C133.7,45.2,133.7,45.1,133.7,44.9z M139.7,40.5h2.1c0.5,0,1-0.1,1.6-0.2
			c0.5-0.1,1-0.4,1.5-0.7c0.4-0.4,0.8-0.9,1.1-1.5s0.4-1.5,0.4-2.5s-0.1-1.9-0.4-2.5c-0.3-0.6-0.6-1.1-1.1-1.5
			c-0.4-0.4-0.9-0.6-1.5-0.7c-0.5-0.1-1.1-0.2-1.6-0.2h-2.1c-0.2,0-0.3,0.1-0.5,0.2c-0.1,0.1-0.2,0.3-0.2,0.5v8.6
			c0,0.2,0.1,0.3,0.2,0.5C139.4,40.5,139.5,40.5,139.7,40.5z"/>
		<path class="st0" d="M158.3,31.2v1.1c0,0.2,0.1,0.3,0.2,0.5c0.1,0.1,0.3,0.2,0.5,0.2h7.4c0.2,0,0.3,0.1,0.5,0.2
			c0.1,0.1,0.2,0.3,0.2,0.5v3.8c0,0.2-0.1,0.3-0.2,0.5c-0.1,0.1-0.3,0.2-0.5,0.2h-7.4c-0.2,0-0.3,0.1-0.5,0.2
			c-0.1,0.1-0.2,0.3-0.2,0.5v1c0,0.2,0.1,0.3,0.2,0.5c0.1,0.1,0.3,0.2,0.5,0.2h8.5c0.2,0,0.3,0.1,0.5,0.2c0.1,0.1,0.2,0.3,0.2,0.5
			v3.8c0,0.2-0.1,0.3-0.2,0.5c-0.1,0.1-0.3,0.2-0.5,0.2h-13.9c-0.2,0-0.3-0.1-0.5-0.2c-0.1-0.1-0.2-0.3-0.2-0.5V26.2
			c0-0.2,0.1-0.3,0.2-0.5c0.1-0.1,0.3-0.2,0.5-0.2h13.9c0.2,0,0.3,0.1,0.5,0.2c0.1,0.1,0.2,0.3,0.2,0.5v3.7c0,0.2-0.1,0.3-0.2,0.5
			c-0.1,0.1-0.3,0.2-0.5,0.2h-8.5c-0.2,0-0.3,0.1-0.5,0.2C158.3,30.9,158.3,31.1,158.3,31.2z"/>
	</g>
	<g>
		<path class="st0" d="M50.8,71l-8.3-18.6c-0.1-0.2-0.1-0.4,0-0.5s0.2-0.2,0.5-0.2h4.5c0.2,0,0.4,0.1,0.5,0.2
			c0.2,0.1,0.3,0.3,0.4,0.4l4.8,11c0.1,0.2,0.2,0.2,0.4,0.2s0.3-0.1,0.4-0.2l4.8-11c0.1-0.2,0.2-0.3,0.4-0.4
			c0.2-0.1,0.4-0.2,0.5-0.2h4.5c0.2,0,0.3,0.1,0.4,0.2c0.1,0.2,0.1,0.3,0,0.5L56.3,71c-0.1,0.2-0.2,0.3-0.4,0.4
			c-0.2,0.1-0.4,0.2-0.5,0.2h-3.6c-0.2,0-0.4-0.1-0.5-0.2C51,71.3,50.9,71.1,50.8,71z"/>
		<path class="st0" d="M63.1,61.6c0-1.4,0.3-2.8,0.8-4c0.5-1.3,1.3-2.4,2.2-3.3c0.9-0.9,2-1.7,3.3-2.2c1.3-0.5,2.6-0.8,4-0.8
			c1.4,0,2.8,0.3,4,0.8c1.3,0.5,2.4,1.3,3.3,2.2c0.9,0.9,1.7,2,2.2,3.3s0.8,2.6,0.8,4c0,1.4-0.3,2.8-0.8,4c-0.5,1.3-1.3,2.4-2.2,3.3
			c-0.9,0.9-2,1.7-3.3,2.2c-1.3,0.5-2.6,0.8-4,0.8c-1.4,0-2.8-0.3-4-0.8c-1.3-0.5-2.4-1.3-3.3-2.2c-0.9-0.9-1.7-2-2.2-3.3
			C63.4,64.3,63.1,63,63.1,61.6z M68.6,61.6c0,0.7,0.1,1.3,0.4,2c0.3,0.6,0.6,1.2,1.1,1.6c0.4,0.5,1,0.9,1.6,1.1s1.2,0.4,1.9,0.4
			s1.3-0.1,1.9-0.4c0.6-0.3,1.1-0.7,1.6-1.1c0.5-0.5,0.8-1,1.1-1.6c0.3-0.6,0.4-1.3,0.4-2c0-0.7-0.1-1.3-0.4-2
			C77.8,59,77.4,58.4,77,58c-0.5-0.5-1-0.8-1.6-1.1c-0.6-0.3-1.2-0.4-1.9-0.4s-1.3,0.1-1.9,0.4C71,57.1,70.4,57.5,70,58
			c-0.4,0.5-0.8,1-1.1,1.6C68.7,60.2,68.6,60.9,68.6,61.6z"/>
		<path class="st0" d="M85.3,52.2c0-0.2,0.1-0.3,0.2-0.5c0.1-0.1,0.3-0.2,0.5-0.2H90c0.2,0,0.3,0.1,0.5,0.2c0.1,0.1,0.2,0.3,0.2,0.5
			v11.1c0,0.7,0.1,1.3,0.3,1.8c0.2,0.5,0.5,0.8,0.9,1.1c0.3,0.3,0.7,0.5,1.1,0.6c0.4,0.1,0.7,0.2,1,0.2c0.3,0,0.7-0.1,1-0.2
			c0.4-0.1,0.7-0.3,1.1-0.6c0.3-0.3,0.6-0.6,0.8-1.1c0.2-0.5,0.3-1.1,0.3-1.8V52.2c0-0.2,0.1-0.3,0.2-0.5c0.1-0.1,0.3-0.2,0.5-0.2
			h4.1c0.2,0,0.3,0.1,0.5,0.2c0.1,0.1,0.2,0.3,0.2,0.5v11.1c0,1.3-0.2,2.5-0.6,3.5c-0.4,1.1-1,2-1.8,2.7c-0.8,0.7-1.7,1.3-2.8,1.7
			s-2.3,0.6-3.6,0.6c-1.3,0-2.5-0.2-3.6-0.6c-1.1-0.4-2-1-2.8-1.7c-0.8-0.7-1.4-1.6-1.8-2.7c-0.4-1.1-0.6-2.2-0.6-3.5V52.2z"/>
		<path class="st0" d="M124.8,66.3c-0.5,0.9-1.1,1.6-1.8,2.3c-0.6,0.7-1.4,1.3-2.1,1.8c-0.8,0.5-1.7,0.9-2.6,1.1
			c-1,0.3-2,0.4-3.2,0.4c-1.5,0-2.8-0.3-4.1-0.8c-1.3-0.5-2.4-1.3-3.3-2.2c-1-0.9-1.7-2-2.3-3.3s-0.8-2.6-0.8-4c0-1.4,0.3-2.8,0.8-4
			c0.5-1.3,1.3-2.4,2.3-3.3c1-0.9,2.1-1.7,3.3-2.2c1.3-0.5,2.6-0.8,4.1-0.8c1.2,0,2.3,0.1,3.3,0.4s1.8,0.7,2.6,1.1
			c0.8,0.5,1.5,1.1,2.1,1.8c0.6,0.7,1.2,1.5,1.7,2.3c0.1,0.1,0.1,0.3,0.1,0.5c-0.1,0.2-0.2,0.3-0.3,0.4l-3.9,1.5
			c-0.2,0.1-0.4,0.1-0.5,0c-0.2-0.1-0.3-0.2-0.4-0.3c-0.5-0.8-1.2-1.5-1.9-1.9c-0.8-0.4-1.7-0.7-2.7-0.7c-0.7,0-1.3,0.1-2,0.4
			c-0.6,0.3-1.1,0.7-1.6,1.2c-0.5,0.5-0.8,1-1.1,1.7c-0.3,0.6-0.4,1.3-0.4,2c0,0.7,0.1,1.4,0.4,2c0.3,0.6,0.6,1.2,1.1,1.7
			c0.5,0.5,1,0.9,1.6,1.1c0.6,0.3,1.3,0.4,2,0.4c1,0,1.9-0.2,2.7-0.7s1.5-1.1,1.9-1.9c0.1-0.1,0.2-0.3,0.4-0.3
			c0.2-0.1,0.4-0.1,0.5,0l3.9,1.5c0.2,0.1,0.3,0.2,0.3,0.3C124.9,65.9,124.9,66.1,124.8,66.3z"/>
		<path class="st0" d="M143.3,52.2v18.7c0,0.2-0.1,0.3-0.2,0.5c-0.1,0.1-0.3,0.2-0.5,0.2h-4.1c-0.2,0-0.4-0.1-0.5-0.2
			c-0.1-0.1-0.2-0.3-0.2-0.5v-5.9c0-0.2-0.1-0.3-0.2-0.5c-0.1-0.1-0.3-0.2-0.5-0.2h-5.6c-0.2,0-0.4,0.1-0.5,0.2
			c-0.1,0.1-0.2,0.3-0.2,0.5v5.9c0,0.2-0.1,0.3-0.2,0.5c-0.1,0.1-0.3,0.2-0.5,0.2h-4.1c-0.2,0-0.4-0.1-0.5-0.2
			c-0.1-0.1-0.2-0.3-0.2-0.5V52.2c0-0.2,0.1-0.3,0.2-0.5c0.1-0.1,0.3-0.2,0.5-0.2h4.1c0.2,0,0.3,0.1,0.5,0.2
			c0.1,0.1,0.2,0.3,0.2,0.5v6.5c0,0.2,0.1,0.3,0.2,0.5c0.1,0.1,0.3,0.2,0.5,0.2h5.6c0.2,0,0.3-0.1,0.5-0.2s0.2-0.3,0.2-0.5v-6.5
			c0-0.2,0.1-0.3,0.2-0.5c0.1-0.1,0.3-0.2,0.5-0.2h4.1c0.2,0,0.3,0.1,0.5,0.2S143.3,52,143.3,52.2z"/>
		<path class="st0" d="M151.1,57.2v1.1c0,0.2,0.1,0.3,0.2,0.5c0.1,0.1,0.3,0.2,0.5,0.2h7.4c0.2,0,0.3,0.1,0.5,0.2s0.2,0.3,0.2,0.5
			v3.8c0,0.2-0.1,0.3-0.2,0.5c-0.1,0.1-0.3,0.2-0.5,0.2h-7.4c-0.2,0-0.3,0.1-0.5,0.2c-0.1,0.1-0.2,0.3-0.2,0.5v1
			c0,0.2,0.1,0.3,0.2,0.5c0.1,0.1,0.3,0.2,0.5,0.2h8.5c0.2,0,0.3,0.1,0.5,0.2c0.1,0.1,0.2,0.3,0.2,0.5v3.8c0,0.2-0.1,0.3-0.2,0.5
			c-0.1,0.1-0.3,0.2-0.5,0.2h-13.9c-0.2,0-0.3-0.1-0.5-0.2c-0.1-0.1-0.2-0.3-0.2-0.5V52.2c0-0.2,0.1-0.3,0.2-0.5s0.3-0.2,0.5-0.2
			h13.9c0.2,0,0.3,0.1,0.5,0.2s0.2,0.3,0.2,0.5v3.7c0,0.2-0.1,0.3-0.2,0.5s-0.3,0.2-0.5,0.2h-8.5c-0.2,0-0.3,0.1-0.5,0.2
			C151.1,56.9,151.1,57.1,151.1,57.2z"/>
		<path class="st0" d="M167.8,71.6h-4.1c-0.2,0-0.3-0.1-0.5-0.2c-0.1-0.1-0.2-0.3-0.2-0.5V52.2c0-0.2,0.1-0.3,0.2-0.5
			s0.3-0.2,0.5-0.2h8.5c1.1,0,2,0.2,2.9,0.5c0.9,0.4,1.7,0.9,2.3,1.5c0.6,0.6,1.1,1.4,1.5,2.3c0.4,0.9,0.5,1.8,0.5,2.9
			c0,0.6-0.1,1.2-0.2,1.7c-0.1,0.6-0.3,1.1-0.6,1.6c-0.3,0.5-0.6,1-0.9,1.4c-0.3,0.4-0.7,0.8-1.2,1c-0.1,0.1-0.2,0.2-0.3,0.4
			c0,0.2,0,0.3,0.1,0.5c0.7,0.9,1.4,1.9,2.2,2.8c0.8,1,1.4,1.9,2,2.7c0.1,0.1,0.1,0.3,0.1,0.5c-0.1,0.2-0.2,0.3-0.4,0.3h-5.1
			c-0.2,0-0.4,0-0.6-0.1s-0.4-0.2-0.5-0.4c-0.6-0.8-1.2-1.5-1.7-2.3c-0.6-0.8-1.1-1.6-1.7-2.4c-0.1-0.1-0.3-0.3-0.5-0.4
			c-0.2-0.1-0.4-0.1-0.6-0.1h-0.6c-0.2,0-0.3,0.1-0.5,0.2c-0.1,0.1-0.2,0.3-0.2,0.5v4.4c0,0.2-0.1,0.3-0.2,0.5
			C168.1,71.5,168,71.6,167.8,71.6z M169.1,60.8h2.9c0.2,0,0.4,0,0.7-0.1c0.2-0.1,0.5-0.2,0.7-0.4c0.2-0.2,0.4-0.4,0.5-0.6
			c0.1-0.3,0.2-0.6,0.2-0.9c0-0.2,0-0.4-0.1-0.6c-0.1-0.2-0.2-0.5-0.3-0.7c-0.2-0.2-0.4-0.4-0.6-0.6c-0.3-0.2-0.6-0.2-1-0.2h-2.9
			c-0.2,0-0.3,0.1-0.5,0.2c-0.1,0.1-0.2,0.3-0.2,0.5v2.9c0,0.2,0.1,0.3,0.2,0.5C168.8,60.7,168.9,60.8,169.1,60.8z"/>
		<path class="st0" d="M183.6,64.7c1,0.6,2,1.1,2.9,1.5c1,0.4,1.9,0.5,2.7,0.5c0.8,0,1.4-0.1,1.8-0.3c0.4-0.2,0.6-0.6,0.6-1
			c0-0.2-0.1-0.4-0.3-0.6s-0.4-0.3-0.7-0.3c-0.3-0.1-0.7-0.2-1-0.2c-0.4-0.1-0.8-0.1-1.2-0.2c-0.4-0.1-0.9-0.2-1.4-0.3
			c-0.5-0.1-1.1-0.2-1.7-0.4c-0.6-0.2-1.1-0.4-1.7-0.7c-0.6-0.3-1.1-0.7-1.5-1.1c-0.4-0.5-0.8-1-1.1-1.6c-0.3-0.6-0.4-1.4-0.4-2.2
			c0-1.3,0.2-2.3,0.7-3.1c0.5-0.8,1.1-1.5,1.9-2c0.8-0.5,1.6-0.8,2.5-1c0.9-0.2,1.8-0.3,2.7-0.3c1.5,0,2.9,0.2,4.1,0.7
			s2.4,1.1,3.5,2c0.1,0.1,0.2,0.3,0.2,0.5c0,0.2,0,0.3-0.1,0.5l-2.1,3c-0.1,0.1-0.3,0.2-0.4,0.3c-0.2,0-0.3,0-0.5-0.1
			c-0.9-0.6-1.8-1-2.6-1.2c-0.8-0.2-1.5-0.4-2.2-0.4c-0.2,0-0.4,0-0.7,0c-0.3,0-0.5,0-0.8,0.1c-0.2,0.1-0.4,0.2-0.6,0.3
			c-0.2,0.1-0.2,0.3-0.2,0.6c0,0.3,0.2,0.5,0.6,0.7c0.4,0.2,0.8,0.4,1.3,0.5c0.5,0.1,1,0.3,1.4,0.3c0.5,0.1,0.7,0.1,0.9,0.1
			c0.7,0.1,1.4,0.3,2.2,0.6c0.8,0.2,1.5,0.6,2.2,1.1c0.7,0.5,1.3,1.1,1.7,1.9c0.5,0.8,0.7,1.7,0.7,2.9c0,1.1-0.2,2-0.6,2.8
			c-0.4,0.8-0.9,1.4-1.6,2s-1.5,0.9-2.5,1.1c-1,0.2-2,0.4-3.2,0.4c-0.9,0-1.8-0.1-2.7-0.2s-1.6-0.4-2.3-0.6c-0.7-0.3-1.4-0.6-2-1
			s-1.2-0.8-1.7-1.2c-0.1-0.1-0.2-0.3-0.2-0.5c0-0.2,0-0.4,0.1-0.5l2.1-3c0.1-0.1,0.3-0.2,0.4-0.3C183.3,64.6,183.4,64.6,183.6,64.7
			z"/>
	</g>
	<path class="st0" d="M7,25h51.3L37,8.4c-1.8-1.4-2.1-4-0.7-5.7c1.4-1.8,4-2.1,5.7-0.7l30.6,23.9c1.4,1.1,1.9,2.9,1.3,4.5
		c-0.6,1.6-2.1,2.7-3.9,2.7H7c-2.3,0-4.1-1.8-4.1-4.1S4.7,25,7,25z"/>
	<path class="st0" d="M70.2,46.6H18.8l21.3,16.6c1.8,1.4,2.1,3.9,0.7,5.7c-0.8,1-2,1.6-3.2,1.6c-0.9,0-1.8-0.3-2.5-0.9L4.5,45.7
		c-1.4-1.1-1.9-2.9-1.3-4.5c0.6-1.7,2.1-2.8,3.9-2.8h63.2c2.3,0,4.1,1.8,4.1,4.1C74.3,44.7,72.4,46.6,70.2,46.6z"/>
</g>
</svg>
