<?xml version="1.0" encoding="utf-8"?>
<!-- Generator: Adobe Illustrator 23.0.3, SVG Export Plug-In . SVG Version: 6.00 Build 0)  -->
<svg version="1.1" id="Layer_1" xmlns="http://www.w3.org/2000/svg" xmlns:xlink="http://www.w3.org/1999/xlink" x="0px" y="0px"
	 viewBox="0 0 600 600" style="enable-background:new 0 0 600 600;" xml:space="preserve">
<style type="text/css">
	.st0{fill:#BBBDBF;}
</style>
<g>
	<path class="st0" d="M592.9,300c0,162.4-131.1,293.5-293.5,293.5C138.2,593.5,7.1,461.2,7.1,298.8C7.1,137.6,139.4,6.5,303,6.5
		C461.8,6.5,592.9,140,592.9,300z M506.3,464.8c79.4-93.8,85.4-256.2-26.5-360.8C369.2,1.7,193.6,12.5,97.3,128
		C1.1,242.3,27.6,392.6,94.9,464.8l1.2-1.2c0-1.2,1.2-3.6,1.2-4.8C116.6,389,158.7,340.9,226,313.2c6-2.4,10.8-2.4,16.8,1.2
		c38.5,18,77,18,115.5,0c6-2.4,10.8-3.6,16.8-1.2c49.3,19.2,86.6,51.7,110.7,98.6C493,429.9,499.1,447.9,506.3,464.8z"/>
	<path class="st0" d="M404,195.4c0,58.9-46.9,104.6-105.8,104.6c-57.7,0-103.4-48.1-103.4-105.8S242.9,90.7,300.6,90.7
		C358.3,90.7,404,138.8,404,195.4z"/>
</g>
</svg>
