<?xml version="1.0" encoding="utf-8"?>
<!-- Generator: Adobe Illustrator 23.0.3, SVG Export Plug-In . SVG Version: 6.00 Build 0)  -->
<svg version="1.1" id="Layer_1" xmlns="http://www.w3.org/2000/svg" xmlns:xlink="http://www.w3.org/1999/xlink" x="0px" y="0px"
	 viewBox="0 0 50 50" style="enable-background:new 0 0 50 50;" xml:space="preserve">
<style type="text/css">
	.st0{fill:#F6921E;}
</style>
<g>
	<path class="st0" d="M49.4,25c0,13.5-10.9,24.4-24.4,24.4c-13.4,0-24.3-11-24.3-24.5c0-13.4,11-24.3,24.6-24.3
		C38.5,0.6,49.4,11.7,49.4,25z M42.2,38.7c6.6-7.8,7.1-21.3-2.2-30c-9.2-8.5-23.8-7.6-31.8,2c-8,9.5-5.8,22-0.2,28l0.1-0.1
		c0-0.1,0.1-0.3,0.1-0.4c1.6-5.8,5.1-9.8,10.7-12.1c0.5-0.2,0.9-0.2,1.4,0.1c3.2,1.5,6.4,1.5,9.6,0c0.5-0.2,0.9-0.3,1.4-0.1
		c4.1,1.6,7.2,4.3,9.2,8.2C41.1,35.8,41.6,37.3,42.2,38.7z"/>
	<path class="st0" d="M33.7,16.3c0,4.9-3.9,8.7-8.8,8.7c-4.8,0-8.6-4-8.6-8.8s4-8.6,8.8-8.6C29.9,7.6,33.7,11.6,33.7,16.3z"/>
</g>
</svg>
