<?xml version="1.0" encoding="utf-8"?>
<!-- Generator: Adobe Illustrator 23.0.3, SVG Export Plug-In . SVG Version: 6.00 Build 0)  -->
<svg version="1.1" id="Layer_1" xmlns="http://www.w3.org/2000/svg" xmlns:xlink="http://www.w3.org/1999/xlink" x="0px" y="0px"
	 viewBox="0 0 50 50" style="enable-background:new 0 0 50 50;" xml:space="preserve">
<style type="text/css">
	.st0{display:none;}
	.st1{display:inline;}
	.st2{fill:url(#SVGID_1_);}
	.st3{fill:#FFFFFF;}
	.st4{fill:url(#SVGID_2_);}
	.st5{clip-path:url(#SVGID_4_);}
	.st6{clip-path:url(#SVGID_6_);}
	.st7{fill:#132949;}
</style>
<g id="Layer_4" class="st0">
	<g class="st1">
		
			<linearGradient id="SVGID_1_" gradientUnits="userSpaceOnUse" x1="-0.6653" y1="-15" x2="283.9479" y2="-15" gradientTransform="matrix(1 0 0 1 0 40)">
			<stop  offset="0" style="stop-color:#743B97"/>
			<stop  offset="5.584459e-02" style="stop-color:#773B96"/>
			<stop  offset="0.1107" style="stop-color:#7F3895"/>
			<stop  offset="0.1651" style="stop-color:#8D3393"/>
			<stop  offset="0.2119" style="stop-color:#9D2C91"/>
			<stop  offset="0.2758" style="stop-color:#9F2C91"/>
			<stop  offset="0.3386" style="stop-color:#A72B91"/>
			<stop  offset="0.401" style="stop-color:#B52990"/>
			<stop  offset="0.4632" style="stop-color:#C82690"/>
			<stop  offset="0.5246" style="stop-color:#E2238F"/>
			<stop  offset="0.5428" style="stop-color:#ED2290"/>
			<stop  offset="0.5901" style="stop-color:#EC2A91"/>
			<stop  offset="0.6366" style="stop-color:#E93D96"/>
			<stop  offset="0.6828" style="stop-color:#E7549E"/>
			<stop  offset="0.7286" style="stop-color:#E36DAA"/>
			<stop  offset="0.7614" style="stop-color:#E080B4"/>
			<stop  offset="0.8432" style="stop-color:#E46BA6"/>
			<stop  offset="1" style="stop-color:#ED228A"/>
		</linearGradient>
		<circle class="st2" cx="25" cy="25" r="24.4"/>
		<g>
			<path class="st3" d="M15.3,26.3c0-3.4,0-6.8,0-10.2c0-2.6,1.3-4.1,3.9-4.2c3.9-0.1,7.9-0.1,11.9,0c2.3,0,3.7,1.6,3.8,3.9
				c0,7.1,0,14.2,0,21.3c0,1.2-0.6,1.5-1.6,0.8c-2.4-1.5-4.9-3.1-7.2-4.7c-0.7-0.4-1.1-0.4-1.7,0c-2.3,1.6-4.7,3.1-7.1,4.6
				c-0.4,0.2-1,0.4-1.4,0.3c-0.2-0.1-0.4-0.8-0.4-1.2C15.2,33.3,15.3,29.8,15.3,26.3z M32.9,35.6c0.1-0.3,0.1-0.3,0.1-0.4
				c0-6.4,0-12.8,0-19.2c0-1.7-0.9-2.4-2.6-2.4c-3.6,0-7.2,0-10.9,0c-1.8,0-2.6,0.8-2.6,2.6c0,6.1,0,12.3,0,18.4
				c0,0.3,0,0.6,0.1,0.9c0.3-0.2,0.5-0.3,0.7-0.4c2-1.3,4.1-2.6,6-4c0.9-0.6,1.5-0.6,2.3,0C28.3,32.7,30.6,34.1,32.9,35.6z"/>
			<path class="st3" d="M29.7,18.6c-1.5-1.2-3-1-4.7,0.7c-0.2-0.2-0.4-0.3-0.5-0.5c-1.3-1.2-3.1-1.3-4.2-0.2c-1.3,1.2-1.3,3-0.1,4.4
				c1.4,1.6,2.7,3.2,4,4.8c0.7,0.9,1.1,0.9,1.8,0c1.4-1.7,2.8-3.4,4.2-5.1C31.2,21.5,31,19.6,29.7,18.6z"/>
		</g>
	</g>
</g>
<g class="st0">
	<g class="st1">
		
			<linearGradient id="SVGID_2_" gradientUnits="userSpaceOnUse" x1="-118.9677" y1="-15" x2="165.6455" y2="-15" gradientTransform="matrix(1 0 0 1 0 40)">
			<stop  offset="0" style="stop-color:#743B97"/>
			<stop  offset="5.584459e-02" style="stop-color:#773B96"/>
			<stop  offset="0.1107" style="stop-color:#7F3895"/>
			<stop  offset="0.1651" style="stop-color:#8D3393"/>
			<stop  offset="0.2119" style="stop-color:#9D2C91"/>
			<stop  offset="0.2758" style="stop-color:#9F2C91"/>
			<stop  offset="0.3386" style="stop-color:#A72B91"/>
			<stop  offset="0.401" style="stop-color:#B52990"/>
			<stop  offset="0.4632" style="stop-color:#C82690"/>
			<stop  offset="0.5246" style="stop-color:#E2238F"/>
			<stop  offset="0.5428" style="stop-color:#ED2290"/>
			<stop  offset="0.5901" style="stop-color:#EC2A91"/>
			<stop  offset="0.6366" style="stop-color:#E93D96"/>
			<stop  offset="0.6828" style="stop-color:#E7549E"/>
			<stop  offset="0.7286" style="stop-color:#E36DAA"/>
			<stop  offset="0.7614" style="stop-color:#E080B4"/>
			<stop  offset="0.8432" style="stop-color:#E46BA6"/>
			<stop  offset="1" style="stop-color:#ED228A"/>
		</linearGradient>
		<circle class="st4" cx="25" cy="25" r="24.4"/>
		<g>
			<path class="st3" d="M37.2,14.6c-3,0-6.1,0-9.1,0h-3l0,0h-3.7c-2.9,0-5.9,0-8.8,0c-1.8,0-2.8,1-2.8,2.8c0,5.1,0,10.2,0,15.4
				c0,1.8,1,2.8,2.8,2.8c4.8,0,9.6,0,14.4,0c3.4,0,6.8,0,10.2,0c2,0,2.9-1,2.9-2.9c0-5,0-10,0-15C40.1,15.5,39.2,14.6,37.2,14.6z
				 M23.9,24.3c0,0.1-0.1,0.2-0.2,0.4c-0.1,0.1,0,0.2,0,0.3c0.1,0.1,0.2,0.1,0.3,0.1h14.7v7.7c0,0.8-0.4,1.3-1.1,1.3
				c-4.6,0-9,0-13.8,0h-4.3V27c0-0.2-0.1-0.3-0.3-0.3h-0.5c-0.2,0-0.3,0.1-0.3,0.2s-0.1,0.2-0.1,0.3c-0.1,0.3-0.2,0.5-0.2,0.8
				c0,1.6,0,3.1,0,4.8v1.4c-0.5,0-1,0-1.5,0c-1.5,0-3,0-4.4,0c-0.7,0-1-0.6-1-1.2c0-1.9,0-3.7,0-5.6v-2.1c0.1,0,0.2,0,0.3,0
				c0.5,0,1,0,1.5,0c0.2,0,0.4-0.2,0.6-0.3c0.1,0,0.1-0.1,0.2-0.1c0.1-0.1,0.1-0.2,0.1-0.3c0-0.1-0.1-0.2-0.1-0.3
				c-0.1,0-0.1-0.1-0.2-0.1c-0.2-0.1-0.4-0.3-0.6-0.3c-0.3,0-0.6,0-0.9,0c-0.3,0-0.6,0-0.9,0v-4.1c0-0.9,0-1.7,0-2.6
				c0-0.8,0.4-1.2,1.2-1.3c1.4,0,2.8,0,4.3,0c0.5,0,1,0,1.5,0v0.5c0,0.8,0,1.5,0,2.2c0,0.2,0.2,0.4,0.3,0.6c0,0.1,0.1,0.1,0.1,0.2
				c0.1,0.1,0.2,0.1,0.3,0.1l0,0c0.1,0,0.2-0.1,0.3-0.1c0-0.1,0.1-0.1,0.1-0.2c0.1-0.2,0.3-0.4,0.3-0.6c0-0.7,0-1.4,0-2.2v-0.6h5
				c4.1,0,8.2,0,12.2,0c1.5,0,1.9,0.3,1.9,1.8c0,1.6,0,3.1,0,4.8V24c-4.9,0-9.7,0-14.5,0C24.1,24,24,24.2,23.9,24.3z"/>
			<path class="st3" d="M22.9,19.6c-1.2-0.7-2.5-0.5-3.9,0.6c-1.3-1.1-2.7-1.3-3.8-0.7c-1.1,0.6-1.7,1.9-1.5,3.2
				c0.4,2.1,2,2.5,3.5,2.6c-0.4,0.4-0.8,0.8-1.2,1.2c-0.3,0.3-0.5,0.5-0.8,0.8c-0.2,0.2-0.3,0.5-0.4,0.8c0,0.1-0.1,0.2-0.1,0.3
				c0,0.1,0,0.2,0.1,0.3c0.1,0.1,0.1,0.1,0.2,0.1h0.1c0.1,0,0.2-0.1,0.3-0.1c0.3-0.1,0.5-0.2,0.8-0.4c0.7-0.7,1.4-1.5,2.1-2.3
				l0.6-0.6l0.7,0.7c0.8,0.8,1.6,1.6,2.3,2.3c0.2,0.2,0.5,0.2,0.7,0.3c0.1,0,0.2,0,0.3,0.1c0.1,0,0.2,0,0.3-0.1s0.1-0.2,0.1-0.3
				c0-0.1,0-0.2-0.1-0.2c-0.1-0.2-0.1-0.5-0.3-0.7c-0.6-0.6-1.3-1.2-2-1.8l-0.5-0.4c1.6,0.1,3.3-0.2,3.8-2.4
				C24.5,21.6,23.9,20.2,22.9,19.6z M19.7,23.8c0-0.2,0-0.3,0-0.5c0-0.5,0-1,0-1.5c0.1-0.8,0.9-1.4,1.8-1.3c0.8,0.1,1.4,0.8,1.4,1.6
				c0,0.8-0.7,1.6-1.5,1.6c-0.2,0-0.5,0-0.7,0C20.4,23.8,20,23.8,19.7,23.8z M16.6,20.6c0.8,0,1.5,0.6,1.6,1.4c0,0.4,0,0.9,0,1.4
				c0,0.2,0,0.3,0,0.5c-0.1,0-0.3,0-0.4,0c-0.5,0-1,0-1.4,0C15.5,23.7,15,23,15,22.1C15.1,21.3,15.7,20.6,16.6,20.6L16.6,20.6z"/>
			<path class="st3" d="M28.8,32.3c0.1,0.1,0.3,0.3,0.6,0.3c1,0,2.1,0,3.1,0s2,0,2.9,0c0.2,0,0.4-0.2,0.6-0.3c0.1,0,0.1-0.1,0.2-0.1
				c0.1-0.1,0.1-0.2,0.1-0.3c0-0.1-0.1-0.2-0.2-0.3c-0.1,0-0.1-0.1-0.2-0.1c-0.2-0.1-0.3-0.2-0.6-0.2c-0.7,0-1.5,0-2.2,0h-0.7
				c0,0,0,0-0.1,0h-0.7c-0.8,0-1.5,0-2.3,0c-0.2,0-0.4,0.2-0.6,0.3l-0.1,0.1c-0.1,0.1-0.1,0.2-0.1,0.3s0.1,0.2,0.1,0.3
				C28.7,32.3,28.8,32.3,28.8,32.3z"/>
			<path class="st3" d="M28.8,30.4c0.1,0.2,0.3,0.4,0.5,0.4c0.3,0,0.7,0,1,0c0.5,0,1,0,1.5,0c0.2,0,0.4-0.2,0.5-0.3l0.1-0.1
				c0.1-0.1,0.1-0.1,0.1-0.2s0-0.2-0.1-0.2l-0.1-0.1c-0.1-0.1-0.3-0.3-0.5-0.3c-0.3,0-0.6,0-1,0h-0.3c-0.1,0-0.3,0-0.4,0
				c-0.3,0-0.6,0-0.9,0c-0.2,0-0.4,0.2-0.5,0.3L28.6,30c-0.1,0.1-0.1,0.1-0.1,0.2s0,0.2,0.1,0.3C28.7,30.3,28.8,30.4,28.8,30.4z"/>
		</g>
	</g>
</g>
<g>
	<g>
		<g>
			<g>
				<g>
					<g>
						<defs>
							<circle id="SVGID_3_" cx="25" cy="25" r="24.4"/>
						</defs>
						<clipPath id="SVGID_4_">
							<use xlink:href="#SVGID_3_"  style="overflow:visible;"/>
						</clipPath>
						<g class="st5">
							<g>
								<g>
									<g>
										<g>
											<defs>
												<rect id="SVGID_5_" x="-4.4" y="-4.4" width="58.8" height="58.8"/>
											</defs>
											<clipPath id="SVGID_6_">
												<use xlink:href="#SVGID_5_"  style="overflow:visible;"/>
											</clipPath>
											<g class="st6">
												
													<image style="overflow:visible;enable-background:new    ;" width="125" height="125" xlink:href="6D0FA959.jpg"  transform="matrix(0.4762 0 0 0.4762 -4.8 -4.72)">
												</image>
											</g>
										</g>
									</g>
								</g>
							</g>
						</g>
					</g>
				</g>
			</g>
		</g>
	</g>
	<g>
		<path class="st3" d="M36.3,15.3c-2.8,0-5.6,0-8.4,0h-2.8l0,0h-3.4c-2.7,0-5.4,0-8.1,0c-1.6,0-2.5,0.9-2.6,2.6c0,4.7,0,9.5,0,14.2
			c0,1.6,0.9,2.6,2.5,2.6c4.4,0,8.9,0,13.3,0c3.1,0,6.3,0,9.4,0c1.8,0,2.7-0.9,2.7-2.7c0-4.6,0-9.3,0-13.9
			C39,16.2,38.1,15.3,36.3,15.3z M24,24.4c0,0.1-0.1,0.2-0.2,0.3c0,0.1,0,0.2,0,0.3c0.1,0.1,0.1,0.1,0.2,0.1h13.6v7.1
			c0,0.7-0.4,1.2-1,1.2c-4.2,0-8.3,0-12.7,0h-4v-6.6c0-0.1-0.1-0.3-0.3-0.3h-0.4c-0.1,0-0.3,0.1-0.3,0.2s-0.1,0.2-0.1,0.3
			c-0.1,0.2-0.1,0.5-0.1,0.8c0,1.5,0,2.9,0,4.4v1.3c-0.5,0-0.9,0-1.4,0c-1.4,0-2.7,0-4.1,0c-0.7,0-0.9-0.6-0.9-1.1
			c0-1.7,0-3.4,0-5.2v-1.9c0.1,0,0.2,0,0.3,0c0.5,0,0.9,0,1.4,0c0.2,0,0.4-0.2,0.6-0.3c0.1,0,0.1-0.1,0.2-0.1
			c0.1-0.1,0.1-0.1,0.1-0.2s-0.1-0.2-0.1-0.2c-0.1,0-0.1-0.1-0.2-0.1c-0.2-0.1-0.3-0.3-0.5-0.3c-0.3,0-0.5,0-0.8,0s-0.5,0-0.8,0
			v-3.8c0-0.8,0-1.6,0-2.4c0-0.7,0.4-1.1,1.1-1.2c1.3,0,2.6,0,4,0c0.5,0,0.9,0,1.4,0v0.5c0,0.7,0,1.4,0,2.1c0,0.2,0.1,0.4,0.3,0.6
			c0,0.1,0.1,0.1,0.1,0.2c0.1,0.1,0.1,0.1,0.2,0.1l0,0c0.1,0,0.2-0.1,0.2-0.1c0-0.1,0.1-0.1,0.1-0.2c0.1-0.2,0.3-0.3,0.3-0.6
			c0-0.6,0-1.3,0-2v-0.6h4.6c3.8,0,7.6,0,11.3,0c1.4,0,1.7,0.3,1.7,1.7c0,1.4,0,2.9,0,4.4V24c-4.5,0-9,0-13.4,0
			C24.1,24.1,24.1,24.2,24,24.4z"/>
		<path class="st3" d="M23,20c-1.1-0.7-2.3-0.5-3.6,0.6c-1.2-1-2.5-1.2-3.5-0.6s-1.6,1.7-1.3,2.9c0.4,1.9,1.8,2.3,3.3,2.4
			c-0.4,0.4-0.7,0.7-1.1,1.1c-0.3,0.2-0.5,0.5-0.7,0.7s-0.3,0.5-0.4,0.7c0,0.1-0.1,0.2-0.1,0.3c0,0.1,0,0.2,0.1,0.3
			c0.1,0.1,0.1,0.1,0.2,0.1H16c0.1,0,0.2-0.1,0.3-0.1c0.2-0.1,0.5-0.1,0.7-0.3c0.7-0.7,1.3-1.4,2-2.1l0.5-0.6l0.7,0.7
			c0.8,0.8,1.5,1.5,2.2,2.1c0.2,0.2,0.4,0.2,0.7,0.3c0.1,0,0.2,0,0.2,0c0.1,0,0.2,0,0.3-0.1c0.1-0.1,0.1-0.2,0.1-0.3s0-0.1-0.1-0.2
			c-0.1-0.2-0.1-0.4-0.3-0.6c-0.6-0.6-1.2-1.1-1.8-1.7L21,25.2c1.5,0.1,3.1-0.2,3.5-2.2C24.5,21.8,24,20.6,23,20z M20.1,23.9
			c0-0.2,0-0.3,0-0.5c0-0.5,0-0.9,0-1.4c0.1-0.8,0.8-1.3,1.6-1.2c0.7,0.1,1.3,0.8,1.3,1.5s-0.6,1.4-1.4,1.5c-0.2,0-0.5,0-0.7,0
			C20.7,23.9,20.4,23.9,20.1,23.9z M17.2,20.9c0.8,0,1.4,0.5,1.5,1.3c0,0.4,0,0.8,0,1.3c0,0.1,0,0.3,0,0.4c-0.1,0-0.3,0-0.4,0
			c-0.5,0-0.9,0-1.3,0c-0.7-0.1-1.3-0.8-1.2-1.6C15.8,21.6,16.4,21,17.2,20.9L17.2,20.9z"/>
		<path class="st3" d="M28.6,31.8c0.1,0.1,0.3,0.3,0.5,0.3c1,0,1.9,0,2.8,0s1.8,0,2.7,0c0.2,0,0.4-0.2,0.6-0.3
			c0.1,0,0.1-0.1,0.2-0.1c0.1-0.1,0.1-0.2,0.1-0.3s-0.1-0.2-0.2-0.2c-0.1,0-0.1-0.1-0.2-0.1c-0.1-0.1-0.3-0.2-0.5-0.2
			c-0.7,0-1.4,0-2.1,0h-0.7c0,0,0,0-0.1,0H31c-0.7,0-1.4,0-2.1,0c-0.2,0-0.4,0.1-0.5,0.3l-0.1,0.1c-0.1,0.1-0.1,0.1-0.1,0.2
			s0,0.2,0.1,0.2C28.5,31.7,28.5,31.8,28.6,31.8z"/>
		<path class="st3" d="M28.5,30c0.1,0.1,0.3,0.3,0.5,0.3c0.3,0,0.6,0,0.9,0c0.5,0,0.9,0,1.4,0c0.2,0,0.4-0.2,0.5-0.3l0.1-0.1
			c0.1-0.1,0.1-0.1,0.1-0.2s0-0.2-0.1-0.2l-0.1-0.1c-0.1-0.1-0.2-0.3-0.4-0.3c-0.3,0-0.6,0-0.9,0h-0.3c-0.1,0-0.2,0-0.4,0
			c-0.3,0-0.5,0-0.8,0c-0.2,0-0.4,0.1-0.5,0.3l-0.1,0.1c-0.1,0-0.1,0.1-0.1,0.2s0,0.2,0.1,0.2C28.4,29.9,28.5,30,28.5,30z"/>
	</g>
</g>
<rect x="0.4" y="2.4" class="st7" width="55.7" height="67.9"/>
</svg>
