<?xml version="1.0" encoding="utf-8"?>
<!-- Generator: Adobe Illustrator 23.0.3, SVG Export Plug-In . SVG Version: 6.00 Build 0)  -->
<svg version="1.1" id="Layer_1" xmlns="http://www.w3.org/2000/svg" xmlns:xlink="http://www.w3.org/1999/xlink" x="0px" y="0px"
	 viewBox="0 0 140 40" style="enable-background:new 0 0 140 40;" xml:space="preserve">
<style type="text/css">
	.st0{fill:#FFFFFF;}
</style>
<g>
	<path class="st0" d="M137.5,9.8v27.8c0,0.3-0.1,0.5-0.3,0.7c-0.2,0.2-0.4,0.3-0.7,0.3h-6.1c-0.3,0-0.5-0.1-0.7-0.3
		c-0.2-0.2-0.3-0.4-0.3-0.7v-8.7c0-0.3-0.1-0.5-0.3-0.7c-0.2-0.2-0.4-0.3-0.7-0.3h-8.3c-0.3,0-0.5,0.1-0.7,0.3
		c-0.2,0.2-0.3,0.4-0.3,0.7v8.7c0,0.3-0.1,0.5-0.3,0.7c-0.2,0.2-0.4,0.3-0.7,0.3h-6.1c-0.3,0-0.5-0.1-0.7-0.3
		c-0.2-0.2-0.3-0.4-0.3-0.7V9.8c0-0.3,0.1-0.5,0.3-0.7c0.2-0.2,0.4-0.3,0.7-0.3h6.1c0.3,0,0.5,0.1,0.7,0.3c0.2,0.2,0.3,0.4,0.3,0.7
		v9.6c0,0.3,0.1,0.5,0.3,0.7c0.2,0.2,0.4,0.3,0.7,0.3h8.3c0.3,0,0.5-0.1,0.7-0.3c0.2-0.2,0.3-0.4,0.3-0.7V9.8c0-0.3,0.1-0.5,0.3-0.7
		c0.2-0.2,0.4-0.3,0.7-0.3h6.1c0.3,0,0.5,0.1,0.7,0.3C137.4,9.3,137.5,9.6,137.5,9.8z"/>
	<path class="st0" d="M78.9,9.2c-0.2-0.2-0.4-0.3-0.7-0.3h-6.1c-0.3,0-0.5,0.1-0.7,0.3c-0.2,0.2-0.3,0.4-0.3,0.7v16.5
		c0,1.1-0.2,1.9-0.5,2.6c-0.3,0.7-0.8,1.2-1.2,1.6c-0.5,0.4-1,0.7-1.6,0.8c-0.6,0.2-1.1,0.2-1.5,0.2c-0.5,0-1-0.1-1.6-0.2
		c-0.6-0.2-1.1-0.4-1.6-0.8c-0.5-0.4-0.9-0.9-1.3-1.6c-0.3-0.7-0.5-1.6-0.5-2.6V9.9c0-0.3-0.1-0.5-0.3-0.7c-0.2-0.2-0.4-0.3-0.7-0.3
		h-6.1c-0.3,0-0.5,0.1-0.7,0.3c-0.2,0.2-0.3,0.4-0.3,0.7v4.3c1.1,1.3,2.1,2.6,2.8,4.2c0.8,1.9,1.2,3.9,1.2,6s-0.4,4.1-1.2,6
		c-0.4,0.8-0.8,1.6-1.3,2.3c0.6,1.1,1.2,2.1,2.1,2.9c1.1,1.1,2.5,2,4.1,2.6c1.6,0.6,3.4,0.9,5.3,0.9c1.9,0,3.7-0.3,5.3-0.9
		c1.6-0.6,3-1.5,4.1-2.6c1.1-1.1,2-2.5,2.6-4c0.6-1.6,0.9-3.3,0.9-5.2V9.9C79.2,9.6,79.1,9.4,78.9,9.2z"/>
	<path class="st0" d="M26.6,24.4c0-2.1,0.4-4.1,1.2-6c0.8-1.9,1.9-3.5,3.3-4.9c1.2-1.2,2.5-2.1,4-2.8L39,1.9c0.1-0.2,0.1-0.4,0-0.7
		c-0.1-0.2-0.4-0.3-0.6-0.3h-6.7c-0.3,0-0.5,0.1-0.8,0.3c-0.3,0.2-0.5,0.4-0.6,0.6L19.5,26.1c-0.1,0.2-0.3,0.4-0.5,0.4
		c-0.2,0-0.4-0.1-0.5-0.4L11.3,9.7c-0.1-0.2-0.3-0.5-0.6-0.6c-0.3-0.2-0.5-0.3-0.8-0.3H3.3C2.9,8.8,2.7,9,2.6,9.2
		c-0.1,0.2-0.1,0.5,0,0.8l12.3,27.7c0.1,0.2,0.3,0.5,0.6,0.6c0.3,0.2,0.5,0.3,0.8,0.3h5.4c0.3,0,0.5-0.1,0.8-0.3
		c0.3-0.2,0.5-0.4,0.6-0.6l4.1-9.2C26.8,27.2,26.6,25.8,26.6,24.4z"/>
	<path class="st0" d="M110.2,30.7c-0.8,1.3-1.7,2.4-2.6,3.5c-1,1-2,1.9-3.2,2.6c-1.2,0.7-2.5,1.3-3.9,1.7c-1.4,0.4-3,0.6-4.8,0.6
		c-2.2,0-4.2-0.4-6.1-1.2c-1.9-0.8-3.6-1.9-5-3.3c-1.4-1.4-2.5-3-3.4-4.9c-0.8-1.9-1.2-3.9-1.2-6s0.4-4.1,1.2-6
		c0.8-1.9,1.9-3.5,3.4-4.9c1.4-1.4,3.1-2.5,5-3.3c1.9-0.8,3.9-1.2,6.1-1.2c1.8,0,3.4,0.2,4.8,0.6c1.4,0.4,2.7,1,3.9,1.7
		c1.2,0.7,2.2,1.6,3.1,2.7c0.9,1,1.8,2.2,2.6,3.4c0.1,0.2,0.2,0.4,0.1,0.7s-0.2,0.4-0.5,0.5l-5.8,2.3c-0.3,0.1-0.5,0.1-0.8,0
		c-0.3-0.1-0.5-0.3-0.6-0.5c-0.8-1.2-1.7-2.2-2.8-2.9c-1.1-0.7-2.5-1-4-1c-1,0-2,0.2-2.9,0.7c-0.9,0.4-1.7,1-2.4,1.7
		c-0.7,0.7-1.2,1.6-1.6,2.5c-0.4,1-0.6,1.9-0.6,2.9c0,1,0.2,2,0.6,3c0.4,0.9,0.9,1.8,1.6,2.5c0.7,0.7,1.5,1.3,2.4,1.7
		c0.9,0.4,1.9,0.7,2.9,0.7c1.5,0,2.8-0.4,4-1.1c1.2-0.7,2.2-1.6,2.9-2.8c0.1-0.2,0.3-0.4,0.6-0.5c0.3-0.1,0.5-0.1,0.8,0l5.8,2.3
		c0.2,0.1,0.4,0.3,0.5,0.5C110.4,30.2,110.3,30.5,110.2,30.7z"/>
	<path class="st0" d="M41.9,14.2c-5.6,0-10.2,4.6-10.2,10.2c0,5.6,4.6,10.2,10.2,10.2c5.6,0,10.2-4.6,10.2-10.2
		C52.1,18.8,47.5,14.2,41.9,14.2z M47.5,27H38l3.7,2.9c0.2,0.2,0.4,0.4,0.4,0.7c0,0.3,0,0.5-0.2,0.8c-0.2,0.3-0.5,0.4-0.8,0.4
		c-0.2,0-0.5-0.1-0.6-0.2l-6.1-4.7c-0.3-0.3-0.5-0.7-0.3-1.2c0.1-0.4,0.5-0.7,1-0.7h12.5c0.6,0,1,0.5,1,1C48.5,26.6,48.1,27,47.5,27
		z M48.9,23.8H36.4c-0.6,0-1-0.5-1-1c0-0.6,0.5-1,1-1h9.5l-3.7-2.9c-0.2-0.2-0.4-0.4-0.4-0.7c0-0.3,0-0.5,0.2-0.8
		c0.4-0.4,1-0.5,1.5-0.2l6.1,4.7c0.3,0.3,0.5,0.7,0.3,1.2C49.7,23.6,49.3,23.8,48.9,23.8z"/>
</g>
</svg>
