<?xml version="1.0" encoding="utf-8"?>
<!-- Generator: Adobe Illustrator 23.0.3, SVG Export Plug-In . SVG Version: 6.00 Build 0)  -->
<svg version="1.1" id="Layer_1" xmlns="http://www.w3.org/2000/svg" xmlns:xlink="http://www.w3.org/1999/xlink" x="0px" y="0px"
	 viewBox="0 0 30 30" style="enable-background:new 0 0 30 30;" xml:space="preserve">
<style type="text/css">
	.st0{fill:#D0D2D3;}
	.st1{fill:#FFFFFF;}
</style>
<g>
	<circle class="st0" cx="15" cy="15" r="14.7"/>
	<g>
		<path class="st1" d="M8.2,15.9c0-2.4,0-4.8,0-7.2c0-1.8,0.9-2.9,2.7-2.9c2.8-0.1,5.5-0.1,8.3,0c1.6,0,2.6,1.1,2.6,2.7
			c0,5,0,10,0,15c0,0.8-0.4,1-1.1,0.6c-1.7-1.1-3.4-2.2-5.1-3.3c-0.5-0.3-0.8-0.3-1.2,0c-1.6,1.1-3.3,2.2-5,3.2
			c-0.3,0.2-0.7,0.3-1,0.2c-0.2-0.1-0.3-0.6-0.3-0.9C8.2,20.8,8.2,18.4,8.2,15.9z M20.5,22.5c0.1-0.2,0.1-0.2,0.1-0.3
			c0-4.5,0-9,0-13.5C20.6,7.5,20,7,18.8,7c-2.5,0-5.1,0-7.6,0C9.9,7,9.4,7.5,9.4,8.8c0,4.3,0,8.6,0,12.9c0,0.2,0,0.4,0.1,0.7
			c0.2-0.1,0.4-0.2,0.5-0.3c1.4-0.9,2.9-1.8,4.2-2.8c0.6-0.4,1-0.4,1.6,0C17.3,20.4,18.9,21.4,20.5,22.5z"/>
		<path class="st1" d="M18.3,10.5C17.2,9.7,16.2,9.8,15,11c-0.1-0.1-0.2-0.2-0.4-0.3c-0.9-0.8-2.2-0.9-3-0.2
			c-0.9,0.8-0.9,2.1-0.1,3.1c0.9,1.1,1.9,2.3,2.8,3.4c0.5,0.6,0.8,0.6,1.3,0c1-1.2,2-2.4,3-3.6C19.4,12.5,19.2,11.2,18.3,10.5z"/>
	</g>
</g>
</svg>
